<svg width="18" height="18" viewBox="0 0 18 18" fill="none" xmlns="http://www.w3.org/2000/svg">
<path d="M8.99935 17.4716C4.39697 17.4716 0.666016 13.7406 0.666016 9.13826C0.666016 4.53589 4.39697 0.804932 8.99935 0.804932C13.6017 0.804932 17.3327 4.53589 17.3327 9.13826C17.3327 13.7406 13.6017 17.4716 8.99935 17.4716ZM8.99935 15.8049C12.6813 15.8049 15.666 12.8202 15.666 9.13826C15.666 5.45636 12.6813 2.4716 8.99935 2.4716C5.31745 2.4716 2.33268 5.45636 2.33268 9.13826C2.33268 12.8202 5.31745 15.8049 8.99935 15.8049ZM4.83268 9.13826H6.49935C6.49935 10.519 7.6186 11.6383 8.99935 11.6383C10.3801 11.6383 11.4993 10.519 11.4993 9.13826H13.166C13.166 11.4394 11.3005 13.3049 8.99935 13.3049C6.69817 13.3049 4.83268 11.4394 4.83268 9.13826Z" fill="#F55B47"/>
</svg>
