<svg width="20" height="14" viewBox="0 0 20 14" fill="none" xmlns="http://www.w3.org/2000/svg">
<path d="M2.50065 2.13822H17.5007V12.1382H2.50065V2.13822ZM1.66732 0.471558C1.20708 0.471558 0.833984 0.844658 0.833984 1.30489V12.9716C0.833984 13.4318 1.20708 13.8049 1.66732 13.8049H18.334C18.7942 13.8049 19.1673 13.4318 19.1673 12.9716V1.30489C19.1673 0.844658 18.7942 0.471558 18.334 0.471558H1.66732ZM10.834 3.80489H15.834V5.47156H10.834V3.80489ZM15.0007 7.13822H10.834V8.80489H15.0007V7.13822ZM8.75065 5.47156C8.75065 6.62214 7.81791 7.55489 6.66732 7.55489C5.51673 7.55489 4.58398 6.62214 4.58398 5.47156C4.58398 4.32097 5.51673 3.38822 6.66732 3.38822C7.81791 3.38822 8.75065 4.32097 8.75065 5.47156ZM6.66732 8.38822C5.05648 8.38822 3.75065 9.69406 3.75065 11.3049H9.58398C9.58398 9.69406 8.27815 8.38822 6.66732 8.38822Z" fill="#F55B47"/>
</svg>
