<svg width="18" height="17" viewBox="0 0 18 17" fill="none" xmlns="http://www.w3.org/2000/svg">
<path d="M15.8682 2.10265C17.7538 3.99212 17.8185 7.00235 16.0648 8.96568L8.99926 16.0424L1.93383 8.96568C0.180222 7.00235 0.245772 3.98736 2.13048 2.10265C4.01732 0.215809 7.03701 0.152243 9.00018 1.91196C10.9577 0.154851 13.9827 0.213184 15.8682 2.10265ZM3.30899 3.28116C2.06754 4.52261 2.00521 6.51093 3.14929 7.82418L8.99926 13.6834L14.8494 7.82418C15.9939 6.51043 15.9318 4.52589 14.6885 3.27993C13.4491 2.03801 11.4542 1.97823 10.1446 3.12465L6.64232 6.62727L5.46381 5.44872L7.81768 3.09318L7.74951 3.03569C6.43722 1.98149 4.5187 2.07146 3.30899 3.28116Z" fill="#F55B47"/>
</svg>
