<svg width="18" height="18" viewBox="0 0 18 18" fill="none" xmlns="http://www.w3.org/2000/svg">
<path d="M0.666016 15.8047H17.3327V17.4714H0.666016V15.8047ZM2.33268 9.13802H3.99935V14.9714H2.33268V9.13802ZM6.49935 9.13802H8.16602V14.9714H6.49935V9.13802ZM9.83268 9.13802H11.4993V14.9714H9.83268V9.13802ZM13.9993 9.13802H15.666V14.9714H13.9993V9.13802ZM0.666016 4.97135L8.99935 0.804688L17.3327 4.97135V8.30469H0.666016V4.97135ZM2.33268 6.00141V6.63802H15.666V6.00141L8.99935 2.66808L2.33268 6.00141ZM8.99935 5.80469C8.5391 5.80469 8.16602 5.43159 8.16602 4.97135C8.16602 4.51112 8.5391 4.13802 8.99935 4.13802C9.4596 4.13802 9.83268 4.51112 9.83268 4.97135C9.83268 5.43159 9.4596 5.80469 8.99935 5.80469Z" fill="#F55B47"/>
</svg>
