<svg width="29" height="24" viewBox="0 0 29 24" fill="none" xmlns="http://www.w3.org/2000/svg">
<g clip-path="url(#clip0_24_248)">
<path opacity="0.3" d="M14.4586 0.649902L0.0557861 10.3074L14.4586 19.3346L28.8984 10.3259L14.4586 0.649902Z" fill="url(#paint0_linear_24_248)"/>
<path opacity="0.3" d="M14.4586 0.649902L0.0557861 10.3259H6.24694H28.8984L14.4586 0.649902Z" fill="url(#paint1_linear_24_248)"/>
<path d="M22.2744 1.68986C22.7317 2.10845 23.0569 2.6373 23.1068 3.26464C23.1111 3.41046 23.1119 3.55606 23.1114 3.70192C23.1116 3.75752 23.1119 3.81311 23.1122 3.8687C23.1129 4.01837 23.1128 4.16803 23.1126 4.3177C23.1125 4.44318 23.1127 4.56865 23.1129 4.69412C23.1135 4.99033 23.1134 5.28654 23.113 5.58275C23.1126 5.88727 23.1131 6.19177 23.1141 6.49628C23.1149 6.75881 23.1151 7.02134 23.1149 7.28387C23.1148 7.4402 23.1149 7.59652 23.1155 7.75284C23.1161 7.89989 23.1159 8.04691 23.1153 8.19395C23.1151 8.24757 23.1152 8.30119 23.1156 8.35481C23.1198 8.9691 22.9423 9.45074 22.5224 9.89844C22.2408 10.1835 21.9573 10.4177 21.6135 10.6231C21.5175 10.6822 21.4219 10.7418 21.3262 10.8015C21.3009 10.8173 21.2756 10.833 21.2495 10.8492C21.0797 10.9553 20.9128 11.0648 20.747 11.1769C20.5161 11.3326 20.2802 11.4787 20.0421 11.623C19.8329 11.7499 19.6265 11.8806 19.421 12.0136C19.2442 12.1281 19.0664 12.2409 18.8887 12.3539C18.8539 12.3761 18.8191 12.3982 18.7833 12.421C18.7119 12.4664 18.6405 12.5118 18.5691 12.5572C18.3975 12.6662 18.226 12.7754 18.0545 12.8845C18.021 12.9059 17.9875 12.9272 17.9529 12.9492C17.7816 13.0582 17.6102 13.1673 17.4389 13.2764C17.0907 13.4982 16.7422 13.7196 16.3929 13.9398C16.2038 14.0591 16.0152 14.179 15.8267 14.2993C15.4223 14.5574 15.0169 14.8138 14.6069 15.0628C14.5472 15.0998 14.4893 15.1397 14.432 15.1803C14.3141 15.2357 14.2483 15.2196 14.1248 15.1831C14.0363 15.1318 14.0363 15.1318 13.951 15.0672C13.7112 14.8915 13.4608 14.735 13.2081 14.5783C12.9675 14.4289 12.7284 14.2782 12.4936 14.1195C11.9437 13.7489 11.3741 13.4075 10.8101 13.059C10.5092 12.8729 10.2101 12.6841 9.91124 12.4947C9.76499 12.402 9.61858 12.3096 9.47219 12.2172C9.41349 12.1802 9.3548 12.1431 9.2961 12.106C9.25251 12.0785 9.25251 12.0785 9.20805 12.0504C9.12 11.9948 9.03195 11.9392 8.94391 11.8836C8.91483 11.8652 8.88575 11.8468 8.85579 11.8279C8.79733 11.791 8.73887 11.7541 8.68041 11.7172C8.52999 11.6221 8.37955 11.5271 8.2291 11.4322C7.66271 11.0747 7.66271 11.0747 7.41494 10.9162C7.32157 10.857 7.22788 10.7985 7.134 10.7401C6.49509 10.3419 6.49509 10.3419 6.2654 10.1412C6.24337 10.123 6.22134 10.1048 6.19864 10.0861C5.88216 9.80262 5.62322 9.32957 5.58756 8.90307C5.5831 8.74902 5.58218 8.59531 5.58252 8.44121C5.58225 8.3821 5.58193 8.32299 5.58157 8.26388C5.58075 8.10409 5.58064 7.94431 5.58071 7.78451C5.58071 7.65067 5.58039 7.51682 5.58008 7.38298C5.57937 7.06688 5.57926 6.75078 5.57951 6.43468C5.57976 6.10972 5.57891 5.78477 5.57754 5.45981C5.5764 5.17987 5.57598 4.89994 5.57612 4.62C5.5762 4.45322 5.576 4.28646 5.57509 4.11969C5.57426 3.96263 5.57434 3.8056 5.57509 3.64854C5.57521 3.59131 5.57503 3.53408 5.57449 3.47685C5.56801 2.73072 5.85834 2.17885 6.37662 1.65148C6.3985 1.62911 6.42039 1.60675 6.44294 1.58371C7.37163 0.708198 8.67587 0.459426 9.90516 0.452172C9.98027 0.451563 10.0554 0.450557 10.1305 0.449131C11.2339 0.428377 12.0778 0.748801 12.9819 1.35908C13.1801 1.49128 13.3816 1.61851 13.5826 1.74648C13.6602 1.79593 13.7377 1.84541 13.8152 1.89492C13.8501 1.91705 13.8851 1.93918 13.921 1.96198C13.9964 2.01101 14.0681 2.0623 14.1402 2.1159C14.2311 2.1783 14.2311 2.1783 14.3289 2.16978C14.4443 2.12444 14.5383 2.06574 14.6415 1.99672C14.6876 1.96632 14.7336 1.93596 14.7797 1.90563C14.8051 1.88883 14.8305 1.87202 14.8566 1.85471C15.052 1.72665 15.25 1.60269 15.4473 1.47775C15.6094 1.37492 15.7708 1.27151 15.9302 1.16461C17.7961 -0.0844562 20.6044 0.222236 22.2744 1.68986Z" fill="#F55B47"/>
<path d="M0.036772 10.3262C0.0843798 10.3498 0.131966 10.3734 0.179543 10.3971C0.219295 10.4169 0.219295 10.4169 0.259851 10.437C0.340725 10.4782 0.41772 10.5231 0.494245 10.5719C0.521804 10.5894 0.549363 10.6069 0.577758 10.6249C0.620791 10.6525 0.620791 10.6525 0.664693 10.6807C0.69546 10.7003 0.726227 10.7198 0.757927 10.74C0.978602 10.8807 1.1981 11.0232 1.41748 11.1658C1.68164 11.3371 1.94887 11.5033 2.21606 11.6697C2.46677 11.826 2.71651 11.9838 2.96552 12.1427C3.28857 12.3489 3.61311 12.5527 3.93828 12.7555C4.1682 12.899 4.39778 13.0429 4.62685 13.1877C4.65525 13.2057 4.68365 13.2236 4.71291 13.2421C4.82647 13.314 4.94 13.3858 5.05349 13.4577C5.38831 13.6699 5.72384 13.8808 6.0611 14.0891C6.52623 14.3763 6.98811 14.6686 7.44908 14.9625C7.88041 15.2375 8.31362 15.5093 8.74768 15.7799C8.93354 15.8958 9.11925 16.012 9.30497 16.1281C9.37912 16.1744 9.45326 16.2207 9.52741 16.2671C9.6757 16.3598 9.82399 16.4525 9.97228 16.5451C10.0273 16.5795 10.0273 16.5795 10.0835 16.6147C10.1576 16.661 10.2317 16.7073 10.3058 16.7536C10.492 16.87 10.6783 16.9863 10.8646 17.1025C11.2566 17.347 11.6476 17.593 12.037 17.8416C12.2932 18.0049 12.5505 18.1662 12.8084 18.3269C13.4285 18.7137 13.4285 18.7137 13.616 18.8414C13.712 18.9042 13.8081 18.9527 13.9132 18.9986C14.1212 19.0972 14.3332 19.2016 14.4191 19.4273C14.474 19.7072 14.4562 19.9915 14.4455 20.2749C14.4443 20.3665 14.4434 20.4582 14.4428 20.5499C14.4404 20.7902 14.4342 21.0303 14.4272 21.2705C14.4208 21.516 14.4179 21.7615 14.4147 22.0071C14.408 22.4881 14.3974 22.969 14.3839 23.4499C14.2417 23.3811 14.1129 23.2967 13.9822 23.2084C13.9311 23.1741 13.8801 23.1399 13.829 23.1056C13.789 23.0787 13.789 23.0787 13.7482 23.0513C13.2622 22.7246 12.7732 22.404 12.2777 22.0922C12.0026 21.919 11.7299 21.7428 11.46 21.5618C11.4207 21.5355 11.3814 21.5092 11.341 21.4821C11.263 21.4297 11.185 21.3772 11.1071 21.3246C10.9467 21.2168 10.7874 21.1116 10.6171 21.0199C10.4634 20.9371 10.324 20.8395 10.182 20.7381C10.0061 20.6155 9.82323 20.5041 9.64094 20.3914C9.56568 20.3447 9.49042 20.298 9.41518 20.2513C9.37837 20.2284 9.34157 20.2055 9.30365 20.182C9.02747 20.0096 8.75347 19.8337 8.4801 19.6569C8.43964 19.6308 8.43964 19.6308 8.39836 19.6041C8.25088 19.5086 8.10427 19.4119 7.95858 19.3136C7.69435 19.1354 7.42546 18.9655 7.15475 18.7973C6.89073 18.6332 6.62853 18.4677 6.37103 18.2935C6.15041 18.1449 5.9262 18.002 5.70196 17.8589C5.32352 17.6174 4.94655 17.3738 4.57042 17.1287C4.43493 17.0405 4.29919 16.9527 4.16344 16.8649C4.12505 16.8401 4.12505 16.8401 4.08589 16.8147C4.03468 16.7816 3.98347 16.7485 3.93226 16.7154C3.77501 16.6137 3.61781 16.512 3.46061 16.4102C3.33352 16.328 3.2064 16.2458 3.0792 16.1637C2.83741 16.0076 2.59596 15.8509 2.35513 15.6933C2.33406 15.6795 2.313 15.6658 2.2913 15.6516C2.18665 15.5831 2.08204 15.5145 1.97746 15.446C1.79517 15.3266 1.61261 15.2077 1.42859 15.091C1.21537 14.9558 1.00394 14.8179 0.792737 14.6796C0.729003 14.6378 0.665244 14.5961 0.601481 14.5544C0.487327 14.4797 0.373179 14.405 0.259209 14.33C0.220815 14.3118 0.182422 14.2935 0.142865 14.2747C0.026657 14.1729 0.0207707 14.1617 0.010023 14.0175C0.00937811 13.9487 0.00996994 13.8798 0.0115198 13.811C0.0114711 13.7545 0.0114711 13.7545 0.0114214 13.697C0.0115764 13.5726 0.0133069 13.4482 0.0150497 13.3239C0.0154646 13.2376 0.0157812 13.1514 0.0160034 13.0652C0.0168528 12.8382 0.0190381 12.6112 0.0214985 12.3843C0.0237738 12.1527 0.0247899 11.9211 0.0259109 11.6895C0.0282966 11.235 0.0320932 10.7806 0.036772 10.3262Z" fill="#B1B4B8"/>
<path opacity="0.4" d="M28.8785 10.3262C28.8309 10.3498 28.7833 10.3734 28.7357 10.3971C28.696 10.4169 28.696 10.4169 28.6554 10.437C28.5745 10.4782 28.4975 10.5231 28.421 10.5719C28.3934 10.5894 28.3659 10.6069 28.3375 10.6249C28.2945 10.6525 28.2945 10.6525 28.2506 10.6807C28.2198 10.7003 28.189 10.7198 28.1573 10.74C27.9367 10.8807 27.7172 11.0232 27.4978 11.1658C27.2336 11.3371 26.9664 11.5033 26.6992 11.6697C26.4485 11.826 26.1987 11.9838 25.9497 12.1427C25.6267 12.3489 25.3021 12.5527 24.977 12.7555C24.7471 12.899 24.5175 13.0429 24.2884 13.1877C24.26 13.2057 24.2316 13.2236 24.2023 13.2421C24.0888 13.314 23.9753 13.3858 23.8618 13.4577C23.5269 13.6699 23.1914 13.8808 22.8542 14.0891C22.389 14.3763 21.9271 14.6686 21.4662 14.9625C21.0348 15.2375 20.6016 15.5093 20.1676 15.7799C19.9817 15.8958 19.796 16.012 19.6103 16.1281C19.5361 16.1744 19.462 16.2207 19.3878 16.2671C19.2396 16.3598 19.0913 16.4525 18.943 16.5451C18.8879 16.5795 18.8879 16.5795 18.8317 16.6147C18.7576 16.661 18.6836 16.7073 18.6095 16.7536C18.4233 16.87 18.237 16.9863 18.0506 17.1025C17.6586 17.347 17.2676 17.593 16.8782 17.8416C16.6221 18.0049 16.3647 18.1662 16.1069 18.3269C15.4868 18.7137 15.4868 18.7137 15.2993 18.8414C15.2032 18.9042 15.1072 18.9527 15.0021 18.9986C14.7941 19.0972 14.582 19.2016 14.4961 19.4273C14.4413 19.7072 14.4591 19.9915 14.4698 20.2749C14.4709 20.3665 14.4718 20.4582 14.4725 20.5499C14.4749 20.7902 14.481 21.0303 14.488 21.2705C14.4945 21.516 14.4974 21.7615 14.5005 22.0071C14.5073 22.4881 14.5179 22.969 14.5313 23.4499C14.6735 23.3811 14.8023 23.2967 14.933 23.2084C14.9841 23.1741 15.0352 23.1399 15.0863 23.1056C15.1263 23.0787 15.1263 23.0787 15.1671 23.0513C15.653 22.7246 16.142 22.404 16.6376 22.0922C16.9126 21.919 17.1854 21.7428 17.4553 21.5618C17.4945 21.5355 17.5338 21.5092 17.5743 21.4821C17.6523 21.4297 17.7302 21.3772 17.8081 21.3246C17.9686 21.2168 18.1278 21.1116 18.2981 21.0199C18.4519 20.9371 18.5913 20.8395 18.7333 20.7381C18.9091 20.6155 19.092 20.5041 19.2743 20.3914C19.3496 20.3447 19.4248 20.298 19.5001 20.2513C19.5369 20.2284 19.5737 20.2055 19.6116 20.182C19.8878 20.0096 20.1618 19.8337 20.4352 19.6569C20.4756 19.6308 20.4756 19.6308 20.5169 19.6041C20.6644 19.5086 20.811 19.4119 20.9567 19.3136C21.2209 19.1354 21.4898 18.9655 21.7605 18.7973C22.0245 18.6332 22.2867 18.4677 22.5442 18.2935C22.7648 18.1449 22.989 18.002 23.2133 17.8589C23.5917 17.6174 23.9687 17.3738 24.3448 17.1287C24.4803 17.0405 24.6161 16.9527 24.7518 16.8649C24.7902 16.8401 24.7902 16.8401 24.8294 16.8147C24.8806 16.7816 24.9318 16.7485 24.983 16.7154C25.1402 16.6137 25.2974 16.512 25.4546 16.4102C25.5817 16.328 25.7089 16.2458 25.836 16.1637C26.0778 16.0076 26.3193 15.8509 26.5601 15.6933C26.5812 15.6795 26.6023 15.6658 26.624 15.6516C26.7286 15.5831 26.8332 15.5145 26.9378 15.446C27.1201 15.3266 27.3026 15.2077 27.4867 15.091C27.6999 14.9558 27.9113 14.8179 28.1225 14.6796C28.1863 14.6378 28.25 14.5961 28.3138 14.5544C28.4279 14.4797 28.5421 14.405 28.656 14.33C28.6944 14.3118 28.7328 14.2935 28.7724 14.2747C28.8886 14.1729 28.8945 14.1617 28.9052 14.0175C28.9059 13.9487 28.9053 13.8798 28.9037 13.811C28.9038 13.7545 28.9038 13.7545 28.9038 13.697C28.9037 13.5726 28.9019 13.4482 28.9002 13.3239C28.8998 13.2376 28.8995 13.1514 28.8992 13.0652C28.8984 12.8382 28.8962 12.6112 28.8938 12.3843C28.8915 12.1527 28.8905 11.9211 28.8893 11.6895C28.887 11.235 28.8832 10.7806 28.8785 10.3262Z" fill="#B1B4B8"/>
<path d="M5.59823 3.5791C5.61047 3.5791 5.6227 3.5791 5.63531 3.5791C5.6541 3.63772 5.67257 3.69644 5.69091 3.7552C5.70124 3.78789 5.71156 3.82057 5.72219 3.85425C5.74652 3.94983 5.74652 3.94983 5.74652 4.09812C5.77099 4.09812 5.79546 4.09812 5.82067 4.09812C5.84555 4.15211 5.87023 4.20619 5.89481 4.26031C5.90858 4.29042 5.92234 4.32053 5.93652 4.35155C5.96896 4.43178 5.96896 4.43178 5.96896 4.50592C6.00566 4.51816 6.04236 4.53039 6.08018 4.54299C6.13117 4.61608 6.18035 4.69043 6.22847 4.76543C6.35633 4.93031 6.48981 5.06008 6.65481 5.18713C6.68898 5.21366 6.68898 5.21366 6.72385 5.24072C6.92314 5.39287 7.13153 5.52544 7.34768 5.65252C7.47595 5.72845 7.60281 5.80671 7.72992 5.88457C7.75781 5.9016 7.7857 5.91863 7.81444 5.93618C8.28724 6.22503 8.75792 6.51735 9.22752 6.81138C9.64306 7.07137 10.06 7.32918 10.4779 7.58528C10.6737 7.7055 10.8678 7.82832 11.0618 7.95137C11.292 8.09726 11.5234 8.24041 11.7577 8.37963C11.9977 8.52263 12.2349 8.67019 12.4722 8.8178C12.6607 8.93496 12.8502 9.05035 13.0407 9.16425C13.1446 9.22649 13.2479 9.28967 13.3511 9.35319C13.3912 9.3779 13.4314 9.4026 13.4727 9.42806C13.5704 9.48846 13.6676 9.54951 13.7647 9.61082C13.8048 9.6361 13.8048 9.6361 13.8458 9.6619C13.8982 9.69498 13.9506 9.72817 14.0029 9.76146C14.1046 9.82555 14.1959 9.88039 14.3103 9.91855C14.3103 11.668 14.3103 13.4175 14.3103 15.22C14.1382 15.1855 14.086 15.1659 13.9535 15.067C13.7123 14.8922 13.4614 14.7351 13.2083 14.5781C12.9676 14.4287 12.7285 14.278 12.4938 14.1194C11.9439 13.7487 11.3742 13.4074 10.8102 13.0588C10.5093 12.8727 10.2102 12.6839 9.91138 12.4945C9.76513 12.4019 9.61873 12.3095 9.47234 12.2171C9.41364 12.18 9.35494 12.1429 9.29624 12.1058C9.25266 12.0783 9.25266 12.0783 9.2082 12.0502C9.07612 11.9668 9.07612 11.9668 8.94405 11.8834C8.91497 11.865 8.88589 11.8467 8.85593 11.8278C8.79747 11.7908 8.73902 11.7539 8.68056 11.717C8.53013 11.622 8.3797 11.527 8.22924 11.432C7.66286 11.0745 7.66286 11.0745 7.41509 10.916C7.32172 10.8569 7.22803 10.7983 7.13415 10.7399C6.49523 10.3418 6.49523 10.3418 6.26554 10.141C6.2325 10.1137 6.2325 10.1137 6.19878 10.086C5.88598 9.80575 5.62424 9.3339 5.58823 8.9115C5.58458 8.77114 5.58445 8.63103 5.58561 8.49066C5.58564 8.43692 5.58562 8.38318 5.58556 8.32944C5.58553 8.18446 5.58618 8.03949 5.58696 7.89452C5.58765 7.74267 5.58772 7.59083 5.58785 7.43898C5.58819 7.15184 5.5891 6.86471 5.59022 6.57757C5.59147 6.2505 5.59208 5.92344 5.59264 5.59637C5.5938 4.92394 5.59575 4.25152 5.59823 3.5791Z" fill="#AE2524"/>
<path d="M23.0219 3.83838C23.0341 3.83838 23.0463 3.83838 23.059 3.83838C23.0633 4.50258 23.0666 5.16677 23.0686 5.83098C23.0695 6.13942 23.0708 6.44785 23.0729 6.75629C23.0748 7.02528 23.076 7.29428 23.0764 7.56328C23.0766 7.70557 23.0772 7.84784 23.0786 7.99012C23.0798 8.12438 23.0802 8.25862 23.0799 8.39288C23.08 8.46496 23.081 8.53705 23.082 8.60912C23.0786 9.20019 22.7963 9.64455 22.3867 10.0501C22.1843 10.2431 21.9606 10.3995 21.7243 10.5486C21.7012 10.5632 21.6781 10.5778 21.6542 10.5928C21.5551 10.6551 21.4558 10.7171 21.3563 10.7786C21.19 10.8816 21.0267 10.9881 20.8647 11.0977C20.608 11.271 20.3453 11.4338 20.0815 11.5961C19.8582 11.7335 19.6369 11.8734 19.4167 12.0158C19.2412 12.1293 19.0647 12.2414 18.8883 12.3535C18.8535 12.3757 18.8187 12.3978 18.7828 12.4206C18.7115 12.466 18.6401 12.5114 18.5687 12.5568C18.3971 12.6658 18.2256 12.775 18.0541 12.8841C18.0038 12.9162 18.0038 12.9162 17.9525 12.9488C17.7811 13.0578 17.6098 13.1669 17.4385 13.276C17.0903 13.4978 16.7417 13.7192 16.3925 13.9394C16.2034 14.0587 16.0147 14.1786 15.8263 14.2989C15.5133 14.4986 15.1997 14.697 14.8844 14.893C14.8523 14.9131 14.8202 14.9331 14.7871 14.9538C14.7418 14.9818 14.7418 14.9818 14.6956 15.0105C14.6562 15.0349 14.6562 15.0349 14.616 15.0599C14.5161 15.1179 14.4132 15.1684 14.3098 15.2197C14.2907 14.5665 14.2763 13.9134 14.2675 13.26C14.2633 12.9565 14.2576 12.6532 14.2482 12.3499C14.2401 12.0853 14.2348 11.8207 14.233 11.556C14.232 11.4159 14.2295 11.2762 14.2235 11.1362C14.1887 10.2895 14.1887 10.2895 14.3882 10.0444C14.5797 9.87885 14.7919 9.76911 15.0227 9.66849C15.1793 9.59719 15.3213 9.50565 15.466 9.4132C15.5204 9.37996 15.5749 9.34683 15.6295 9.31386C15.8272 9.19331 16.0227 9.0694 16.2183 8.94541C16.4565 8.79442 16.6957 8.64489 16.935 8.49565C17.3591 8.23095 17.7812 7.96322 18.2024 7.69395C18.239 7.67059 18.2755 7.64722 18.3132 7.62315C18.5065 7.49955 18.6997 7.37587 18.8929 7.25212C19.0512 7.15074 19.2095 7.04948 19.3679 6.94829C19.788 6.67987 20.2072 6.41025 20.6249 6.13805C20.7665 6.04576 20.9084 5.95393 21.0505 5.86229C21.1534 5.79584 21.2561 5.72911 21.3589 5.66239C21.422 5.62159 21.4854 5.58126 21.5488 5.54098C22.2211 5.10718 22.7144 4.58709 23.0219 3.83838Z" fill="#F34938"/>
<path d="M22.8744 2.5415C22.9485 2.57858 22.9485 2.57858 22.9788 2.64736C22.9925 2.69016 22.9925 2.69016 23.0064 2.73382C23.0157 2.76187 23.0249 2.78992 23.0344 2.81883C23.0851 3.0059 23.1014 3.1847 23.1013 3.37816C23.1013 3.45068 23.1013 3.45068 23.1014 3.52466C23.1013 3.57778 23.1011 3.63089 23.101 3.68401C23.101 3.74029 23.101 3.79657 23.101 3.85285C23.101 4.00526 23.1008 4.15767 23.1006 4.31008C23.1003 4.4695 23.1003 4.62891 23.1003 4.78833C23.1001 5.09005 23.0998 5.39176 23.0995 5.69347C23.0991 6.03703 23.0989 6.38059 23.0987 6.72415C23.0983 7.43073 23.0976 8.1373 23.0968 8.84388C23.0846 8.84388 23.0723 8.84388 23.0597 8.84388C23.0475 7.22899 23.0353 5.6141 23.0227 3.95027C22.9493 4.09708 22.8758 4.24389 22.8002 4.39514C22.7038 4.52419 22.6087 4.64483 22.5036 4.76587C22.4812 4.79364 22.4588 4.8214 22.4357 4.85001C22.1001 5.25341 21.6543 5.52091 21.2136 5.7945C21.0098 5.92124 20.809 6.05232 20.6083 6.18391C20.1936 6.45529 19.7765 6.72268 19.3588 6.98932C19.2017 7.08964 19.0447 7.19017 18.8878 7.2907C18.2487 7.70003 17.6087 8.10788 16.9668 8.51269C16.8502 8.58618 16.7338 8.65986 16.6175 8.73367C16.3318 8.91481 16.0454 9.09446 15.7564 9.27022C15.5196 9.41425 15.2841 9.56023 15.0497 9.70814C15.0215 9.72592 14.9932 9.74369 14.9642 9.76201C14.7914 9.87133 14.6215 9.98393 14.4533 10.1002C14.3847 10.1414 14.3847 10.1414 14.3105 10.1414C14.3145 10.0593 14.3145 10.0593 14.3476 9.95606C14.4252 9.89073 14.4961 9.83969 14.5816 9.78692C14.6062 9.77114 14.6309 9.75536 14.6562 9.7391C14.917 9.57336 15.183 9.41586 15.4487 9.25805C15.7493 9.07898 16.046 8.89337 16.343 8.70832C16.4 8.67316 16.4573 8.63845 16.5147 8.60408C16.61 8.54673 16.7039 8.48765 16.7976 8.42782C16.8512 8.39362 16.8512 8.39362 16.9059 8.35873C16.9425 8.33532 16.9791 8.31191 17.0169 8.28779C17.0688 8.25461 17.0688 8.25461 17.1217 8.22076C17.2305 8.15123 17.3392 8.08165 17.4478 8.01206C17.5293 7.95992 17.6107 7.90779 17.6921 7.85566C17.7128 7.84242 17.7335 7.82919 17.7548 7.81555C17.9004 7.72231 18.0461 7.6291 18.1918 7.5359C18.272 7.48454 18.3523 7.43318 18.4326 7.38182C18.4717 7.35682 18.5107 7.33182 18.551 7.30606C18.7488 7.17945 18.9465 7.05263 19.1439 6.92536C19.3112 6.81762 19.4792 6.71124 19.6477 6.60536C19.9137 6.43806 20.1777 6.26848 20.4383 6.09284C20.6264 5.96667 20.8174 5.84559 21.0091 5.72513C21.1243 5.65259 21.2393 5.57997 21.3544 5.50733C21.377 5.49308 21.3997 5.47883 21.423 5.46415C21.6966 5.2911 21.9362 5.10085 22.17 4.87709C22.1986 4.85124 22.2272 4.82538 22.2567 4.79874C22.6661 4.41594 22.9836 3.87751 23.0034 3.30755C23.0051 3.129 23.0027 2.97516 22.9288 2.8113C22.8744 2.6898 22.8744 2.6898 22.8744 2.5415Z" fill="#F89883"/>
<path d="M22.874 2.5415C22.9482 2.57858 22.9482 2.57858 22.9784 2.64736C22.9876 2.67589 22.9967 2.70442 23.0061 2.73382C23.0153 2.76187 23.0246 2.78992 23.0341 2.81883C23.0848 3.0059 23.1011 3.1847 23.1009 3.37816C23.101 3.42651 23.101 3.47485 23.1011 3.52466C23.101 3.57778 23.1008 3.63089 23.1007 3.68401C23.1007 3.74029 23.1007 3.79657 23.1007 3.85285C23.1007 4.00526 23.1005 4.15767 23.1002 4.31008C23.1 4.4695 23.1 4.62891 23.0999 4.78833C23.0998 5.09005 23.0995 5.39176 23.0991 5.69347C23.0987 6.03703 23.0985 6.38059 23.0983 6.72415C23.098 7.43073 23.0973 8.1373 23.0965 8.84388C23.0842 8.84388 23.072 8.84388 23.0594 8.84388C23.0472 7.22899 23.0349 5.6141 23.0223 3.95027C22.9489 4.09708 22.8755 4.24389 22.7999 4.39514C22.7035 4.52419 22.6083 4.64483 22.5033 4.76587C22.4697 4.80752 22.4697 4.80752 22.4354 4.85001C22.134 5.21234 21.7428 5.46427 21.3494 5.71586C21.3033 5.74553 21.3033 5.74553 21.2562 5.77579C21.2272 5.79396 21.1982 5.81213 21.1684 5.83085C21.1296 5.85526 21.1296 5.85526 21.09 5.88017C21.0204 5.91513 21.0204 5.91513 20.9092 5.91513C20.9166 5.84851 20.9166 5.84851 20.9463 5.76684C21.0234 5.70601 21.0234 5.70601 21.1247 5.64635C21.1616 5.62389 21.1985 5.60143 21.2365 5.57829C21.2753 5.55487 21.3141 5.53145 21.3541 5.50733C21.6517 5.32035 21.9157 5.12013 22.1697 4.87709C22.1983 4.85124 22.2269 4.82538 22.2564 4.79874C22.6658 4.41594 22.9833 3.87751 23.0031 3.30755C23.0047 3.129 23.0024 2.97516 22.9285 2.8113C22.874 2.6898 22.874 2.6898 22.874 2.5415Z" fill="#EF9E8B"/>
<path d="M5.59809 3.5791C5.61033 3.5791 5.62256 3.5791 5.63517 3.5791C5.76661 3.97501 5.76661 3.97501 5.74638 4.17227C5.73415 4.1845 5.72192 4.19673 5.70931 4.20934C5.70471 4.27922 5.70271 4.34926 5.7017 4.41929C5.70096 4.46476 5.70022 4.51023 5.69946 4.55708C5.69883 4.6078 5.6982 4.65852 5.69758 4.70924C5.69681 4.76208 5.69603 4.81491 5.69524 4.86775C5.69316 5.01087 5.69133 5.15399 5.68957 5.29712C5.68846 5.38605 5.68728 5.47499 5.68608 5.56393C5.67022 6.74362 5.66792 7.92316 5.67224 9.10295C5.59809 9.0288 5.59809 9.0288 5.58897 8.93457C5.58904 8.89445 5.58911 8.85433 5.58918 8.81299C5.58907 8.76704 5.58897 8.72108 5.58887 8.67373C5.58913 8.62253 5.5894 8.57132 5.58967 8.52012C5.5897 8.46642 5.58968 8.41272 5.58964 8.35901C5.58962 8.21295 5.59006 8.06689 5.59057 7.92083C5.59104 7.76829 5.59108 7.61575 5.59117 7.46321C5.5914 7.17422 5.59201 6.88524 5.59275 6.59626C5.59358 6.26732 5.59399 5.93837 5.59436 5.60943C5.59514 4.93265 5.59644 4.25588 5.59809 3.5791Z" fill="#972A2A"/>
<path d="M16.4237 8.65771C16.442 8.69442 16.442 8.69442 16.4608 8.73186C16.4363 8.73186 16.4118 8.73186 16.3866 8.73186C16.3866 8.75633 16.3866 8.7808 16.3866 8.80601C16.3622 8.83047 16.3377 8.85494 16.3125 8.88015C16.2914 8.90314 16.2703 8.92612 16.2486 8.94981C16.1496 9.04207 16.0421 9.10735 15.9255 9.17442C15.8759 9.20362 15.8263 9.23287 15.7767 9.26218C15.7498 9.27803 15.7229 9.29388 15.6952 9.31022C15.533 9.40682 15.3724 9.50608 15.2119 9.60539C15.1786 9.62594 15.1453 9.6465 15.1111 9.66768C14.891 9.80428 14.6747 9.945 14.4619 10.0927C14.3847 10.1406 14.3847 10.1406 14.3105 10.1406C14.3145 10.0585 14.3145 10.0585 14.3476 9.95526C14.4252 9.88993 14.4961 9.83889 14.5816 9.78612C14.6185 9.76245 14.6185 9.76245 14.6562 9.7383C14.9168 9.57271 15.1825 9.41535 15.4479 9.25769C15.776 9.06229 16.0996 8.85957 16.4237 8.65771Z" fill="#F9907B"/>
<path d="M23.0219 3.83838C23.0341 3.83838 23.0464 3.83838 23.059 3.83838C23.0624 4.50386 23.065 5.16933 23.0666 5.83482C23.0674 6.14384 23.0684 6.45286 23.0701 6.76188C23.0716 7.03134 23.0726 7.30079 23.0729 7.57026C23.0731 7.71283 23.0736 7.85539 23.0746 7.99796C23.0756 8.1324 23.076 8.26682 23.0757 8.40127C23.0758 8.47363 23.0766 8.54599 23.0774 8.61835C23.0761 8.89702 23.0369 9.11259 22.9107 9.36223C22.8984 9.36223 22.8862 9.36223 22.8736 9.36223C22.869 9.25564 22.869 9.25564 22.8736 9.13979C22.9103 9.10309 22.9103 9.10309 22.9477 9.06564C22.9878 8.94947 22.9894 8.84015 22.9893 8.71796C22.9893 8.67752 22.9894 8.63707 22.9894 8.5954C22.9893 8.55122 22.9892 8.50703 22.989 8.46151C22.989 8.41484 22.989 8.36817 22.989 8.32009C22.989 8.19227 22.9888 8.06444 22.9886 7.93661C22.9883 7.80297 22.9883 7.66933 22.9883 7.53569C22.9882 7.28269 22.9879 7.02968 22.9875 6.77668C22.9871 6.48862 22.9869 6.20055 22.9867 5.91249C22.9863 5.31998 22.9856 4.72747 22.9848 4.13496C22.9726 4.17166 22.9603 4.20837 22.9477 4.24618C22.9233 4.24618 22.8988 4.24618 22.8736 4.24618C22.8843 4.22018 22.895 4.19419 22.906 4.1674C22.9485 4.05879 22.9858 3.94926 23.0219 3.83838Z" fill="#E14F40"/>
<path d="M5.63477 3.76416C5.72283 3.85223 5.72257 3.88661 5.7344 4.00745C5.7376 4.03732 5.7408 4.06719 5.7441 4.09796C5.74503 4.13459 5.74503 4.13459 5.74598 4.17196C5.73375 4.18419 5.72152 4.19643 5.70891 4.20903C5.70431 4.28975 5.70231 4.37062 5.7013 4.45146C5.70093 4.47678 5.70057 4.5021 5.70019 4.52818C5.69901 4.61223 5.6981 4.69628 5.69718 4.78033C5.69642 4.83846 5.69564 4.89659 5.69485 4.95472C5.6928 5.108 5.69097 5.26128 5.68918 5.41457C5.68732 5.57087 5.68526 5.72717 5.68321 5.88346C5.67921 6.19035 5.67545 6.49724 5.67184 6.80413C5.6596 6.80413 5.64737 6.80413 5.63477 6.80413C5.63477 5.80094 5.63477 4.79775 5.63477 3.76416Z" fill="#950F11"/>
<path d="M22.7251 4.32031C22.7373 4.35701 22.7495 4.39372 22.7621 4.43153C22.6469 4.6227 22.4865 4.80479 22.3173 4.95055C22.2806 4.95055 22.2439 4.95055 22.2061 4.95055C22.2274 4.822 22.2695 4.76346 22.3636 4.67482C22.3868 4.6526 22.4101 4.63038 22.434 4.60748C22.468 4.57544 22.468 4.57544 22.5026 4.54275C22.5383 4.50736 22.5738 4.47185 22.6092 4.43616C22.6478 4.39755 22.6865 4.35893 22.7251 4.32031Z" fill="#F6AA93"/>
<path d="M20.8718 0.872559C21.2343 0.927238 21.5696 1.15438 21.8635 1.36377C21.8967 1.38735 21.8967 1.38735 21.9305 1.41141C22.0319 1.48576 22.0989 1.54535 22.1694 1.65109C22.0688 1.60285 21.9766 1.54977 21.8844 1.48701C21.6065 1.30076 21.3455 1.13251 21.0284 1.02085C20.946 0.983777 20.946 0.983777 20.8718 0.872559Z" fill="#E27869"/>
<path d="M6.63624 1.42871C6.67295 1.44094 6.70965 1.45318 6.74746 1.46578C6.56395 1.64929 6.38044 1.8328 6.19137 2.02188C6.17914 1.99741 6.1669 1.97294 6.1543 1.94773C6.253 1.73181 6.44123 1.55872 6.63624 1.42871Z" fill="#EA5041"/>
<path d="M22.874 2.5415C22.9481 2.57858 22.9481 2.57858 23.0084 2.71297C23.0875 2.95843 23.0684 3.21368 23.0593 3.46832C23.0471 3.46832 23.0349 3.46832 23.0223 3.46832C23.0209 3.43387 23.0195 3.39941 23.0181 3.36391C23.0047 3.11196 22.9867 2.91518 22.874 2.6898C22.874 2.64086 22.874 2.59192 22.874 2.5415Z" fill="#E28172"/>
<path d="M23.0596 3.13428C23.0718 3.13428 23.084 3.13428 23.0966 3.13428C23.0966 3.31779 23.0966 3.5013 23.0966 3.69037C23.0722 3.69037 23.0477 3.69037 23.0225 3.69037C23.0103 3.72707 22.998 3.76377 22.9854 3.80159C22.9808 3.55135 22.9808 3.55135 23.0225 3.46793C23.0308 3.41096 23.0376 3.35376 23.0434 3.29647C23.0465 3.26617 23.0496 3.23587 23.0528 3.20466C23.055 3.18143 23.0573 3.15821 23.0596 3.13428Z" fill="#EDACA0"/>
<path d="M5.63524 3.76416C5.72412 3.85305 5.72209 3.88771 5.73255 4.00977C5.73532 4.04007 5.7381 4.07036 5.74095 4.10158C5.74277 4.12481 5.74458 4.14803 5.74645 4.17196C5.70975 4.19031 5.70975 4.19031 5.67231 4.20903C5.62551 4.11543 5.63158 4.04918 5.63292 3.94489C5.63325 3.91115 5.63359 3.87741 5.63393 3.84265C5.63436 3.81675 5.63479 3.79085 5.63524 3.76416Z" fill="#A71514"/>
<path d="M22.9848 8.91748C23.0093 8.91748 23.0337 8.91748 23.059 8.91748C23.0423 8.97781 23.0252 9.03803 23.008 9.09821C22.9985 9.13176 22.9891 9.16531 22.9793 9.19987C22.9477 9.28821 22.9477 9.28821 22.8736 9.36235C22.869 9.25577 22.869 9.25577 22.8736 9.13992C22.8981 9.11545 22.9225 9.09098 22.9477 9.06577C22.9716 8.98908 22.9716 8.98908 22.9848 8.91748Z" fill="#E15949"/>
<path d="M22.1689 1.65088C22.4256 1.81628 22.4256 1.81628 22.5026 1.91039C22.5026 1.93486 22.5026 1.95932 22.5026 1.98453C22.4659 1.9723 22.4292 1.96007 22.3914 1.94746C22.3914 1.92299 22.3914 1.89853 22.3914 1.87332C22.3684 1.86414 22.3455 1.85496 22.3219 1.84551C22.2301 1.79152 22.2078 1.74808 22.1689 1.65088Z" fill="#E47E6D"/>
<path d="M22.9481 3.68994C23.0433 3.83268 23.0161 3.89702 22.9852 4.06067C22.973 4.02397 22.9607 3.98727 22.9481 3.94945C22.9237 3.94945 22.8992 3.94945 22.874 3.94945C22.8984 3.86381 22.9229 3.77817 22.9481 3.68994Z" fill="#F5998A"/>
<path d="M15.1256 1.7251C15.0885 1.83632 15.0885 1.83632 14.9773 1.91046C14.8962 1.89656 14.8962 1.89656 14.829 1.87339C15.0422 1.7251 15.0422 1.7251 15.1256 1.7251Z" fill="#E26C5A"/>
</g>
<defs>
<linearGradient id="paint0_linear_24_248" x1="14.4771" y1="0.649902" x2="14.4771" y2="19.3346" gradientUnits="userSpaceOnUse">
<stop stop-color="#E0E1E3"/>
<stop offset="1" stop-color="#7B7C7D"/>
</linearGradient>
<linearGradient id="paint1_linear_24_248" x1="14.4771" y1="0.649902" x2="14.4771" y2="19.3346" gradientUnits="userSpaceOnUse">
<stop stop-color="#E0E1E3"/>
<stop offset="1" stop-color="#7B7C7D"/>
</linearGradient>
<clipPath id="clip0_24_248">
<rect width="28.9168" height="23.0963" fill="white" transform="translate(0 0.353516)"/>
</clipPath>
</defs>
</svg>
