<svg width="22" height="22" viewBox="0 0 22 22" fill="none" xmlns="http://www.w3.org/2000/svg">
<path d="M2.44444 0H19.5556C20.2039 0 20.8256 0.257539 21.284 0.715961C21.7425 1.17438 22 1.79614 22 2.44444V19.5556C22 20.2039 21.7425 20.8256 21.284 21.284C20.8256 21.7425 20.2039 22 19.5556 22H2.44444C1.79614 22 1.17438 21.7425 0.715961 21.284C0.257539 20.8256 0 20.2039 0 19.5556V2.44444C0 1.79614 0.257539 1.17438 0.715961 0.715961C1.17438 0.257539 1.79614 0 2.44444 0ZM18.3333 2.44444H15.2778C14.1432 2.44444 13.0552 2.89514 12.2529 3.69738C11.4507 4.49962 11 5.58769 11 6.72222V9.77778H8.55556V13.4444H11V22H14.6667V13.4444H18.3333V9.77778H14.6667V7.33333C14.6667 7.00918 14.7954 6.6983 15.0246 6.46909C15.2539 6.23988 15.5647 6.11111 15.8889 6.11111H18.3333V2.44444Z" fill="black"/>
</svg>
