<svg width="265" height="210" viewBox="0 0 265 210" fill="none" xmlns="http://www.w3.org/2000/svg">
<g clip-path="url(#clip0_52_8793)">
<path opacity="0.3" d="M157.002 3.50781L0.605469 108.376L157.002 206.4L313.8 108.577L157.002 3.50781Z" fill="url(#paint0_linear_52_8793)"/>
<path opacity="0.3" d="M157.002 3.50781L0.605469 108.577H67.8337H313.8L157.002 3.50781Z" fill="url(#paint1_linear_52_8793)"/>
<path d="M241.872 14.7976C246.838 19.343 250.369 25.0856 250.911 31.8978C250.957 33.4813 250.967 35.0623 250.961 36.6462C250.964 37.2498 250.966 37.8535 250.97 38.4571C250.977 40.0824 250.976 41.7075 250.974 43.3328C250.973 44.6952 250.975 46.0577 250.978 47.4202C250.983 50.6367 250.983 53.8531 250.978 57.0696C250.974 60.3763 250.979 63.6828 250.99 66.9894C250.999 69.8401 251.002 72.6909 250.999 75.5416C250.998 77.2391 250.999 78.9366 251.006 80.634C251.012 82.2308 251.01 83.8273 251.003 85.424C251.001 86.0062 251.003 86.5884 251.007 87.1706C251.052 93.8411 249.125 99.0711 244.565 103.933C241.508 107.028 238.429 109.571 234.696 111.801C233.653 112.443 232.615 113.09 231.576 113.739C231.301 113.91 231.026 114.081 230.743 114.257C228.9 115.408 227.087 116.598 225.286 117.815C222.78 119.506 220.218 121.092 217.632 122.659C215.36 124.037 213.119 125.456 210.888 126.901C208.968 128.143 207.038 129.369 205.108 130.596C204.73 130.836 204.352 131.076 203.963 131.324C203.188 131.817 202.412 132.31 201.637 132.803C199.774 133.987 197.912 135.173 196.05 136.358C195.686 136.59 195.322 136.821 194.946 137.06C193.086 138.244 191.225 139.428 189.365 140.613C185.583 143.021 181.799 145.425 178.006 147.816C175.953 149.112 173.905 150.415 171.858 151.721C167.467 154.523 163.065 157.307 158.613 160.011C157.965 160.413 157.336 160.846 156.713 161.287C155.434 161.888 154.718 161.714 153.378 161.317C152.417 160.76 152.417 160.76 151.491 160.059C148.886 158.151 146.167 156.451 143.424 154.75C140.811 153.127 138.214 151.491 135.665 149.768C129.694 145.743 123.508 142.037 117.384 138.252C114.117 136.231 110.869 134.181 107.624 132.124C106.036 131.119 104.446 130.115 102.856 129.112C102.219 128.709 101.582 128.307 100.944 127.904C100.471 127.605 100.471 127.605 99.988 127.3C99.0319 126.696 98.0759 126.092 97.1198 125.489C96.804 125.289 96.4882 125.09 96.1629 124.884C95.5281 124.483 94.8933 124.082 94.2586 123.681C92.6251 122.65 90.9916 121.618 89.3578 120.587C83.2076 116.705 83.2076 116.705 80.5171 114.984C79.5033 114.342 78.4859 113.706 77.4665 113.072C70.5287 108.748 70.5287 108.748 68.0345 106.568C67.7953 106.371 67.5561 106.174 67.3096 105.971C63.873 102.892 61.0613 97.7554 60.674 93.1241C60.6257 91.4513 60.6157 89.7822 60.6193 88.1088C60.6164 87.467 60.6129 86.8251 60.609 86.1833C60.6001 84.4482 60.5989 82.7131 60.5996 80.9779C60.5997 79.5246 60.5962 78.0712 60.5929 76.6178C60.5851 73.1853 60.584 69.7529 60.5867 66.3204C60.5894 62.7918 60.5802 59.2633 60.5652 55.7346C60.5528 52.6948 60.5483 49.6551 60.5499 46.6153C60.5507 44.8043 60.5485 42.9935 60.5386 41.1825C60.5296 39.4771 60.5305 37.7719 60.5386 36.0665C60.54 35.445 60.538 34.8235 60.5322 34.2021C60.4617 26.1001 63.6144 20.1075 69.2422 14.3809C69.4799 14.1381 69.7175 13.8952 69.9624 13.645C80.0469 4.13804 94.2093 1.43669 107.558 1.35792C108.373 1.35131 109.189 1.34039 110.005 1.3249C121.986 1.09954 131.15 4.57894 140.967 11.2058C143.12 12.6413 145.308 14.0229 147.491 15.4125C148.333 15.9495 149.174 16.4867 150.016 17.0243C150.395 17.2646 150.774 17.505 151.165 17.7526C151.983 18.285 152.762 18.8419 153.545 19.424C154.532 20.1015 154.532 20.1015 155.594 20.0089C156.847 19.5167 157.868 18.8792 158.989 18.1298C159.489 17.7997 159.989 17.47 160.489 17.1407C160.765 16.9582 161.04 16.7757 161.324 16.5877C163.446 15.1972 165.596 13.8511 167.739 12.4944C169.499 11.3778 171.252 10.255 172.983 9.09411C193.244 -4.46918 223.738 -1.13889 241.872 14.7976Z" fill="#F55B47"/>
<path d="M0.404584 108.579C0.921544 108.835 1.43827 109.092 1.95489 109.349C2.38656 109.563 2.38656 109.563 2.82694 109.782C3.70513 110.23 4.54121 110.717 5.37216 111.247C5.67142 111.437 5.97068 111.627 6.27901 111.822C6.74629 112.122 6.74629 112.122 7.22301 112.428C7.55711 112.641 7.8912 112.853 8.23542 113.072C10.6317 114.6 13.0151 116.147 15.3973 117.696C18.2658 119.556 21.1676 121.361 24.0689 123.168C26.7913 124.865 29.5032 126.578 32.2071 128.304C35.7151 130.543 39.2391 132.755 42.77 134.958C45.2667 136.516 47.7597 138.079 50.2471 139.652C50.5555 139.846 50.8639 140.041 51.1816 140.242C52.4147 141.022 53.6475 141.803 54.8799 142.583C58.5156 144.887 62.159 147.177 65.8213 149.439C70.872 152.558 75.8875 155.732 80.8929 158.924C85.5766 161.909 90.2808 164.861 94.9942 167.799C97.0123 169.058 99.0289 170.319 101.046 171.58C101.851 172.083 102.656 172.586 103.461 173.09C105.071 174.096 106.682 175.102 108.292 176.109C108.89 176.482 108.89 176.482 109.5 176.864C110.304 177.366 111.109 177.869 111.913 178.372C113.935 179.636 115.958 180.9 117.982 182.161C122.238 184.816 126.484 187.487 130.712 190.186C133.494 191.96 136.289 193.712 139.088 195.457C145.822 199.657 145.822 199.657 147.858 201.043C148.9 201.725 149.944 202.252 151.085 202.75C153.344 203.821 155.646 204.954 156.579 207.406C157.174 210.445 156.981 213.532 156.865 216.609C156.852 217.604 156.843 218.6 156.836 219.595C156.81 222.205 156.743 224.812 156.667 227.42C156.597 230.086 156.565 232.752 156.531 235.419C156.458 240.642 156.343 245.864 156.197 251.086C154.653 250.339 153.254 249.422 151.835 248.463C151.28 248.091 150.725 247.719 150.171 247.347C149.736 247.055 149.736 247.055 149.293 246.757C144.016 243.21 138.707 239.729 133.325 236.343C130.339 234.463 127.377 232.549 124.446 230.584C124.02 230.298 123.593 230.012 123.154 229.718C122.307 229.149 121.46 228.579 120.615 228.007C118.873 226.837 117.143 225.695 115.294 224.699C113.624 223.8 112.111 222.74 110.569 221.639C108.659 220.308 106.673 219.099 104.694 217.875C103.877 217.368 103.059 216.86 102.242 216.353C101.843 216.104 101.443 215.856 101.031 215.6C98.0323 213.728 95.057 211.819 92.0886 209.899C91.6492 209.615 91.6492 209.615 91.201 209.325C89.5995 208.288 88.0074 207.238 86.4255 206.171C83.5562 204.236 80.6365 202.391 77.6969 200.565C74.83 198.783 71.9828 196.985 69.1867 195.094C66.791 193.48 64.3564 191.928 61.9214 190.375C57.812 187.752 53.7186 185.107 49.6344 182.445C48.163 181.488 46.6891 180.534 45.215 179.581C44.7982 179.311 44.7982 179.311 44.3729 179.036C43.8169 178.677 43.2608 178.317 42.7047 177.958C40.9972 176.854 39.2902 175.749 37.5832 174.644C36.2031 173.751 34.8228 172.858 33.4416 171.967C30.816 170.271 28.1942 168.571 25.579 166.859C25.3503 166.71 25.1215 166.56 24.8859 166.406C23.7496 165.662 22.6136 164.918 21.478 164.173C19.4986 162.877 17.5162 161.586 15.518 160.319C13.2027 158.851 10.9069 157.353 8.61341 155.851C7.92134 155.398 7.229 154.945 6.53661 154.492C5.29705 153.681 4.05754 152.87 2.81997 152.056C2.40306 151.857 1.98616 151.659 1.55662 151.454C0.294747 150.349 0.230829 150.228 0.114123 148.662C0.10712 147.915 0.113547 147.167 0.130377 146.419C0.129847 145.806 0.129847 145.806 0.129308 145.181C0.130991 143.83 0.149782 142.48 0.168707 141.13C0.173211 140.193 0.17665 139.257 0.179063 138.321C0.188286 135.856 0.212015 133.392 0.238733 130.927C0.263439 128.412 0.274473 125.897 0.286645 123.382C0.312551 118.448 0.353777 113.513 0.404584 108.579Z" fill="#B1B4B8"/>
<path opacity="0.4" d="M313.584 108.579C313.067 108.835 312.55 109.092 312.033 109.349C311.602 109.563 311.602 109.563 311.161 109.782C310.283 110.23 309.447 110.717 308.616 111.247C308.317 111.437 308.018 111.627 307.709 111.822C307.242 112.122 307.242 112.122 306.765 112.428C306.431 112.641 306.097 112.853 305.753 113.072C303.357 114.6 300.973 116.147 298.591 117.696C295.723 119.556 292.821 121.361 289.919 123.168C287.197 124.865 284.485 126.578 281.781 128.304C278.273 130.543 274.749 132.755 271.218 134.958C268.722 136.516 266.229 138.079 263.741 139.652C263.433 139.846 263.124 140.041 262.807 140.242C261.574 141.022 260.341 141.803 259.108 142.583C255.473 144.887 251.829 147.177 248.167 149.439C243.116 152.558 238.101 155.732 233.095 158.924C228.412 161.909 223.708 164.861 218.994 167.799C216.976 169.058 214.959 170.319 212.943 171.58C212.138 172.083 211.332 172.586 210.527 173.09C208.917 174.096 207.307 175.102 205.697 176.109C205.099 176.482 205.099 176.482 204.489 176.864C203.684 177.366 202.88 177.869 202.075 178.372C200.053 179.636 198.03 180.9 196.007 182.161C191.75 184.816 187.505 187.487 183.276 190.186C180.495 191.96 177.7 193.712 174.9 195.457C168.166 199.657 168.166 199.657 166.131 201.043C165.088 201.725 164.045 202.252 162.903 202.75C160.645 203.821 158.342 204.954 157.409 207.406C156.814 210.445 157.007 213.532 157.123 216.609C157.136 217.604 157.146 218.6 157.152 219.595C157.178 222.205 157.246 224.812 157.321 227.42C157.392 230.086 157.423 232.752 157.457 235.419C157.53 240.642 157.646 245.864 157.791 251.086C159.336 250.339 160.734 249.422 162.154 248.463C162.708 248.091 163.263 247.719 163.818 247.347C164.252 247.055 164.252 247.055 164.695 246.757C169.972 243.21 175.282 239.729 180.663 236.343C183.649 234.463 186.611 232.549 189.542 230.584C189.968 230.298 190.395 230.012 190.834 229.718C191.681 229.149 192.528 228.579 193.373 228.007C195.116 226.837 196.845 225.695 198.694 224.699C200.364 223.8 201.877 222.74 203.42 221.639C205.329 220.308 207.315 219.099 209.294 217.875C210.112 217.368 210.929 216.86 211.746 216.353C212.146 216.104 212.545 215.856 212.957 215.6C215.956 213.728 218.931 211.819 221.9 209.899C222.339 209.615 222.339 209.615 222.787 209.325C224.389 208.288 225.981 207.238 227.563 206.171C230.432 204.236 233.352 202.391 236.291 200.565C239.158 198.783 242.005 196.985 244.802 195.094C247.197 193.48 249.632 191.928 252.067 190.375C256.176 187.752 260.27 185.107 264.354 182.445C265.825 181.488 267.299 180.534 268.773 179.581C269.19 179.311 269.19 179.311 269.615 179.036C270.171 178.677 270.728 178.317 271.284 177.958C272.991 176.854 274.698 175.749 276.405 174.644C277.785 173.751 279.165 172.858 280.547 171.967C283.172 170.271 285.794 168.571 288.409 166.859C288.638 166.71 288.867 166.56 289.102 166.406C290.239 165.662 291.375 164.918 292.51 164.173C294.49 162.877 296.472 161.586 298.47 160.319C300.786 158.851 303.081 157.353 305.375 155.851C306.067 155.398 306.759 154.945 307.452 154.492C308.691 153.681 309.931 152.87 311.168 152.056C311.585 151.857 312.002 151.659 312.432 151.454C313.694 150.349 313.757 150.228 313.874 148.662C313.881 147.915 313.875 147.167 313.858 146.419C313.858 145.806 313.858 145.806 313.859 145.181C313.857 143.83 313.838 142.48 313.82 141.13C313.815 140.193 313.812 139.257 313.809 138.321C313.8 135.856 313.776 133.392 313.75 130.927C313.725 128.412 313.714 125.897 313.702 123.382C313.676 118.448 313.635 113.513 313.584 108.579Z" fill="#B1B4B8"/>
<path d="M60.7867 35.3154C60.9195 35.3154 61.0524 35.3154 61.1893 35.3154C61.3933 35.9519 61.5939 36.5896 61.7931 37.2276C61.9052 37.5826 62.0173 37.9375 62.1328 38.3032C62.3969 39.3411 62.3969 39.3411 62.3969 40.9513C62.6626 40.9513 62.9283 40.9513 63.2021 40.9513C63.4723 41.5376 63.7402 42.1248 64.0072 42.7125C64.1567 43.0395 64.3061 43.3664 64.4601 43.7032C64.8123 44.5744 64.8123 44.5744 64.8123 45.3795C65.2109 45.5124 65.6094 45.6452 66.02 45.7821C66.5737 46.5757 67.1078 47.383 67.6303 48.1975C69.0187 49.9878 70.4681 51.397 72.2598 52.7766C72.6309 53.0647 72.6309 53.0647 73.0095 53.3585C75.1736 55.0107 77.4364 56.4502 79.7835 57.8301C81.1763 58.6546 82.5539 59.5045 83.9341 60.3499C84.237 60.5349 84.5398 60.7198 84.8519 60.9104C89.986 64.0469 95.0969 67.2212 100.196 70.4139C104.708 73.2371 109.236 76.0366 113.774 78.8175C115.9 80.1229 118.008 81.4566 120.115 82.7928C122.614 84.377 125.127 85.9314 127.671 87.4432C130.277 88.9959 132.853 90.5982 135.429 92.2011C137.476 93.4734 139.533 94.7263 141.602 95.9631C142.731 96.639 143.853 97.325 144.973 98.0148C145.409 98.2831 145.845 98.5514 146.294 98.8278C147.354 99.4836 148.41 100.147 149.464 100.812C149.9 101.087 149.9 101.087 150.344 101.367C150.914 101.726 151.483 102.087 152.051 102.448C153.155 103.144 154.146 103.74 155.389 104.154C155.389 123.151 155.389 142.148 155.389 161.721C153.52 161.347 152.953 161.133 151.515 160.06C148.896 158.161 146.17 156.456 143.422 154.751C140.809 153.128 138.213 151.492 135.664 149.769C129.693 145.745 123.507 142.038 117.382 138.254C114.115 136.232 110.867 134.182 107.622 132.126C106.034 131.12 104.444 130.116 102.855 129.113C102.217 128.71 101.58 128.308 100.942 127.905C100.469 127.606 100.469 127.606 99.9864 127.301C98.5522 126.396 98.5522 126.396 97.1181 125.49C96.8023 125.29 96.4866 125.091 96.1612 124.885C95.5264 124.485 94.8917 124.084 94.2569 123.683C92.6235 122.651 90.9899 121.619 89.3562 120.588C83.2059 116.706 83.2059 116.706 80.5155 114.985C79.5016 114.343 78.4842 113.707 77.4648 113.073C70.527 108.75 70.527 108.75 68.0328 106.569C67.674 106.273 67.674 106.273 67.3079 105.972C63.9113 102.929 61.0691 97.8053 60.6781 93.2186C60.6385 91.6945 60.637 90.1731 60.6496 88.6488C60.6499 88.0652 60.6497 87.4817 60.6491 86.8981C60.6487 85.3239 60.6558 83.7497 60.6642 82.1755C60.6718 80.5266 60.6725 78.8777 60.6739 77.2288C60.6777 74.1109 60.6876 70.993 60.6997 67.875C60.7132 64.3235 60.7199 60.772 60.7259 57.2204C60.7385 49.9187 60.7597 42.6171 60.7867 35.3154Z" fill="#AE2524"/>
<path d="M249.993 38.1279C250.125 38.1279 250.258 38.1279 250.395 38.1279C250.442 45.3403 250.478 52.5526 250.499 59.7651C250.51 63.1143 250.524 66.4635 250.547 69.8127C250.567 72.7337 250.58 75.6546 250.584 78.5757C250.587 80.1208 250.593 81.6657 250.608 83.2107C250.622 84.6686 250.626 86.1262 250.623 87.5841C250.624 88.3668 250.634 89.1496 250.646 89.9322C250.608 96.3504 247.543 101.176 243.096 105.579C240.898 107.675 238.468 109.373 235.903 110.992C235.651 111.151 235.4 111.309 235.141 111.473C234.065 112.149 232.987 112.822 231.906 113.49C230.1 114.608 228.327 115.765 226.568 116.955C223.781 118.836 220.928 120.604 218.064 122.367C215.639 123.859 213.235 125.378 210.845 126.925C208.939 128.157 207.022 129.374 205.107 130.592C204.729 130.832 204.351 131.072 203.962 131.32C203.187 131.813 202.411 132.306 201.636 132.799C199.773 133.983 197.911 135.168 196.049 136.354C195.503 136.701 195.503 136.701 194.945 137.056C193.085 138.24 191.224 139.424 189.364 140.609C185.582 143.017 181.798 145.421 178.005 147.812C175.952 149.107 173.904 150.41 171.857 151.717C168.459 153.885 165.053 156.039 161.63 158.168C161.281 158.385 160.932 158.603 160.573 158.827C160.081 159.132 160.081 159.132 159.579 159.443C159.151 159.708 159.151 159.708 158.715 159.979C157.63 160.609 156.513 161.158 155.39 161.715C155.182 154.622 155.027 147.53 154.931 140.435C154.886 137.139 154.824 133.846 154.722 130.552C154.633 127.679 154.576 124.806 154.557 121.932C154.545 120.411 154.519 118.893 154.454 117.373C154.076 108.179 154.076 108.179 156.242 105.517C158.321 103.72 160.625 102.528 163.132 101.436C164.831 100.661 166.374 99.6674 167.945 98.6635C168.536 98.3026 169.128 97.9429 169.72 97.5848C171.867 96.2757 173.99 94.9303 176.114 93.5839C178.701 91.9443 181.298 90.3206 183.897 88.7C188.502 85.8257 193.085 82.9186 197.659 79.9946C198.056 79.7409 198.453 79.4872 198.862 79.2258C200.961 77.8837 203.059 76.5406 205.157 75.1968C206.876 74.0961 208.595 72.9964 210.315 71.8977C214.876 68.9829 219.429 66.0552 223.964 63.0995C225.502 62.0973 227.043 61.1001 228.585 60.1051C229.703 59.3835 230.819 58.6589 231.935 57.9344C232.62 57.4914 233.308 57.0535 233.997 56.616C241.297 51.9056 246.654 46.258 249.993 38.1279Z" fill="#F34938"/>
<path d="M248.383 24.0459C249.188 24.4485 249.188 24.4485 249.517 25.1954C249.665 25.6601 249.665 25.6601 249.817 26.1342C249.917 26.4388 250.017 26.7434 250.121 27.0573C250.672 29.0886 250.848 31.0302 250.847 33.1309C250.848 33.9184 250.848 33.9184 250.848 34.7217C250.847 35.2985 250.846 35.8753 250.844 36.4521C250.844 37.0632 250.844 37.6743 250.844 38.2855C250.844 39.9405 250.842 41.5954 250.839 43.2504C250.837 44.9815 250.836 46.7126 250.836 48.4436C250.835 51.7199 250.831 54.9961 250.827 58.2723C250.823 62.003 250.821 65.7336 250.819 69.4642C250.814 77.1368 250.807 84.8093 250.798 92.4818C250.665 92.4818 250.533 92.4818 250.396 92.4818C250.263 74.9461 250.13 57.4104 249.993 39.3433C249.196 40.9375 248.399 42.5316 247.578 44.1741C246.531 45.5754 245.498 46.8853 244.357 48.1997C244.114 48.5012 243.871 48.8027 243.62 49.1134C239.976 53.4938 235.134 56.3985 230.349 59.3693C228.136 60.7455 225.956 62.169 223.776 63.5978C219.273 66.5447 214.744 69.4482 210.208 72.3436C208.502 73.4329 206.798 74.5246 205.094 75.6163C198.154 80.061 191.205 84.4898 184.234 88.8855C182.968 89.6835 181.704 90.4835 180.441 91.2851C177.339 93.252 174.229 95.2028 171.091 97.1113C168.519 98.6753 165.962 100.26 163.417 101.867C163.11 102.06 162.804 102.253 162.488 102.452C160.612 103.639 158.767 104.861 156.94 106.124C156.196 106.572 156.196 106.572 155.391 106.572C155.433 105.68 155.433 105.68 155.793 104.559C156.635 103.849 157.406 103.295 158.334 102.722C158.602 102.551 158.869 102.379 159.144 102.203C161.976 100.403 164.865 98.6928 167.749 96.9792C171.014 95.0347 174.235 93.0192 177.46 91.0098C178.079 90.628 178.701 90.2511 179.325 89.8779C180.36 89.2552 181.379 88.6136 182.397 87.964C182.979 87.5926 182.979 87.5926 183.573 87.2137C183.97 86.9595 184.368 86.7052 184.778 86.4433C185.342 86.083 185.342 86.083 185.917 85.7155C187.097 84.9605 188.277 84.2049 189.458 83.4493C190.342 82.8832 191.226 82.3171 192.11 81.7509C192.335 81.6072 192.559 81.4635 192.791 81.3154C194.372 80.3029 195.954 79.2908 197.536 78.2788C198.407 77.7211 199.279 77.1634 200.151 76.6057C200.575 76.3342 200.999 76.0627 201.437 75.783C203.585 74.4082 205.731 73.031 207.875 71.6491C209.691 70.4791 211.516 69.324 213.345 68.1742C216.234 66.3576 219.1 64.5162 221.93 62.609C223.972 61.2389 226.047 59.9241 228.129 58.6161C229.379 57.8284 230.628 57.0399 231.878 56.251C232.124 56.0963 232.369 55.9416 232.623 55.7822C235.594 53.903 238.196 51.8372 240.734 49.4074C241.045 49.1267 241.356 48.846 241.676 48.5567C246.122 44.4 249.57 38.5532 249.784 32.3642C249.802 30.4254 249.777 28.7549 248.974 26.9755C248.383 25.6562 248.383 25.6562 248.383 24.0459Z" fill="#F89883"/>
<path d="M248.381 24.0459C249.186 24.4485 249.186 24.4485 249.515 25.1954C249.614 25.5052 249.713 25.815 249.815 26.1342C249.915 26.4388 250.015 26.7434 250.118 27.0573C250.67 29.0886 250.846 31.0302 250.845 33.1309C250.845 33.6559 250.846 34.1809 250.846 34.7217C250.845 35.2985 250.843 35.8753 250.842 36.4521C250.842 37.0632 250.842 37.6743 250.842 38.2855C250.842 39.9405 250.84 41.5954 250.837 43.2504C250.834 44.9815 250.834 46.7126 250.834 48.4436C250.833 51.7199 250.829 54.9961 250.825 58.2723C250.821 62.003 250.818 65.7336 250.816 69.4642C250.812 77.1368 250.805 84.8093 250.796 92.4818C250.663 92.4818 250.531 92.4818 250.394 92.4818C250.261 74.9461 250.128 57.4104 249.991 39.3433C249.194 40.9375 248.397 42.5316 247.576 44.1741C246.529 45.5754 245.496 46.8853 244.355 48.1997C243.99 48.652 243.99 48.652 243.618 49.1134C240.345 53.0479 236.097 55.7835 231.825 58.5154C231.324 58.8376 231.324 58.8376 230.813 59.1662C230.498 59.3635 230.184 59.5608 229.86 59.764C229.439 60.0292 229.439 60.0292 229.009 60.2997C228.253 60.6792 228.253 60.6792 227.045 60.6792C227.125 59.9559 227.125 59.9559 227.447 59.069C228.286 58.4085 228.286 58.4085 229.385 57.7606C229.785 57.5167 230.186 57.2728 230.599 57.0216C231.02 56.7673 231.442 56.513 231.876 56.251C235.108 54.2207 237.975 52.0466 240.732 49.4074C241.043 49.1267 241.354 48.846 241.674 48.5567C246.12 44.4 249.567 38.5532 249.782 32.3642C249.8 30.4254 249.775 28.7549 248.972 26.9755C248.381 25.6562 248.381 25.6562 248.381 24.0459Z" fill="#EF9E8B"/>
<path d="M60.7877 35.3154C60.9205 35.3154 61.0534 35.3154 61.1902 35.3154C62.6176 39.6145 62.6176 39.6145 62.3979 41.7565C62.2651 41.8893 62.1322 42.0221 61.9954 42.159C61.9455 42.9178 61.9237 43.6784 61.9127 44.4388C61.9047 44.9326 61.8967 45.4264 61.8884 45.9351C61.8815 46.4858 61.8747 47.0366 61.868 47.5873C61.8597 48.1611 61.8512 48.7348 61.8426 49.3085C61.82 50.8626 61.8001 52.4168 61.781 53.9709C61.769 54.9367 61.7561 55.9024 61.7431 56.8682C61.5709 69.6782 61.5459 82.4865 61.5928 95.2975C60.7877 94.4924 60.7877 94.4924 60.6886 93.4691C60.6893 93.0334 60.6901 92.5978 60.6909 92.1489C60.6897 91.6499 60.6886 91.1509 60.6875 90.6367C60.6903 90.0807 60.6933 89.5247 60.6963 88.9687C60.6965 88.3856 60.6964 87.8024 60.6959 87.2193C60.6957 85.6332 60.7004 84.0472 60.706 82.4612C60.7111 80.8048 60.7115 79.1484 60.7125 77.4919C60.715 74.354 60.7216 71.216 60.7297 68.078C60.7387 64.5061 60.7431 60.9342 60.7472 57.3622C60.7556 50.0133 60.7697 42.6644 60.7877 35.3154Z" fill="#972A2A"/>
<path d="M178.337 90.4639C178.536 90.8624 178.536 90.8624 178.739 91.269C178.474 91.269 178.208 91.269 177.934 91.269C177.934 91.5347 177.934 91.8004 177.934 92.0741C177.669 92.3398 177.403 92.6055 177.129 92.8793C176.9 93.1289 176.671 93.3785 176.436 93.6356C175.36 94.6375 174.193 95.3464 172.927 96.0746C172.388 96.3917 171.849 96.7094 171.311 97.0275C171.019 97.1997 170.727 97.3719 170.426 97.5492C168.665 98.5983 166.921 99.676 165.178 100.754C164.817 100.978 164.455 101.201 164.083 101.431C161.693 102.914 159.345 104.442 157.034 106.046C156.196 106.566 156.196 106.566 155.391 106.566C155.433 105.675 155.433 105.675 155.793 104.554C156.635 103.844 157.406 103.29 158.334 102.717C158.735 102.46 158.735 102.46 159.144 102.198C161.973 100.4 164.859 98.6908 167.741 96.9788C171.303 94.8571 174.817 92.6557 178.337 90.4639Z" fill="#F9907B"/>
<path d="M249.992 38.1279C250.125 38.1279 250.257 38.1279 250.394 38.1279C250.432 45.3542 250.46 52.5804 250.478 59.8068C250.486 63.1624 250.497 66.5179 250.516 69.8735C250.532 72.7995 250.542 75.7254 250.546 78.6515C250.548 80.1996 250.553 81.7477 250.565 83.2958C250.576 84.7556 250.579 86.2153 250.576 87.6752C250.577 88.4609 250.586 89.2467 250.595 90.0324C250.581 93.0585 250.155 95.3992 248.784 98.11C248.651 98.11 248.518 98.11 248.381 98.11C248.331 96.9526 248.331 96.9526 248.381 95.6946C248.78 95.2961 248.78 95.2961 249.187 94.8895C249.622 93.628 249.639 92.4409 249.638 91.1141C249.638 90.6749 249.639 90.2357 249.639 89.7833C249.638 89.3035 249.636 88.8237 249.635 88.3293C249.635 87.8226 249.635 87.3158 249.635 86.7937C249.635 85.4057 249.633 84.0177 249.63 82.6296C249.627 81.1784 249.627 79.7273 249.627 78.2761C249.626 75.5288 249.622 72.7815 249.618 70.0342C249.614 66.9062 249.611 63.7782 249.609 60.6502C249.605 54.2163 249.598 47.7824 249.589 41.3484C249.456 41.747 249.323 42.1455 249.187 42.5561C248.921 42.5561 248.655 42.5561 248.381 42.5561C248.498 42.2738 248.614 41.9915 248.734 41.7007C249.195 40.5214 249.6 39.3319 249.992 38.1279Z" fill="#E14F40"/>
<path d="M61.1914 37.3223C62.1477 38.2786 62.1448 38.6519 62.2733 39.9641C62.3081 40.2884 62.3428 40.6128 62.3787 40.9469C62.3888 41.3447 62.3888 41.3447 62.3991 41.7505C62.2663 41.8833 62.1334 42.0162 61.9965 42.153C61.9466 43.0295 61.9249 43.9077 61.9139 44.7855C61.9099 45.0604 61.9059 45.3353 61.9018 45.6186C61.889 46.5312 61.8791 47.4439 61.8692 48.3566C61.8609 48.9878 61.8524 49.619 61.8438 50.2503C61.8216 51.9147 61.8017 53.5791 61.7823 55.2436C61.7621 56.9408 61.7397 58.638 61.7174 60.3353C61.6741 63.6677 61.6332 67.0001 61.594 70.3325C61.4611 70.3325 61.3283 70.3325 61.1914 70.3325C61.1914 59.4391 61.1914 48.5458 61.1914 37.3223Z" fill="#950F11"/>
<path d="M246.77 43.3638C246.903 43.7623 247.036 44.1608 247.173 44.5715C245.921 46.6473 244.18 48.6246 242.342 50.2074C241.944 50.2074 241.545 50.2074 241.135 50.2074C241.367 48.8114 241.823 48.1758 242.845 47.2133C243.098 46.972 243.35 46.7307 243.61 46.4821C243.979 46.1341 243.979 46.1341 244.355 45.7792C244.742 45.3948 245.128 45.0093 245.512 44.6218C245.932 44.2024 246.351 43.7831 246.77 43.3638Z" fill="#F6AA93"/>
<path d="M226.643 5.92285C230.579 6.5166 234.219 8.98303 237.411 11.2568C237.771 11.5129 237.771 11.5129 238.138 11.7741C239.239 12.5815 239.967 13.2285 240.732 14.3767C239.64 13.8529 238.639 13.2765 237.638 12.595C234.62 10.5726 231.786 8.74565 228.342 7.53311C227.448 7.13054 227.448 7.13054 226.643 5.92285Z" fill="#E27869"/>
<path d="M72.0576 11.9634C72.4561 12.0962 72.8546 12.2291 73.2652 12.3659C71.2726 14.3586 69.2799 16.3513 67.2268 18.4044C67.0939 18.1387 66.9611 17.873 66.8242 17.5993C67.896 15.2547 69.94 13.3751 72.0576 11.9634Z" fill="#EA5041"/>
<path d="M248.383 24.0459C249.188 24.4485 249.188 24.4485 249.842 25.9078C250.702 28.5732 250.494 31.3448 250.396 34.11C250.263 34.11 250.13 34.11 249.993 34.11C249.978 33.7359 249.963 33.3617 249.947 32.9762C249.802 30.2403 249.606 28.1035 248.383 25.6562C248.383 25.1248 248.383 24.5934 248.383 24.0459Z" fill="#E28172"/>
<path d="M250.394 30.4854C250.526 30.4854 250.659 30.4854 250.796 30.4854C250.796 32.478 250.796 34.4707 250.796 36.5238C250.53 36.5238 250.265 36.5238 249.991 36.5238C249.858 36.9224 249.725 37.3209 249.588 37.7315C249.538 35.0142 249.538 35.0142 249.991 34.1084C250.081 33.4898 250.155 32.8687 250.217 32.2466C250.251 31.9176 250.285 31.5886 250.32 31.2496C250.344 30.9974 250.368 30.7452 250.394 30.4854Z" fill="#EDACA0"/>
<path d="M61.1922 37.3223C62.1574 38.2875 62.1353 38.6639 62.2489 39.9893C62.279 40.3183 62.3091 40.6473 62.3401 40.9862C62.3598 41.2384 62.3796 41.4906 62.3999 41.7505C62.0013 41.9497 62.0013 41.9497 61.5947 42.153C61.0866 41.1367 61.1525 40.4172 61.167 39.2848C61.1706 38.9184 61.1743 38.552 61.178 38.1746C61.1827 37.8933 61.1874 37.612 61.1922 37.3223Z" fill="#A71514"/>
<path d="M249.589 93.2847C249.855 93.2847 250.121 93.2847 250.394 93.2847C250.213 93.9397 250.028 94.5937 249.841 95.2472C249.738 95.6115 249.635 95.9757 249.529 96.3511C249.187 97.3103 249.187 97.3103 248.381 98.1154C248.331 96.9581 248.331 96.9581 248.381 95.7001C248.647 95.4344 248.913 95.1687 249.187 94.8949C249.445 94.0621 249.445 94.0621 249.589 93.2847Z" fill="#E15949"/>
<path d="M240.732 14.3784C243.519 16.1745 243.519 16.1745 244.355 17.1964C244.355 17.4621 244.355 17.7278 244.355 18.0015C243.957 17.8686 243.558 17.7358 243.148 17.5989C243.148 17.3332 243.148 17.0675 243.148 16.7938C242.899 16.6942 242.65 16.5945 242.393 16.4919C241.396 15.9056 241.154 15.4339 240.732 14.3784Z" fill="#E47E6D"/>
<path d="M249.188 36.5176C250.221 38.0676 249.926 38.7662 249.591 40.5432C249.458 40.1447 249.325 39.7461 249.188 39.3355C248.922 39.3355 248.657 39.3355 248.383 39.3355C248.649 38.4056 248.914 37.4757 249.188 36.5176Z" fill="#F5998A"/>
<path d="M164.246 15.1831C163.843 16.3908 163.843 16.3908 162.636 17.1959C161.755 17.045 161.755 17.045 161.025 16.7934C163.34 15.1831 163.34 15.1831 164.246 15.1831Z" fill="#E26C5A"/>
</g>
<defs>
<linearGradient id="paint0_linear_52_8793" x1="157.203" y1="3.50781" x2="157.203" y2="206.4" gradientUnits="userSpaceOnUse">
<stop stop-color="#E0E1E3"/>
<stop offset="1" stop-color="#7B7C7D"/>
</linearGradient>
<linearGradient id="paint1_linear_52_8793" x1="157.203" y1="3.50781" x2="157.203" y2="206.4" gradientUnits="userSpaceOnUse">
<stop stop-color="#E0E1E3"/>
<stop offset="1" stop-color="#7B7C7D"/>
</linearGradient>
<clipPath id="clip0_52_8793">
<rect width="314" height="250.797" fill="white" transform="translate(0 0.288086)"/>
</clipPath>
</defs>
</svg>
