<svg width="24" height="25" viewBox="0 0 24 25" fill="none" xmlns="http://www.w3.org/2000/svg">
<g clip-path="url(#clip0_88_4918)">
<g clip-path="url(#clip1_88_4918)">
<path d="M2.90191 21.7242H1.09391V20.1322H0.292907V24.0792H1.09391V22.4762H2.90191V24.0792H3.70291V20.1322H2.90191V21.7242ZM7.41391 22.3912C7.41391 23.0332 7.09491 23.3752 6.51691 23.3752C5.93491 23.3752 5.61491 23.0222 5.61491 22.3642V20.1342H4.81291V22.3912C4.81291 23.5012 5.42991 24.1382 6.50591 24.1382C7.59191 24.1382 8.21491 23.4892 8.21491 22.3582V20.1322H7.41391V22.3912ZM16.6699 22.8462L15.7729 20.1312H15.1199L14.2239 22.8462L13.3519 20.1342H12.4989L13.8749 24.0792H14.5379L15.4359 21.4872L16.3329 24.0792H17.0019L18.3739 20.1342H17.5429L16.6699 22.8462ZM19.8099 22.3802H21.2669V21.6612H19.8099V20.8532H21.9239V20.1352H19.0199V24.0772H21.9999V23.3582H19.8099V22.3802ZM22.9549 20.1322H23.7449V24.0742H22.9549V20.1322ZM11.6039 23.2552L11.9579 24.0762H12.7969L11.0649 20.1322H10.3589L8.61991 24.0762H9.43791L9.79791 23.2552H11.6039ZM10.6989 21.1302L11.3059 22.5432H10.0949L10.6989 21.1302ZM22.0469 7.14618C22.1769 5.12518 20.1429 3.25518 20.1429 3.25518C20.1429 3.25518 16.3709 7.82418 13.6219 13.8242C13.6079 13.8552 13.6029 13.9082 13.6349 13.9362C13.6498 13.9477 13.6677 13.9547 13.6865 13.9565C13.7052 13.9582 13.7241 13.9547 13.7409 13.9462C14.7709 13.4352 19.0549 11.2292 20.8589 9.50718C20.8589 9.50718 21.9869 8.60118 22.0469 7.14618ZM17.2389 2.58618C17.2389 2.58618 16.7669 0.825184 14.8539 0.360184C14.8539 0.360184 14.3029 0.220184 13.7169 0.138184C13.7169 0.138184 11.5779 2.89118 12.6179 13.2802C12.6229 13.3342 12.6529 13.3542 12.6769 13.3612C12.7159 13.3712 12.7529 13.3572 12.7789 13.3202C13.4649 12.3292 16.5919 7.69418 17.2269 4.87518C17.2269 4.87518 17.5709 3.51118 17.2389 2.58618ZM14.3069 15.4142C14.2959 15.4372 14.2859 15.4932 14.3289 15.5242C15.0199 16.0192 17.1139 17.4842 18.1229 17.7682C18.1229 17.7682 19.9889 18.4042 21.6089 15.6202L14.3829 15.3682C14.3673 15.3686 14.3522 15.3731 14.3388 15.3812C14.3255 15.3892 14.3145 15.4006 14.3069 15.4142ZM23.5299 9.23818C23.5299 9.23818 17.3949 12.5332 14.2229 14.6702C14.1999 14.6862 14.1699 14.7172 14.1859 14.7732C14.1939 14.8032 14.2229 14.8302 14.2609 14.8302C15.3959 14.8322 19.6959 14.8372 19.8039 14.8172C19.8039 14.8172 20.3599 14.7952 21.0469 14.5312C21.0469 14.5312 22.5759 14.0452 23.3699 12.3082C23.3699 12.3082 24.0779 10.8932 23.5299 9.23818ZM9.76991 14.6702C6.59791 12.5332 0.462907 9.23818 0.462907 9.23818C-0.0850927 10.8932 0.622907 12.3092 0.622907 12.3092C1.41691 14.0452 2.94591 14.5322 2.94591 14.5322C3.63291 14.7962 4.18891 14.8182 4.18891 14.8182C4.29691 14.8382 8.59691 14.8332 9.73191 14.8312C9.74891 14.8312 9.76545 14.8256 9.77899 14.8153C9.79252 14.805 9.80233 14.7906 9.80691 14.7742C9.81316 14.7552 9.81292 14.7347 9.80622 14.7158C9.79953 14.697 9.78675 14.6809 9.76991 14.6702ZM9.60991 15.3682L2.38391 15.6202C4.00491 18.4042 5.86991 17.7682 5.86991 17.7682C6.87891 17.4842 8.97391 16.0192 9.66391 15.5242C9.70791 15.4932 9.69691 15.4362 9.68591 15.4142C9.6783 15.4006 9.6673 15.3892 9.65398 15.3812C9.64066 15.3731 9.62547 15.3686 9.60991 15.3682ZM9.13891 0.360184C7.22591 0.825184 6.75391 2.58618 6.75391 2.58618C6.42191 3.51118 6.76591 4.87518 6.76591 4.87518C7.40091 7.69418 10.5279 12.3302 11.2139 13.3202C11.2399 13.3572 11.2769 13.3712 11.3159 13.3612C11.3409 13.3542 11.3699 13.3352 11.3759 13.2802C12.4149 2.89118 10.2759 0.138184 10.2759 0.138184C9.68991 0.220184 9.13891 0.360184 9.13891 0.360184ZM3.84991 3.25518C3.84991 3.25518 1.81591 5.12518 1.94591 7.14618C2.00591 8.60118 3.13391 9.50718 3.13391 9.50718C4.93891 11.2282 9.22191 13.4342 10.2519 13.9462C10.2687 13.9547 10.2876 13.9582 10.3063 13.9565C10.3251 13.9547 10.343 13.9477 10.3579 13.9362C10.3909 13.9082 10.3849 13.8562 10.3709 13.8242C7.62191 7.82318 3.84991 3.25518 3.84991 3.25518Z" fill="#202020"/>
</g>
<g clip-path="url(#clip2_88_4918)">
<path d="M2.90191 21.7242H1.09391V20.1322H0.292907V24.0792H1.09391V22.4762H2.90191V24.0792H3.70291V20.1322H2.90191V21.7242ZM7.41391 22.3912C7.41391 23.0332 7.09491 23.3752 6.51691 23.3752C5.93491 23.3752 5.61491 23.0222 5.61491 22.3642V20.1342H4.81291V22.3912C4.81291 23.5012 5.42991 24.1382 6.50591 24.1382C7.59191 24.1382 8.21491 23.4892 8.21491 22.3582V20.1322H7.41391V22.3912ZM16.6699 22.8462L15.7729 20.1312H15.1199L14.2239 22.8462L13.3519 20.1342H12.4989L13.8749 24.0792H14.5379L15.4359 21.4872L16.3329 24.0792H17.0019L18.3739 20.1342H17.5429L16.6699 22.8462ZM19.8099 22.3802H21.2669V21.6612H19.8099V20.8532H21.9239V20.1352H19.0199V24.0772H21.9999V23.3582H19.8099V22.3802ZM22.9549 20.1322H23.7449V24.0742H22.9549V20.1322ZM11.6039 23.2552L11.9579 24.0762H12.7969L11.0649 20.1322H10.3589L8.61991 24.0762H9.43791L9.79791 23.2552H11.6039ZM10.6989 21.1302L11.3059 22.5432H10.0949L10.6989 21.1302ZM22.0469 7.14618C22.1769 5.12518 20.1429 3.25518 20.1429 3.25518C20.1429 3.25518 16.3709 7.82418 13.6219 13.8242C13.6079 13.8552 13.6029 13.9082 13.6349 13.9362C13.6498 13.9477 13.6677 13.9547 13.6865 13.9565C13.7052 13.9582 13.7241 13.9547 13.7409 13.9462C14.7709 13.4352 19.0549 11.2292 20.8589 9.50718C20.8589 9.50718 21.9869 8.60118 22.0469 7.14618ZM17.2389 2.58618C17.2389 2.58618 16.7669 0.825184 14.8539 0.360184C14.8539 0.360184 14.3029 0.220184 13.7169 0.138184C13.7169 0.138184 11.5779 2.89118 12.6179 13.2802C12.6229 13.3342 12.6529 13.3542 12.6769 13.3612C12.7159 13.3712 12.7529 13.3572 12.7789 13.3202C13.4649 12.3292 16.5919 7.69418 17.2269 4.87518C17.2269 4.87518 17.5709 3.51118 17.2389 2.58618ZM14.3069 15.4142C14.2959 15.4372 14.2859 15.4932 14.3289 15.5242C15.0199 16.0192 17.1139 17.4842 18.1229 17.7682C18.1229 17.7682 19.9889 18.4042 21.6089 15.6202L14.3829 15.3682C14.3673 15.3686 14.3522 15.3731 14.3388 15.3812C14.3255 15.3892 14.3145 15.4006 14.3069 15.4142ZM23.5299 9.23818C23.5299 9.23818 17.3949 12.5332 14.2229 14.6702C14.1999 14.6862 14.1699 14.7172 14.1859 14.7732C14.1939 14.8032 14.2229 14.8302 14.2609 14.8302C15.3959 14.8322 19.6959 14.8372 19.8039 14.8172C19.8039 14.8172 20.3599 14.7952 21.0469 14.5312C21.0469 14.5312 22.5759 14.0452 23.3699 12.3082C23.3699 12.3082 24.0779 10.8932 23.5299 9.23818ZM9.76991 14.6702C6.59791 12.5332 0.462907 9.23818 0.462907 9.23818C-0.0850927 10.8932 0.622907 12.3092 0.622907 12.3092C1.41691 14.0452 2.94591 14.5322 2.94591 14.5322C3.63291 14.7962 4.18891 14.8182 4.18891 14.8182C4.29691 14.8382 8.59691 14.8332 9.73191 14.8312C9.74891 14.8312 9.76545 14.8256 9.77899 14.8153C9.79252 14.805 9.80233 14.7906 9.80691 14.7742C9.81316 14.7552 9.81292 14.7347 9.80622 14.7158C9.79953 14.697 9.78675 14.6809 9.76991 14.6702ZM9.60991 15.3682L2.38391 15.6202C4.00491 18.4042 5.86991 17.7682 5.86991 17.7682C6.87891 17.4842 8.97391 16.0192 9.66391 15.5242C9.70791 15.4932 9.69691 15.4362 9.68591 15.4142C9.6783 15.4006 9.6673 15.3892 9.65398 15.3812C9.64066 15.3731 9.62547 15.3686 9.60991 15.3682ZM9.13891 0.360184C7.22591 0.825184 6.75391 2.58618 6.75391 2.58618C6.42191 3.51118 6.76591 4.87518 6.76591 4.87518C7.40091 7.69418 10.5279 12.3302 11.2139 13.3202C11.2399 13.3572 11.2769 13.3712 11.3159 13.3612C11.3409 13.3542 11.3699 13.3352 11.3759 13.2802C12.4149 2.89118 10.2759 0.138184 10.2759 0.138184C9.68991 0.220184 9.13891 0.360184 9.13891 0.360184ZM3.84991 3.25518C3.84991 3.25518 1.81591 5.12518 1.94591 7.14618C2.00591 8.60118 3.13391 9.50718 3.13391 9.50718C4.93891 11.2282 9.22191 13.4342 10.2519 13.9462C10.2687 13.9547 10.2876 13.9582 10.3063 13.9565C10.3251 13.9547 10.343 13.9477 10.3579 13.9362C10.3909 13.9082 10.3849 13.8562 10.3709 13.8242C7.62191 7.82318 3.84991 3.25518 3.84991 3.25518Z" fill="#C90A2B"/>
</g>
</g>
<defs>
<clipPath id="clip0_88_4918">
<rect width="24" height="24" fill="white" transform="translate(0 0.138184)"/>
</clipPath>
<clipPath id="clip1_88_4918">
<rect width="24" height="4.8" fill="white" transform="translate(0 19.3381)"/>
</clipPath>
<clipPath id="clip2_88_4918">
<rect width="24" height="18" fill="white" transform="translate(0 0.138184)"/>
</clipPath>
</defs>
</svg>
