<svg width="24" height="21" viewBox="0 0 24 21" fill="none" xmlns="http://www.w3.org/2000/svg">
<path d="M5.23379 6.21817C6.65303 3.97453 9.15342 2.48828 12.0002 2.48828C14.847 2.48828 17.3474 3.97453 18.7667 6.21817L20.4569 5.14899C18.6865 2.35027 15.5612 0.488281 12.0002 0.488281C8.43928 0.488281 5.31393 2.35027 3.54356 5.14899L5.23379 6.21817ZM12.0002 18.4883C9.15342 18.4883 6.65303 17.0021 5.23379 14.7584L3.54356 15.8276C5.31393 18.6263 8.43928 20.4883 12.0002 20.4883C15.5612 20.4883 18.6865 18.6263 20.4569 15.8276L18.7667 14.7584C17.3474 17.0021 14.847 18.4883 12.0002 18.4883ZM12 6.48828C12.5523 6.48828 13 6.936 13 7.48828C13 8.04056 12.5523 8.48828 12 8.48828C11.4477 8.48828 11 8.04056 11 7.48828C11 6.936 11.4477 6.48828 12 6.48828ZM12 10.4883C13.6569 10.4883 15 9.14518 15 7.48828C15 5.83143 13.6569 4.48828 12 4.48828C10.3431 4.48828 9 5.83143 9 7.48828C9 9.14518 10.3431 10.4883 12 10.4883ZM12 13.4883C10.8954 13.4883 10 14.3837 10 15.4883H8C8 13.2792 9.79086 11.4883 12 11.4883C14.2091 11.4883 16 13.2792 16 15.4883H14C14 14.3837 13.1046 13.4883 12 13.4883ZM3 9.48828C2.44772 9.48828 2 9.93598 2 10.4883C2 11.0406 2.44772 11.4883 3 11.4883C3.55228 11.4883 4 11.0406 4 10.4883C4 9.93598 3.55228 9.48828 3 9.48828ZM0 10.4883C0 8.83138 1.34315 7.48828 3 7.48828C4.65685 7.48828 6 8.83138 6 10.4883C6 12.1452 4.65685 13.4883 3 13.4883C1.34315 13.4883 0 12.1452 0 10.4883ZM20 10.4883C20 9.93598 20.4477 9.48828 21 9.48828C21.5523 9.48828 22 9.93598 22 10.4883C22 11.0406 21.5523 11.4883 21 11.4883C20.4477 11.4883 20 11.0406 20 10.4883ZM21 7.48828C19.3431 7.48828 18 8.83138 18 10.4883C18 12.1452 19.3431 13.4883 21 13.4883C22.6569 13.4883 24 12.1452 24 10.4883C24 8.83138 22.6569 7.48828 21 7.48828Z" fill="#F55B47"/>
</svg>
