<svg width="20" height="22" viewBox="0 0 20 22" fill="none" xmlns="http://www.w3.org/2000/svg">
<path d="M2 5.63114V18.4552L7.06476 16.2846L13.0648 19.2846L18 17.1695V4.34542L19.303 3.78698C19.5569 3.6782 19.8508 3.79577 19.9596 4.04959C19.9862 4.11183 20 4.17884 20 4.24655V18.4883L13 21.4883L7 18.4883L0.69696 21.1896C0.44314 21.2984 0.14921 21.1808 0.0404301 20.927C0.0137501 20.8648 0 20.7977 0 20.73V6.48828L2 5.63114ZM14.2426 10.7309L10 14.9736L5.75736 10.7309C3.41421 8.38777 3.41421 4.58879 5.75736 2.24564C8.1005 -0.0975053 11.8995 -0.0975053 14.2426 2.24564C16.5858 4.58879 16.5858 8.38777 14.2426 10.7309ZM10 12.1452L12.8284 9.31671C14.3905 7.75461 14.3905 5.22195 12.8284 3.65985C11.2663 2.09776 8.7337 2.09776 7.17157 3.65985C5.60948 5.22195 5.60948 7.75461 7.17157 9.31671L10 12.1452Z" fill="#F55B47"/>
</svg>
