<svg width="20" height="19" viewBox="0 0 20 19" fill="none" xmlns="http://www.w3.org/2000/svg">
<path d="M0.9918 18.4883C0.44405 18.4883 0 18.0434 0 17.4949V1.48168C0 0.933041 0.45531 0.488281 0.9918 0.488281H19.0082C19.556 0.488281 20 0.933231 20 1.48168V17.4949C20 18.0435 19.5447 18.4883 19.0082 18.4883H0.9918ZM18 12.4883V2.48828H2V16.4883L12 6.48828L18 12.4883ZM18 15.3167L12 9.31668L4.82843 16.4883H18V15.3167ZM6 8.48828C4.89543 8.48828 4 7.59288 4 6.48828C4 5.38371 4.89543 4.48828 6 4.48828C7.10457 4.48828 8 5.38371 8 6.48828C8 7.59288 7.10457 8.48828 6 8.48828Z" fill="#F55B47"/>
</svg>
