<svg width="20" height="21" viewBox="0 0 20 21" fill="none" xmlns="http://www.w3.org/2000/svg">
<path d="M9 9.48828V5.48828H11V9.48828H15V11.4883H11V15.4883H9V11.4883H5V9.48828H9ZM10 20.4883C4.47715 20.4883 0 16.0111 0 10.4883C0 4.96543 4.47715 0.488281 10 0.488281C15.5228 0.488281 20 4.96543 20 10.4883C20 16.0111 15.5228 20.4883 10 20.4883ZM10 18.4883C14.4183 18.4883 18 14.9066 18 10.4883C18 6.07 14.4183 2.48828 10 2.48828C5.58172 2.48828 2 6.07 2 10.4883C2 14.9066 5.58172 18.4883 10 18.4883Z" fill="#F55B47"/>
</svg>
