<svg width="235" height="32" viewBox="0 0 235 32" fill="none" xmlns="http://www.w3.org/2000/svg">
<path d="M53.5605 22.1387H47.4708V5.21261H53.3984C58.3998 5.21261 61.8499 8.66266 61.8499 13.7104C61.8499 18.6886 58.4693 22.1387 53.5605 22.1387ZM53.1206 7.94486H50.4346V19.4064H53.2827C56.6632 19.4064 58.724 17.2299 58.724 13.7104C58.724 10.1214 56.6169 7.94486 53.1206 7.94486ZM67.0547 22.4397C64.6235 22.4397 63.1416 21.0272 63.1416 18.8739C63.1416 16.7668 64.6698 15.447 67.3789 15.2386L70.8058 14.9839V14.7292C70.8058 13.1778 69.8796 12.5526 68.444 12.5526C66.7769 12.5526 65.8507 13.2473 65.8507 14.4513H63.4426C63.4426 11.9738 65.4802 10.3529 68.5829 10.3529C71.6625 10.3529 73.5612 12.0201 73.5612 15.1923V22.1387H71.0836L70.8752 20.4484C70.389 21.6293 68.8376 22.4397 67.0547 22.4397ZM67.9809 20.3095C69.7175 20.3095 70.8289 19.2675 70.8289 17.5077V16.9057L68.444 17.091C66.6843 17.253 66.0128 17.8319 66.0128 18.7581C66.0128 19.8001 66.7074 20.3095 67.9809 20.3095ZM79.5251 22.1387H76.7002V13.062H74.5005V10.7003H76.7002V7.13445H79.5251V10.7003H81.7479V13.062H79.5251V22.1387ZM84.3736 8.40795C83.4011 8.40795 82.637 7.64385 82.637 6.69451C82.637 5.74517 83.4011 5.00422 84.3736 5.00422C85.2997 5.00422 86.0638 5.74517 86.0638 6.69451C86.0638 7.64385 85.2997 8.40795 84.3736 8.40795ZM82.9611 22.1387V10.7003H85.786V22.1387H82.9611ZM90.9865 22.1387H88.1616V10.7003H90.7781L91.0097 12.1822C91.7274 11.0244 93.1167 10.3529 94.6681 10.3529C97.5393 10.3529 99.0212 12.1359 99.0212 15.0997V22.1387H96.1963V15.7711C96.1963 13.8493 95.247 12.9231 93.7882 12.9231C92.0516 12.9231 90.9865 14.1272 90.9865 15.9795V22.1387ZM100.605 16.1648C100.605 12.8305 102.782 10.3298 106.047 10.3298C107.76 10.3298 109.103 11.0476 109.775 12.2748L109.937 10.7003H112.553V21.5598C112.553 25.3803 110.261 27.7653 106.556 27.7653C103.268 27.7653 101.022 25.8897 100.675 22.8333H103.5C103.685 24.3152 104.82 25.1951 106.556 25.1951C108.501 25.1951 109.751 23.9679 109.751 22.0692V20.1705C109.034 21.2356 107.621 21.9071 105.977 21.9071C102.736 21.9071 100.605 19.4759 100.605 16.1648ZM103.453 16.0953C103.453 18.0171 104.681 19.4527 106.533 19.4527C108.478 19.4527 109.682 18.0866 109.682 16.0953C109.682 14.1503 108.501 12.8073 106.533 12.8073C104.657 12.8073 103.453 14.2198 103.453 16.0953ZM122.044 8.40795C121.072 8.40795 120.308 7.64385 120.308 6.69451C120.308 5.74517 121.072 5.00422 122.044 5.00422C122.97 5.00422 123.734 5.74517 123.734 6.69451C123.734 7.64385 122.97 8.40795 122.044 8.40795ZM120.632 22.1387V10.7003H123.457V22.1387H120.632ZM128.657 22.1387H125.832V10.7003H128.449L128.68 12.1822C129.398 11.0244 130.787 10.3529 132.339 10.3529C135.21 10.3529 136.692 12.1359 136.692 15.0997V22.1387H133.867V15.7711C133.867 13.8493 132.918 12.9231 131.459 12.9231C129.722 12.9231 128.657 14.1272 128.657 15.9795V22.1387ZM148.512 22.1387H145.687V13.062H143.488V10.7003H145.687V7.13445H148.512V10.7003H150.735V13.062H148.512V22.1387ZM154.773 22.1387H151.948V4.9116H154.796V12.1822C155.514 11.0707 156.857 10.3529 158.501 10.3529C161.326 10.3529 162.808 12.1359 162.808 15.0997V22.1387H159.983V15.7711C159.983 13.8493 159.034 12.9231 157.598 12.9231C155.815 12.9231 154.773 14.1735 154.773 15.8869V22.1387ZM170.158 22.4397C166.754 22.4397 164.369 19.9621 164.369 16.4195C164.369 12.8305 166.707 10.3529 170.065 10.3529C173.492 10.3529 175.668 12.6453 175.668 16.2111V17.0678L167.055 17.091C167.263 19.1054 168.328 20.1242 170.204 20.1242C171.755 20.1242 172.774 19.5222 173.098 18.4339H175.715C175.228 20.9346 173.144 22.4397 170.158 22.4397ZM170.088 12.6684C168.421 12.6684 167.402 13.5714 167.124 15.2849H172.867C172.867 13.7104 171.778 12.6684 170.088 12.6684ZM184.96 22.1387H181.88L187.993 5.21261H191.026L197.139 22.1387H194.013L192.647 18.2255H186.326L184.96 22.1387ZM189.128 10.2603L187.206 15.7248H191.79L189.845 10.2603C189.706 9.82039 189.544 9.31099 189.498 8.96367C189.429 9.28783 189.29 9.79723 189.128 10.2603ZM198.302 27.4411V10.7003H200.918L201.104 12.4369C201.798 11.1171 203.303 10.3529 205.04 10.3529C208.258 10.3529 210.389 12.6916 210.389 16.2805C210.389 19.8464 208.444 22.4397 205.04 22.4397C203.326 22.4397 201.844 21.7682 201.127 20.6105V27.4411H198.302ZM201.15 16.4195C201.15 18.4802 202.423 19.8927 204.368 19.8927C206.36 19.8927 207.541 18.4571 207.541 16.4195C207.541 14.3819 206.36 12.9231 204.368 12.9231C202.423 12.9231 201.15 14.3587 201.15 16.4195ZM212.095 27.4411V10.7003H214.711L214.897 12.4369C215.591 11.1171 217.096 10.3529 218.833 10.3529C222.051 10.3529 224.182 12.6916 224.182 16.2805C224.182 19.8464 222.237 22.4397 218.833 22.4397C217.119 22.4397 215.638 21.7682 214.92 20.6105V27.4411H212.095ZM214.943 16.4195C214.943 18.4802 216.216 19.8927 218.161 19.8927C220.153 19.8927 221.334 18.4571 221.334 16.4195C221.334 14.3819 220.153 12.9231 218.161 12.9231C216.216 12.9231 214.943 14.3587 214.943 16.4195ZM225.008 18.6655H227.694C227.717 19.6611 228.458 20.2863 229.755 20.2863C231.075 20.2863 231.792 19.7537 231.792 18.9202C231.792 18.3413 231.491 17.9245 230.473 17.693L228.412 17.2067C226.351 16.7436 225.355 15.7711 225.355 13.9419C225.355 11.6959 227.254 10.3529 229.894 10.3529C232.464 10.3529 234.2 11.8348 234.224 14.0577H231.538C231.515 13.0852 230.866 12.46 229.778 12.46C228.667 12.46 228.018 12.9694 228.018 13.8261C228.018 14.4745 228.528 14.8913 229.5 15.1228L231.561 15.6091C233.483 16.049 234.455 16.9289 234.455 18.6886C234.455 21.0041 232.487 22.4397 229.662 22.4397C226.814 22.4397 225.008 20.9115 225.008 18.6655Z" fill="white"/>
<g clip-path="url(#clip0_52_8680)">
<path opacity="0.3" d="M18.6145 1.68311L0.0722656 14.1162L18.6145 25.7379L37.2045 14.1401L18.6145 1.68311Z" fill="url(#paint0_linear_52_8680)"/>
<path opacity="0.3" d="M18.6145 1.68311L0.0722656 14.1401H8.04282H37.2045L18.6145 1.68311Z" fill="url(#paint1_linear_52_8680)"/>
<path d="M28.6756 3.02198C29.2643 3.56088 29.6829 4.24172 29.7472 5.04938C29.7527 5.23711 29.7538 5.42456 29.7531 5.61234C29.7534 5.68391 29.7537 5.75548 29.7541 5.82704C29.755 6.01973 29.7549 6.21241 29.7546 6.4051C29.7545 6.56663 29.7548 6.72817 29.7551 6.8897C29.7557 7.27105 29.7557 7.65239 29.7551 8.03373C29.7546 8.42577 29.7552 8.81779 29.7565 9.20982C29.7576 9.5478 29.7579 9.88578 29.7576 10.2238C29.7575 10.425 29.7576 10.6263 29.7584 10.8275C29.7591 11.0168 29.7589 11.2061 29.758 11.3954C29.7579 11.4644 29.758 11.5335 29.7585 11.6025C29.7638 12.3934 29.5354 13.0134 28.9948 13.5898C28.6323 13.9568 28.2673 14.2583 27.8247 14.5227C27.7011 14.5988 27.5779 14.6755 27.4548 14.7524C27.4222 14.7727 27.3896 14.793 27.3561 14.8139C27.1375 14.9504 26.9226 15.0914 26.7091 15.2357C26.4119 15.4362 26.1082 15.6242 25.8017 15.81C25.5323 15.9734 25.2666 16.1416 25.0021 16.3129C24.7744 16.4602 24.5455 16.6055 24.3167 16.751C24.272 16.7795 24.2272 16.808 24.181 16.8373C24.0891 16.8958 23.9972 16.9542 23.9053 17.0127C23.6844 17.1531 23.4636 17.2936 23.2428 17.4341C23.1997 17.4616 23.1565 17.4891 23.112 17.5174C22.8914 17.6577 22.6708 17.7981 22.4503 17.9386C22.002 18.2242 21.5533 18.5091 21.1036 18.7926C20.8602 18.9462 20.6173 19.1007 20.3747 19.2555C19.8541 19.5877 19.3322 19.9178 18.8043 20.2384C18.7275 20.2861 18.6529 20.3374 18.5791 20.3897C18.4274 20.461 18.3426 20.4403 18.1837 20.3932C18.0698 20.3272 18.0698 20.3272 17.96 20.2441C17.6511 20.0179 17.3288 19.8164 17.0036 19.6147C16.6937 19.4223 16.3859 19.2283 16.0837 19.024C15.3758 18.5469 14.6424 18.1074 13.9162 17.6587C13.5289 17.4191 13.1438 17.176 12.7591 16.9322C12.5708 16.8129 12.3823 16.694 12.1939 16.575C12.1183 16.5273 12.0427 16.4796 11.9671 16.4318C11.911 16.3964 11.911 16.3964 11.8538 16.3602C11.7404 16.2886 11.6271 16.2171 11.5137 16.1455C11.4763 16.1218 11.4389 16.0982 11.4003 16.0738C11.325 16.0263 11.2498 15.9787 11.1745 15.9312C10.9808 15.8089 10.7872 15.6866 10.5935 15.5643C9.86431 15.1041 9.86431 15.1041 9.54533 14.9001C9.42513 14.8239 9.3045 14.7485 9.18364 14.6734C8.3611 14.1608 8.3611 14.1608 8.06539 13.9023C8.03703 13.8789 8.00867 13.8555 7.97945 13.8314C7.57201 13.4664 7.23866 12.8574 7.19274 12.3083C7.187 12.11 7.18582 11.9121 7.18625 11.7137C7.1859 11.6376 7.18549 11.5615 7.18503 11.4854C7.18397 11.2797 7.18383 11.074 7.18392 10.8683C7.18392 10.696 7.18351 10.5237 7.18312 10.3514C7.1822 9.94441 7.18206 9.53746 7.18238 9.13051C7.1827 8.71215 7.18161 8.29381 7.17984 7.87546C7.17837 7.51506 7.17783 7.15467 7.17802 6.79427C7.17811 6.57956 7.17786 6.36487 7.17668 6.15017C7.17561 5.94797 7.17572 5.74581 7.17668 5.54361C7.17684 5.46993 7.17661 5.39625 7.17592 5.32257C7.16757 4.362 7.54134 3.65152 8.20858 2.97258C8.23676 2.94378 8.26493 2.91499 8.29397 2.88532C9.48957 1.75819 11.1687 1.43792 12.7513 1.42858C12.848 1.42779 12.9447 1.4265 13.0413 1.42466C14.4619 1.39794 15.5483 1.81046 16.7122 2.59614C16.9675 2.76633 17.2269 2.93013 17.4857 3.09488C17.5855 3.15854 17.6853 3.22224 17.7851 3.28598C17.8301 3.31447 17.875 3.34296 17.9213 3.37232C18.0184 3.43544 18.1107 3.50147 18.2035 3.57048C18.3205 3.65081 18.3205 3.65081 18.4464 3.63983C18.595 3.58147 18.716 3.50589 18.8489 3.41704C18.9082 3.37791 18.9674 3.33882 19.0268 3.29977C19.0594 3.27814 19.0921 3.25651 19.1258 3.23422C19.3773 3.06936 19.6322 2.90976 19.8863 2.74891C20.0949 2.61653 20.3028 2.4834 20.508 2.34578C22.9102 0.737716 26.5255 1.13255 28.6756 3.02198Z" fill="#F55B47"/>
<path d="M0.0484402 14.1406C0.109731 14.171 0.170994 14.2015 0.232244 14.232C0.283422 14.2574 0.283422 14.2574 0.335634 14.2833C0.439752 14.3364 0.538877 14.3942 0.637394 14.457C0.672875 14.4795 0.708355 14.502 0.74491 14.5252C0.800311 14.5608 0.800311 14.5608 0.856831 14.597C0.896441 14.6222 0.936051 14.6474 0.976861 14.6734C1.26096 14.8545 1.54354 15.0379 1.82598 15.2216C2.16605 15.4421 2.5101 15.6561 2.85407 15.8704C3.17684 16.0716 3.49836 16.2746 3.81894 16.4793C4.23484 16.7447 4.65265 17.007 5.07127 17.2682C5.36727 17.4528 5.66284 17.6382 5.95775 17.8246C5.99431 17.8477 6.03087 17.8708 6.06855 17.8947C6.21474 17.9871 6.3609 18.0796 6.50701 18.1722C6.93806 18.4454 7.37002 18.7169 7.80422 18.985C8.40303 19.3549 8.99766 19.7311 9.59111 20.1095C10.1464 20.4635 10.7041 20.8134 11.2629 21.1618C11.5022 21.311 11.7413 21.4605 11.9804 21.61C12.0759 21.6697 12.1713 21.7294 12.2668 21.789C12.4577 21.9083 12.6486 22.0277 12.8395 22.147C12.9104 22.1913 12.9104 22.1913 12.9827 22.2365C13.0781 22.2961 13.1735 22.3557 13.2688 22.4153C13.5086 22.5652 13.7484 22.715 13.9883 22.8646C14.493 23.1793 14.9963 23.496 15.4977 23.816C15.8274 24.0263 16.1588 24.234 16.4907 24.4409C17.2891 24.9388 17.2891 24.9388 17.5304 25.1032C17.6541 25.1841 17.7777 25.2465 17.913 25.3056C18.1808 25.4326 18.4538 25.5669 18.5644 25.8575C18.635 26.2178 18.6121 26.5838 18.5984 26.9487C18.5968 27.0667 18.5957 27.1847 18.5949 27.3027C18.5918 27.6121 18.5838 27.9212 18.5748 28.2304C18.5665 28.5465 18.5628 28.8626 18.5587 29.1787C18.5501 29.798 18.5364 30.4171 18.5191 31.0363C18.336 30.9476 18.1702 30.839 18.0019 30.7253C17.9362 30.6812 17.8704 30.6371 17.8047 30.593C17.7532 30.5583 17.7532 30.5583 17.7006 30.523C17.075 30.1025 16.4455 29.6898 15.8075 29.2883C15.4534 29.0654 15.1022 28.8386 14.7548 28.6055C14.7042 28.5716 14.6537 28.5378 14.6016 28.5029C14.5011 28.4354 14.4008 28.3678 14.3005 28.3001C14.094 28.1613 13.889 28.0258 13.6697 27.9079C13.4717 27.8012 13.2923 27.6756 13.1094 27.5451C12.8831 27.3872 12.6476 27.2438 12.4129 27.0987C12.316 27.0386 12.2192 26.9784 12.1223 26.9183C12.0749 26.8888 12.0275 26.8594 11.9787 26.8291C11.6231 26.6072 11.2704 26.3807 10.9185 26.1531C10.8664 26.1195 10.8664 26.1195 10.8132 26.0851C10.6234 25.9621 10.4346 25.8377 10.2471 25.7111C9.90687 25.4817 9.5607 25.263 9.21219 25.0464C8.87229 24.8352 8.53473 24.622 8.20323 24.3979C7.91919 24.2065 7.63055 24.0225 7.34185 23.8383C6.85464 23.5274 6.36933 23.2138 5.8851 22.8982C5.71066 22.7847 5.53592 22.6716 5.36115 22.5586C5.31173 22.5267 5.31173 22.5267 5.26131 22.4941C5.19538 22.4514 5.12945 22.4088 5.06352 22.3662C4.86108 22.2353 4.6587 22.1043 4.45632 21.9733C4.2927 21.8674 4.12905 21.7616 3.96529 21.6559C3.654 21.4549 3.34316 21.2532 3.03311 21.0503C3.00599 21.0326 2.97887 21.0149 2.95093 20.9966C2.81622 20.9084 2.68153 20.8202 2.54689 20.7319C2.31222 20.5782 2.07719 20.4252 1.84029 20.275C1.56578 20.1009 1.29359 19.9233 1.02168 19.7452C0.939624 19.6915 0.85754 19.6378 0.775451 19.5841C0.628489 19.4879 0.481533 19.3918 0.334807 19.2952C0.285379 19.2717 0.235951 19.2482 0.185025 19.2239C0.035418 19.0929 0.0278399 19.0785 0.0140032 18.8929C0.013173 18.8043 0.0139349 18.7156 0.0159302 18.627C0.0158675 18.5543 0.0158675 18.5543 0.0158035 18.4802C0.0160031 18.3201 0.0182309 18.16 0.0204746 17.9999C0.0210087 17.8889 0.0214164 17.7778 0.0217025 17.6668C0.022796 17.3746 0.0256093 17.0824 0.0287769 16.7902C0.0317061 16.4921 0.0330142 16.1939 0.0344574 15.8957C0.0375288 15.3107 0.0424166 14.7257 0.0484402 14.1406Z" fill="#B1B4B8"/>
<path opacity="0.4" d="M37.1781 14.1406C37.1168 14.171 37.0556 14.2015 36.9943 14.232C36.9431 14.2574 36.9431 14.2574 36.8909 14.2833C36.7868 14.3364 36.6877 14.3942 36.5892 14.457C36.5537 14.4795 36.5182 14.502 36.4817 14.5252C36.4263 14.5608 36.4263 14.5608 36.3697 14.597C36.3301 14.6222 36.2905 14.6474 36.2497 14.6734C35.9656 14.8545 35.683 15.0379 35.4006 15.2216C35.0605 15.4421 34.7165 15.6561 34.3725 15.8704C34.0497 16.0716 33.7282 16.2746 33.4076 16.4793C32.9917 16.7447 32.5739 17.007 32.1553 17.2682C31.8593 17.4528 31.5637 17.6382 31.2688 17.8246C31.2323 17.8477 31.1957 17.8708 31.158 17.8947C31.0118 17.9871 30.8657 18.0796 30.7196 18.1722C30.2885 18.4454 29.8565 18.7169 29.4223 18.985C28.8235 19.3549 28.2289 19.7311 27.6355 20.1095C27.0802 20.4635 26.5224 20.8134 25.9636 21.1618C25.7243 21.311 25.4853 21.4605 25.2462 21.61C25.1507 21.6697 25.0552 21.7294 24.9598 21.789C24.7689 21.9083 24.578 22.0277 24.3871 22.147C24.3162 22.1913 24.3162 22.1913 24.2438 22.2365C24.1485 22.2961 24.0531 22.3557 23.9577 22.4153C23.718 22.5652 23.4782 22.715 23.2382 22.8646C22.7336 23.1793 22.2302 23.496 21.7289 23.816C21.3991 24.0263 21.0678 24.234 20.7359 24.4409C19.9375 24.9388 19.9375 24.9388 19.6961 25.1032C19.5725 25.1841 19.4488 25.2465 19.3135 25.3056C19.0457 25.4326 18.7727 25.5669 18.6622 25.8575C18.5916 26.2178 18.6144 26.5838 18.6282 26.9487C18.6297 27.0667 18.6309 27.1847 18.6317 27.3027C18.6348 27.6121 18.6427 27.9212 18.6517 28.2304C18.6601 28.5465 18.6637 28.8626 18.6678 29.1787C18.6765 29.798 18.6902 30.4171 18.7074 31.0363C18.8905 30.9476 19.0563 30.839 19.2246 30.7253C19.2904 30.6812 19.3561 30.6371 19.4219 30.593C19.4734 30.5583 19.4734 30.5583 19.5259 30.523C20.1516 30.1025 20.7811 29.6898 21.4191 29.2883C21.7732 29.0654 22.1243 28.8386 22.4718 28.6055C22.5223 28.5716 22.5729 28.5378 22.625 28.5029C22.7254 28.4354 22.8258 28.3678 22.926 28.3001C23.1326 28.1613 23.3376 28.0258 23.5569 27.9079C23.7548 27.8012 23.9343 27.6756 24.1171 27.5451C24.3435 27.3872 24.5789 27.2438 24.8136 27.0987C24.9105 27.0386 25.0074 26.9784 25.1043 26.9183C25.1517 26.8888 25.199 26.8594 25.2479 26.8291C25.6034 26.6072 25.9562 26.3807 26.3081 26.1531C26.3602 26.1195 26.3602 26.1195 26.4133 26.0851C26.6032 25.9621 26.792 25.8377 26.9795 25.7111C27.3197 25.4817 27.6659 25.263 28.0144 25.0464C28.3543 24.8352 28.6918 24.622 29.0233 24.3979C29.3074 24.2065 29.596 24.0225 29.8847 23.8383C30.3719 23.5274 30.8572 23.2138 31.3415 22.8982C31.5159 22.7847 31.6906 22.6716 31.8654 22.5586C31.9148 22.5267 31.9148 22.5267 31.9653 22.4941C32.0312 22.4514 32.0971 22.4088 32.163 22.3662C32.3655 22.2353 32.5679 22.1043 32.7702 21.9733C32.9339 21.8674 33.0975 21.7616 33.2613 21.6559C33.5726 21.4549 33.8834 21.2532 34.1935 21.0503C34.2206 21.0326 34.2477 21.0149 34.2756 20.9966C34.4103 20.9084 34.545 20.8202 34.6797 20.7319C34.9143 20.5782 35.1494 20.4252 35.3863 20.275C35.6608 20.1009 35.933 19.9233 36.2049 19.7452C36.2869 19.6915 36.369 19.6378 36.4511 19.5841C36.5981 19.4879 36.745 19.3918 36.8918 19.2952C36.9412 19.2717 36.9906 19.2482 37.0415 19.2239C37.1911 19.0929 37.1987 19.0785 37.2126 18.8929C37.2134 18.8043 37.2126 18.7156 37.2106 18.627C37.2107 18.5543 37.2107 18.5543 37.2108 18.4802C37.2106 18.3201 37.2083 18.16 37.2061 17.9999C37.2056 17.8889 37.2051 17.7778 37.2049 17.6668C37.2038 17.3746 37.201 17.0824 37.1978 16.7902C37.1949 16.4921 37.1935 16.1939 37.1921 15.8957C37.189 15.3107 37.1841 14.7257 37.1781 14.1406Z" fill="#B1B4B8"/>
<path d="M7.20654 5.4541C7.22229 5.4541 7.23804 5.4541 7.25427 5.4541C7.27846 5.52957 7.30225 5.60516 7.32586 5.68081C7.33915 5.72289 7.35244 5.76497 7.36613 5.80833C7.39745 5.93138 7.39745 5.93138 7.39745 6.12229C7.42895 6.12229 7.46045 6.12229 7.49291 6.12229C7.52494 6.1918 7.55671 6.26142 7.58836 6.3311C7.60608 6.36986 7.6238 6.40862 7.64206 6.44856C7.68382 6.55184 7.68382 6.55184 7.68382 6.6473C7.73107 6.66305 7.77832 6.6788 7.827 6.69503C7.89264 6.78911 7.95597 6.88483 8.01791 6.98139C8.18252 7.19365 8.35436 7.36073 8.56678 7.5243C8.61078 7.55844 8.61078 7.55844 8.65567 7.59328C8.91224 7.78917 9.18052 7.95984 9.45879 8.12344C9.62393 8.22119 9.78725 8.32195 9.95089 8.42218C9.9868 8.44411 10.0227 8.46604 10.0597 8.48863C10.6684 8.8605 11.2743 9.23683 11.8789 9.61536C12.4139 9.95008 12.9506 10.282 13.4887 10.6117C13.7408 10.7665 13.9906 10.9246 14.2404 11.083C14.5368 11.2708 14.8347 11.4551 15.1363 11.6343C15.4453 11.8184 15.7507 12.0084 16.0561 12.1984C16.2988 12.3493 16.5427 12.4978 16.788 12.6445C16.9218 12.7246 17.0548 12.8059 17.1876 12.8877C17.2393 12.9195 17.291 12.9513 17.3442 12.9841C17.4699 13.0619 17.5951 13.1405 17.7201 13.2194C17.7718 13.2519 17.7718 13.2519 17.8245 13.2852C17.892 13.3277 17.9594 13.3705 18.0268 13.4133C18.1577 13.4958 18.2752 13.5664 18.4226 13.6156C18.4226 15.8678 18.4226 18.1201 18.4226 20.4406C18.201 20.3963 18.1338 20.371 17.9632 20.2438C17.6527 20.0187 17.3296 19.8164 17.0038 19.6144C16.694 19.422 16.3861 19.2279 16.0839 19.0237C15.376 18.5465 14.6426 18.1071 13.9165 17.6584C13.5292 17.4188 13.144 17.1757 12.7593 16.9319C12.571 16.8126 12.3826 16.6937 12.1941 16.5747C12.1185 16.527 12.043 16.4792 11.9674 16.4315C11.9113 16.3961 11.9113 16.3961 11.854 16.3599C11.684 16.2525 11.684 16.2525 11.514 16.1451C11.4765 16.1215 11.4391 16.0979 11.4005 16.0735C11.3253 16.026 11.25 15.9784 11.1748 15.9309C10.9811 15.8086 10.7874 15.6863 10.5937 15.564C9.86456 15.1037 9.86456 15.1037 9.54558 14.8997C9.42537 14.8236 9.30475 14.7482 9.18389 14.673C8.36135 14.1604 8.36135 14.1604 8.06564 13.9019C8.0231 13.8669 8.0231 13.8669 7.97969 13.8311C7.57699 13.4703 7.24002 12.8629 7.19367 12.3191C7.18896 12.1384 7.1888 11.958 7.19028 11.7773C7.19032 11.7081 7.1903 11.6389 7.19022 11.5697C7.19018 11.3831 7.19102 11.1965 7.19202 11.0098C7.19292 10.8143 7.193 10.6188 7.19317 10.4233C7.19361 10.0537 7.19479 9.68402 7.19623 9.31436C7.19783 8.89329 7.19862 8.47222 7.19933 8.05115C7.20083 7.18546 7.20334 6.31978 7.20654 5.4541Z" fill="#AE2524"/>
<path d="M29.6386 5.78809C29.6544 5.78809 29.6701 5.78809 29.6864 5.78809C29.692 6.64318 29.6962 7.49827 29.6987 8.35338C29.7 8.75047 29.7016 9.14754 29.7044 9.54463C29.7068 9.89094 29.7083 10.2372 29.7088 10.5836C29.7091 10.7667 29.7098 10.9499 29.7116 11.1331C29.7132 11.3059 29.7137 11.4787 29.7134 11.6516C29.7135 11.7444 29.7147 11.8372 29.7161 11.93C29.7116 12.6909 29.3482 13.263 28.821 13.7851C28.5604 14.0336 28.2723 14.2349 27.9682 14.4268C27.9384 14.4456 27.9086 14.4644 27.8779 14.4838C27.7503 14.564 27.6225 14.6438 27.4943 14.723C27.2802 14.8556 27.07 14.9927 26.8615 15.1338C26.531 15.3569 26.1927 15.5664 25.8532 15.7754C25.5657 15.9524 25.2807 16.1324 24.9973 16.3158C24.7713 16.4619 24.5441 16.6062 24.317 16.7506C24.2722 16.7791 24.2274 16.8075 24.1813 16.8369C24.0894 16.8953 23.9974 16.9538 23.9055 17.0122C23.6847 17.1526 23.4639 17.2932 23.2431 17.4337C23.1783 17.4749 23.1783 17.4749 23.1123 17.5169C22.8917 17.6573 22.6711 17.7977 22.4506 17.9382C22.0022 18.2237 21.5535 18.5087 21.1039 18.7922C20.8604 18.9458 20.6176 19.1002 20.375 19.2551C19.9721 19.5122 19.5682 19.7676 19.1624 20.0199C19.121 20.0457 19.0797 20.0715 19.0371 20.0981C18.9788 20.1343 18.9788 20.1343 18.9193 20.1711C18.8685 20.2026 18.8685 20.2026 18.8168 20.2347C18.6882 20.3094 18.5558 20.3745 18.4226 20.4405C18.398 19.5996 18.3795 18.7588 18.3682 17.9175C18.3628 17.5269 18.3554 17.1364 18.3434 16.7459C18.3329 16.4052 18.3261 16.0647 18.3238 15.7238C18.3224 15.5435 18.3193 15.3636 18.3116 15.1834C18.2668 14.0933 18.2668 14.0933 18.5236 13.7777C18.7701 13.5646 19.0432 13.4234 19.3405 13.2938C19.542 13.202 19.7249 13.0842 19.9111 12.9652C19.9812 12.9224 20.0513 12.8797 20.1216 12.8373C20.3761 12.6821 20.6279 12.5226 20.8796 12.3629C21.1863 12.1685 21.4942 11.976 21.8023 11.7839C22.3483 11.4431 22.8917 11.0984 23.434 10.7518C23.4811 10.7217 23.5281 10.6916 23.5766 10.6606C23.8254 10.5015 24.0742 10.3423 24.3229 10.183C24.5267 10.0525 24.7305 9.92208 24.9345 9.79182C25.4753 9.44624 26.015 9.09913 26.5527 8.7487C26.7351 8.62989 26.9178 8.51166 27.1006 8.39369C27.2331 8.30814 27.3654 8.22223 27.4977 8.13633C27.5789 8.08381 27.6605 8.03189 27.7422 7.98002C28.6077 7.42156 29.2428 6.75199 29.6386 5.78809Z" fill="#F34938"/>
<path d="M29.449 4.11865C29.5444 4.16638 29.5444 4.16638 29.5834 4.25494C29.601 4.31003 29.601 4.31003 29.619 4.36624C29.6309 4.40236 29.6427 4.43847 29.655 4.47568C29.7203 4.71652 29.7413 4.94671 29.7411 5.19577C29.7412 5.28913 29.7412 5.28913 29.7413 5.38437C29.7411 5.45276 29.7409 5.52114 29.7407 5.58952C29.7407 5.66198 29.7407 5.73444 29.7408 5.80689C29.7408 6.0031 29.7405 6.19932 29.7402 6.39553C29.7399 6.60077 29.7398 6.806 29.7398 7.01124C29.7396 7.39967 29.7392 7.7881 29.7388 8.17652C29.7382 8.61883 29.738 9.06113 29.7377 9.50343C29.7372 10.4131 29.7364 11.3227 29.7353 12.2324C29.7196 12.2324 29.7038 12.2324 29.6876 12.2324C29.6719 10.1534 29.6561 8.07434 29.6399 5.93231C29.5454 6.12131 29.4509 6.31032 29.3535 6.50504C29.2294 6.67118 29.1069 6.82649 28.9717 6.98232C28.9428 7.01807 28.914 7.05381 28.8842 7.09064C28.4522 7.60999 27.8782 7.95436 27.3109 8.30658C27.0485 8.46975 26.79 8.63851 26.5316 8.80791C25.9978 9.15729 25.4607 9.50154 24.9229 9.84481C24.7207 9.97396 24.5187 10.1034 24.3166 10.2328C23.4939 10.7598 22.6699 11.2849 21.8435 11.806C21.6934 11.9006 21.5435 11.9955 21.3938 12.0905C21.026 12.3237 20.6573 12.555 20.2852 12.7813C19.9803 12.9667 19.6772 13.1546 19.3754 13.345C19.3391 13.3679 19.3027 13.3908 19.2653 13.4144C19.0429 13.5551 18.8241 13.7001 18.6076 13.8498C18.5193 13.9029 18.5193 13.9029 18.4238 13.9029C18.4289 13.7972 18.4289 13.7972 18.4716 13.6642C18.5714 13.5801 18.6628 13.5144 18.7728 13.4465C18.8045 13.4261 18.8362 13.4058 18.8688 13.3849C19.2046 13.1715 19.5471 12.9688 19.889 12.7656C20.2761 12.5351 20.658 12.2961 21.0404 12.0579C21.1138 12.0126 21.1875 11.9679 21.2615 11.9237C21.3842 11.8498 21.505 11.7738 21.6257 11.6968C21.6947 11.6527 21.6947 11.6527 21.7651 11.6078C21.8122 11.5777 21.8594 11.5475 21.908 11.5165C21.9748 11.4738 21.9748 11.4738 22.043 11.4302C22.183 11.3407 22.3229 11.2511 22.4628 11.1615C22.5676 11.0944 22.6725 11.0273 22.7773 10.9601C22.8039 10.9431 22.8305 10.9261 22.858 10.9085C23.0455 10.7885 23.233 10.6685 23.4205 10.5485C23.5239 10.4824 23.6272 10.4162 23.7306 10.3501C23.7809 10.3179 23.8312 10.2857 23.883 10.2526C24.1377 10.0896 24.3922 9.92631 24.6463 9.76247C24.8617 9.62376 25.078 9.48681 25.2949 9.35049C25.6374 9.13511 25.9772 8.9168 26.3128 8.69068C26.5549 8.52824 26.8008 8.37236 27.0477 8.21728C27.1959 8.12389 27.344 8.03041 27.4921 7.93688C27.5213 7.91854 27.5504 7.9002 27.5804 7.8813C27.9327 7.6585 28.2412 7.41357 28.5421 7.12551C28.579 7.09222 28.6158 7.05894 28.6538 7.02464C29.1809 6.53182 29.5896 5.83864 29.6151 5.10487C29.6172 4.875 29.6142 4.67695 29.5191 4.46598C29.449 4.30956 29.449 4.30956 29.449 4.11865Z" fill="#F89883"/>
<path d="M29.4475 4.11865C29.543 4.16638 29.543 4.16638 29.582 4.25494C29.5937 4.29167 29.6055 4.3284 29.6176 4.36624C29.6294 4.40236 29.6413 4.43847 29.6536 4.47568C29.7189 4.71652 29.7399 4.94671 29.7397 5.19577C29.7397 5.25801 29.7398 5.32025 29.7399 5.38437C29.7397 5.45276 29.7395 5.52114 29.7393 5.58952C29.7393 5.66198 29.7393 5.73444 29.7394 5.80689C29.7394 6.0031 29.7391 6.19932 29.7388 6.39553C29.7385 6.60077 29.7384 6.806 29.7384 7.01124C29.7382 7.39967 29.7378 7.7881 29.7373 8.17652C29.7368 8.61883 29.7366 9.06113 29.7363 9.50343C29.7358 10.4131 29.735 11.3227 29.7339 12.2324C29.7182 12.2324 29.7024 12.2324 29.6862 12.2324C29.6704 10.1534 29.6547 8.07434 29.6385 5.93231C29.544 6.12131 29.4495 6.31032 29.3521 6.50504C29.228 6.67118 29.1055 6.82649 28.9703 6.98232C28.927 7.03594 28.927 7.03594 28.8828 7.09064C28.4948 7.55712 27.9912 7.88145 27.4847 8.20535C27.4253 8.24354 27.4253 8.24354 27.3647 8.2825C27.3274 8.30589 27.2901 8.32928 27.2517 8.35338C27.2018 8.38482 27.2018 8.38482 27.1508 8.41689C27.0612 8.46189 27.0612 8.46189 26.918 8.46189C26.9275 8.37613 26.9275 8.37613 26.9657 8.27098C27.0651 8.19267 27.0651 8.19267 27.1954 8.11586C27.2429 8.08694 27.2904 8.05803 27.3393 8.02823C27.3893 7.99809 27.4392 7.96794 27.4907 7.93688C27.8739 7.69617 28.2138 7.4384 28.5407 7.12551C28.5776 7.09222 28.6144 7.05894 28.6524 7.02464C29.1794 6.53182 29.5882 5.83864 29.6137 5.10487C29.6158 4.875 29.6128 4.67695 29.5176 4.46598C29.4475 4.30956 29.4475 4.30956 29.4475 4.11865Z" fill="#EF9E8B"/>
<path d="M7.20704 5.4541C7.22279 5.4541 7.23854 5.4541 7.25476 5.4541C7.42399 5.9638 7.42399 5.9638 7.39795 6.21775C7.3822 6.2335 7.36645 6.24925 7.35022 6.26547C7.3443 6.35544 7.34172 6.44562 7.34042 6.53576C7.33947 6.59431 7.33852 6.65285 7.33754 6.71317C7.33672 6.77846 7.33592 6.84376 7.33512 6.90906C7.33413 6.97708 7.33313 7.0451 7.33211 7.11312C7.32942 7.29737 7.32707 7.48163 7.32481 7.66589C7.32338 7.78039 7.32186 7.89489 7.32031 8.00938C7.29989 9.52813 7.29693 11.0467 7.30249 12.5656C7.20704 12.4701 7.20704 12.4701 7.19529 12.3488C7.19538 12.2971 7.19547 12.2455 7.19556 12.1923C7.19543 12.1331 7.1953 12.0739 7.19516 12.013C7.1955 11.9471 7.19584 11.8811 7.1962 11.8152C7.19623 11.7461 7.19621 11.6769 7.19616 11.6078C7.19613 11.4198 7.19669 11.2317 7.19736 11.0437C7.19795 10.8473 7.19801 10.6509 7.19812 10.4545C7.19842 10.0825 7.1992 9.71046 7.20016 9.33842C7.20123 8.91493 7.20175 8.49145 7.20223 8.06796C7.20323 7.19668 7.20491 6.32539 7.20704 5.4541Z" fill="#972A2A"/>
<path d="M21.1443 11.9922C21.1679 12.0394 21.1679 12.0394 21.192 12.0876C21.1605 12.0876 21.129 12.0876 21.0966 12.0876C21.0966 12.1191 21.0966 12.1506 21.0966 12.1831C21.0651 12.2146 21.0336 12.2461 21.0011 12.2786C20.974 12.3081 20.9469 12.3377 20.9189 12.3682C20.7914 12.487 20.6531 12.5711 20.503 12.6574C20.439 12.695 20.3752 12.7327 20.3113 12.7704C20.2767 12.7908 20.2421 12.8112 20.2064 12.8322C19.9976 12.9566 19.7909 13.0844 19.5842 13.2122C19.5414 13.2387 19.4985 13.2652 19.4544 13.2924C19.171 13.4683 18.8927 13.6495 18.6187 13.8396C18.5193 13.9013 18.5193 13.9013 18.4238 13.9013C18.4289 13.7956 18.4289 13.7956 18.4716 13.6627C18.5714 13.5785 18.6628 13.5128 18.7728 13.4449C18.8204 13.4144 18.8204 13.4144 18.8688 13.3833C19.2043 13.1702 19.5464 12.9676 19.8881 12.7646C20.3104 12.513 20.7271 12.2521 21.1443 11.9922Z" fill="#F9907B"/>
<path d="M29.6387 5.78809C29.6545 5.78809 29.6702 5.78809 29.6865 5.78809C29.6909 6.64483 29.6943 7.50157 29.6964 8.35832C29.6973 8.75616 29.6987 9.15399 29.7009 9.55183C29.7028 9.89873 29.704 10.2456 29.7044 10.5925C29.7047 10.7761 29.7053 10.9596 29.7067 11.1432C29.708 11.3163 29.7084 11.4893 29.7081 11.6624C29.7081 11.7555 29.7092 11.8487 29.7102 11.9419C29.7086 12.3006 29.6581 12.5781 29.4956 12.8995C29.4798 12.8995 29.4641 12.8995 29.4478 12.8995C29.4419 12.7623 29.4419 12.7623 29.4478 12.6132C29.4951 12.5659 29.4951 12.5659 29.5433 12.5177C29.5949 12.3682 29.5969 12.2274 29.5968 12.0701C29.5968 12.018 29.5969 11.966 29.597 11.9123C29.5968 11.8554 29.5966 11.7986 29.5964 11.7399C29.5964 11.6799 29.5964 11.6198 29.5965 11.5579C29.5965 11.3933 29.5962 11.2288 29.5959 11.0642C29.5956 10.8921 29.5955 10.7201 29.5955 10.548C29.5953 10.2223 29.5949 9.8966 29.5945 9.57088C29.5939 9.20002 29.5937 8.82917 29.5934 8.45831C29.5929 7.69551 29.5921 6.93271 29.591 6.16991C29.5753 6.21716 29.5595 6.26441 29.5433 6.31309C29.5118 6.31309 29.4803 6.31309 29.4478 6.31309C29.4616 6.27962 29.4754 6.24615 29.4896 6.21167C29.5443 6.07185 29.5923 5.93083 29.6387 5.78809Z" fill="#E14F40"/>
<path d="M7.25391 5.69238C7.36729 5.80576 7.36694 5.85003 7.38217 6.0056C7.3863 6.04405 7.39042 6.0825 7.39467 6.12212C7.39587 6.16928 7.39587 6.16928 7.39709 6.21739C7.38134 6.23314 7.36559 6.24889 7.34936 6.26512C7.34344 6.36904 7.34087 6.47315 7.33956 6.57722C7.33909 6.60982 7.33862 6.64241 7.33813 6.67599C7.33662 6.7842 7.33544 6.8924 7.33426 7.00061C7.33328 7.07545 7.33228 7.15028 7.33126 7.22512C7.32862 7.42246 7.32626 7.61979 7.32396 7.81713C7.32157 8.01835 7.31891 8.21957 7.31627 8.42079C7.31113 8.81588 7.30629 9.21097 7.30163 9.60607C7.28588 9.60607 7.27013 9.60607 7.25391 9.60607C7.25391 8.31455 7.25391 7.02304 7.25391 5.69238Z" fill="#950F11"/>
<path d="M29.2561 6.40869C29.2718 6.45594 29.2876 6.50319 29.3038 6.55187C29.1554 6.79798 28.949 7.03242 28.7311 7.22006C28.6838 7.22006 28.6366 7.22006 28.5879 7.22006C28.6154 7.05456 28.6695 6.9792 28.7907 6.86509C28.8206 6.83648 28.8505 6.80787 28.8813 6.7784C28.9251 6.73714 28.9251 6.73714 28.9697 6.69506C29.0156 6.64949 29.0614 6.60378 29.1069 6.55784C29.1566 6.50812 29.2064 6.45841 29.2561 6.40869Z" fill="#F6AA93"/>
<path d="M26.8711 1.96973C27.3378 2.04012 27.7694 2.33254 28.1478 2.60212C28.1905 2.63248 28.1905 2.63248 28.234 2.66345C28.3645 2.75917 28.4508 2.83588 28.5416 2.97201C28.412 2.90991 28.2934 2.84157 28.1747 2.76078C27.8169 2.52099 27.4809 2.3044 27.0726 2.16064C26.9665 2.11291 26.9665 2.11291 26.8711 1.96973Z" fill="#E27869"/>
<path d="M8.54234 2.68555C8.58959 2.7013 8.63684 2.71705 8.68552 2.73327C8.44927 2.96953 8.21301 3.20578 7.9696 3.44919C7.95385 3.41769 7.9381 3.38619 7.92188 3.35374C8.04895 3.07576 8.29128 2.85292 8.54234 2.68555Z" fill="#EA5041"/>
<path d="M29.4473 4.11865C29.5427 4.16638 29.5427 4.16638 29.6203 4.33939C29.7222 4.65541 29.6976 4.98401 29.6859 5.31185C29.6702 5.31185 29.6544 5.31185 29.6382 5.31185C29.6364 5.26749 29.6346 5.22313 29.6328 5.17743C29.6155 4.85306 29.5923 4.59972 29.4473 4.30956C29.4473 4.24656 29.4473 4.18356 29.4473 4.11865Z" fill="#E28172"/>
<path d="M29.686 4.88184C29.7017 4.88184 29.7175 4.88184 29.7337 4.88184C29.7337 5.11809 29.7337 5.35434 29.7337 5.59775C29.7022 5.59775 29.6707 5.59775 29.6382 5.59775C29.6225 5.645 29.6067 5.69225 29.5905 5.74094C29.5845 5.41877 29.5845 5.41877 29.6382 5.31139C29.649 5.23804 29.6577 5.1644 29.6651 5.09065C29.6691 5.05164 29.6731 5.01263 29.6772 4.97244C29.6801 4.94254 29.683 4.91264 29.686 4.88184Z" fill="#EDACA0"/>
<path d="M7.25426 5.69238C7.36869 5.80682 7.36608 5.85145 7.37954 6.00858C7.38311 6.04759 7.38668 6.08659 7.39036 6.12678C7.3927 6.15668 7.39503 6.18658 7.39744 6.21739C7.35019 6.24101 7.35019 6.24101 7.30199 6.26512C7.24174 6.14462 7.24956 6.05931 7.25128 5.92506C7.25171 5.88162 7.25214 5.83818 7.25258 5.79343C7.25314 5.76009 7.25369 5.72674 7.25426 5.69238Z" fill="#A71514"/>
<path d="M29.591 12.3267C29.6225 12.3267 29.654 12.3267 29.6865 12.3267C29.665 12.4043 29.643 12.4819 29.6208 12.5593C29.6087 12.6025 29.5965 12.6457 29.5839 12.6902C29.5433 12.8039 29.5433 12.8039 29.4478 12.8994C29.4419 12.7622 29.4419 12.7622 29.4478 12.613C29.4793 12.5815 29.5108 12.55 29.5433 12.5176C29.574 12.4188 29.574 12.4188 29.591 12.3267Z" fill="#E15949"/>
<path d="M28.5411 2.97217C28.8715 3.18511 28.8715 3.18511 28.9707 3.30626C28.9707 3.33776 28.9707 3.36926 28.9707 3.40172C28.9234 3.38597 28.8762 3.37022 28.8275 3.35399C28.8275 3.32249 28.8275 3.29099 28.8275 3.25854C28.7979 3.24672 28.7684 3.23491 28.738 3.22274C28.6198 3.15323 28.5912 3.0973 28.5411 2.97217Z" fill="#E47E6D"/>
<path d="M29.5427 5.59668C29.6652 5.78045 29.6302 5.86327 29.5904 6.07396C29.5747 6.02671 29.5589 5.97946 29.5427 5.93077C29.5112 5.93077 29.4797 5.93077 29.4473 5.93077C29.4788 5.82052 29.5103 5.71027 29.5427 5.59668Z" fill="#F5998A"/>
<path d="M19.4736 3.06738C19.4259 3.21057 19.4259 3.21057 19.2827 3.30602C19.1783 3.28812 19.1783 3.28812 19.0918 3.25829C19.3662 3.06738 19.3662 3.06738 19.4736 3.06738Z" fill="#E26C5A"/>
</g>
<defs>
<linearGradient id="paint0_linear_52_8680" x1="18.6384" y1="1.68311" x2="18.6384" y2="25.7379" gradientUnits="userSpaceOnUse">
<stop stop-color="#E0E1E3"/>
<stop offset="1" stop-color="#7B7C7D"/>
</linearGradient>
<linearGradient id="paint1_linear_52_8680" x1="18.6384" y1="1.68311" x2="18.6384" y2="25.7379" gradientUnits="userSpaceOnUse">
<stop stop-color="#E0E1E3"/>
<stop offset="1" stop-color="#7B7C7D"/>
</linearGradient>
<clipPath id="clip0_52_8680">
<rect width="37.2277" height="29.7344" fill="white" transform="translate(0 1.30176)"/>
</clipPath>
</defs>
</svg>
