<svg width="183" height="25" viewBox="0 0 183 25" fill="none" xmlns="http://www.w3.org/2000/svg">
<path d="M41.8117 17.4502H37.0815V4.30281H41.6858C45.5707 4.30281 48.2505 6.98265 48.2505 10.9035C48.2505 14.7704 45.6246 17.4502 41.8117 17.4502ZM41.47 6.4251H39.3837V15.3279H41.5959C44.2218 15.3279 45.8225 13.6373 45.8225 10.9035C45.8225 8.11573 44.1858 6.4251 41.47 6.4251ZM52.2934 17.684C50.4049 17.684 49.2538 16.5869 49.2538 14.9142C49.2538 13.2776 50.4409 12.2524 52.5452 12.0905L55.207 11.8927V11.6948C55.207 10.4898 54.4876 10.0042 53.3725 10.0042C52.0776 10.0042 51.3581 10.5438 51.3581 11.479H49.4877C49.4877 9.55457 51.0704 8.29559 53.4804 8.29559C55.8725 8.29559 57.3473 9.59054 57.3473 12.0546V17.4502H55.4229L55.261 16.1373C54.8833 17.0545 53.6783 17.684 52.2934 17.684ZM53.0128 16.0293C54.3617 16.0293 55.225 15.22 55.225 13.8531V13.3855L53.3725 13.5294C52.0056 13.6553 51.484 14.1049 51.484 14.8243C51.484 15.6337 52.0236 16.0293 53.0128 16.0293ZM61.9798 17.4502H59.7856V10.3999H58.0769V8.56537H59.7856V5.79561H61.9798V8.56537H63.7064V10.3999H61.9798V17.4502ZM65.7459 6.78481C64.9905 6.78481 64.397 6.19129 64.397 5.45388C64.397 4.71648 64.9905 4.14094 65.7459 4.14094C66.4653 4.14094 67.0588 4.71648 67.0588 5.45388C67.0588 6.19129 66.4653 6.78481 65.7459 6.78481ZM64.6487 17.4502V8.56537H66.843V17.4502H64.6487ZM70.8825 17.4502H68.6883V8.56537H70.7206L70.9005 9.71644C71.458 8.81717 72.5372 8.29559 73.7422 8.29559C75.9724 8.29559 77.1234 9.68047 77.1234 11.9826V17.4502H74.9292V12.5042C74.9292 11.0114 74.1918 10.292 73.0587 10.292C71.7098 10.292 70.8825 11.2272 70.8825 12.6661V17.4502ZM78.354 12.8099C78.354 10.22 80.0446 8.2776 82.5806 8.2776C83.9115 8.2776 84.9547 8.83515 85.4762 9.78838L85.6021 8.56537H87.6345V17.0006C87.6345 19.9682 85.8539 21.8207 82.9763 21.8207C80.4223 21.8207 78.6777 20.3638 78.408 17.9898H80.6022C80.7461 19.1408 81.6274 19.8243 82.9763 19.8243C84.487 19.8243 85.4583 18.871 85.4583 17.3962V15.9214C84.9007 16.7488 83.8036 17.2703 82.5266 17.2703C80.0087 17.2703 78.354 15.3819 78.354 12.8099ZM80.5662 12.756C80.5662 14.2488 81.5194 15.3639 82.9583 15.3639C84.4691 15.3639 85.4043 14.3027 85.4043 12.756C85.4043 11.2452 84.487 10.202 82.9583 10.202C81.5015 10.202 80.5662 11.2992 80.5662 12.756ZM95.0066 6.78481C94.2512 6.78481 93.6577 6.19129 93.6577 5.45388C93.6577 4.71648 94.2512 4.14094 95.0066 4.14094C95.726 4.14094 96.3196 4.71648 96.3196 5.45388C96.3196 6.19129 95.726 6.78481 95.0066 6.78481ZM93.9095 17.4502V8.56537H96.1037V17.4502H93.9095ZM100.143 17.4502H97.949V8.56537H99.9814L100.161 9.71644C100.719 8.81717 101.798 8.29559 103.003 8.29559C105.233 8.29559 106.384 9.68047 106.384 11.9826V17.4502H104.19V12.5042C104.19 11.0114 103.453 10.292 102.319 10.292C100.971 10.292 100.143 11.2272 100.143 12.6661V17.4502ZM115.566 17.4502H113.372V10.3999H111.663V8.56537H113.372V5.79561H115.566V8.56537H117.292V10.3999H115.566V17.4502ZM120.429 17.4502H118.235V4.069H120.447V9.71644C121.005 8.85314 122.048 8.29559 123.325 8.29559C125.519 8.29559 126.67 9.68047 126.67 11.9826V17.4502H124.476V12.5042C124.476 11.0114 123.738 10.292 122.623 10.292C121.238 10.292 120.429 11.2632 120.429 12.5941V17.4502ZM132.379 17.684C129.735 17.684 127.883 15.7596 127.883 13.0078C127.883 10.22 129.699 8.29559 132.307 8.29559C134.969 8.29559 136.659 10.0761 136.659 12.8459V13.5114L129.969 13.5294C130.131 15.0941 130.958 15.8855 132.415 15.8855C133.62 15.8855 134.411 15.4178 134.663 14.5725H136.695C136.318 16.515 134.699 17.684 132.379 17.684ZM132.325 10.0941C131.03 10.0941 130.239 10.7956 130.023 12.1265H134.483C134.483 10.9035 133.638 10.0941 132.325 10.0941ZM143.877 17.4502H141.485L146.233 4.30281H148.589L153.337 17.4502H150.909L149.848 14.4106H144.938L143.877 17.4502ZM147.114 8.22365L145.621 12.4682H149.182L147.672 8.22365C147.564 7.88192 147.438 7.48624 147.402 7.21646C147.348 7.46826 147.24 7.86393 147.114 8.22365ZM154.24 21.5689V8.56537H156.272L156.416 9.91428C156.956 8.88911 158.125 8.29559 159.474 8.29559C161.974 8.29559 163.629 10.1121 163.629 12.8999C163.629 15.6696 162.118 17.684 159.474 17.684C158.143 17.684 156.992 17.1624 156.434 16.2632V21.5689H154.24ZM156.452 13.0078C156.452 14.6085 157.442 15.7056 158.952 15.7056C160.499 15.7056 161.416 14.5905 161.416 13.0078C161.416 11.4251 160.499 10.292 158.952 10.292C157.442 10.292 156.452 11.4071 156.452 13.0078ZM164.954 21.5689V8.56537H166.986L167.13 9.91428C167.67 8.88911 168.839 8.29559 170.188 8.29559C172.688 8.29559 174.342 10.1121 174.342 12.8999C174.342 15.6696 172.832 17.684 170.188 17.684C168.857 17.684 167.706 17.1624 167.148 16.2632V21.5689H164.954ZM167.166 13.0078C167.166 14.6085 168.155 15.7056 169.666 15.7056C171.213 15.7056 172.13 14.5905 172.13 13.0078C172.13 11.4251 171.213 10.292 169.666 10.292C168.155 10.292 167.166 11.4071 167.166 13.0078ZM174.984 14.7524H177.071C177.089 15.5257 177.664 16.0114 178.671 16.0114C179.696 16.0114 180.254 15.5977 180.254 14.9502C180.254 14.5006 180.02 14.1768 179.229 13.997L177.628 13.6193C176.027 13.2596 175.254 12.5042 175.254 11.0833C175.254 9.33874 176.729 8.29559 178.779 8.29559C180.776 8.29559 182.124 9.44666 182.142 11.1733H180.056C180.038 10.4179 179.535 9.93227 178.689 9.93227C177.826 9.93227 177.322 10.3279 177.322 10.9934C177.322 11.497 177.718 11.8207 178.473 12.0006L180.074 12.3783C181.567 12.72 182.322 13.4035 182.322 14.7704C182.322 16.5689 180.794 17.684 178.599 17.684C176.387 17.684 174.984 16.497 174.984 14.7524Z" fill="black"/>
<g clip-path="url(#clip0_24_246)">
<path opacity="0.3" d="M14.4586 1.6499L0.0557861 11.3074L14.4586 20.3346L28.8984 11.3259L14.4586 1.6499Z" fill="url(#paint0_linear_24_246)"/>
<path opacity="0.3" d="M14.4586 1.6499L0.0557861 11.3259H6.24694H28.8984L14.4586 1.6499Z" fill="url(#paint1_linear_24_246)"/>
<path d="M22.2744 2.68986C22.7317 3.10845 23.0569 3.6373 23.1068 4.26464C23.1111 4.41046 23.1119 4.55606 23.1114 4.70192C23.1116 4.75752 23.1119 4.81311 23.1122 4.8687C23.1129 5.01837 23.1128 5.16803 23.1126 5.3177C23.1125 5.44318 23.1127 5.56865 23.1129 5.69412C23.1135 5.99033 23.1134 6.28654 23.113 6.58275C23.1126 6.88727 23.1131 7.19177 23.1141 7.49628C23.1149 7.75881 23.1151 8.02134 23.1149 8.28387C23.1148 8.4402 23.1149 8.59652 23.1155 8.75284C23.1161 8.89989 23.1159 9.04691 23.1153 9.19395C23.1151 9.24757 23.1152 9.30119 23.1156 9.35481C23.1198 9.9691 22.9423 10.4507 22.5224 10.8984C22.2408 11.1835 21.9573 11.4177 21.6135 11.6231C21.5175 11.6822 21.4219 11.7418 21.3262 11.8015C21.3009 11.8173 21.2756 11.833 21.2495 11.8492C21.0797 11.9553 20.9128 12.0648 20.747 12.1769C20.5161 12.3326 20.2802 12.4787 20.0421 12.623C19.8329 12.7499 19.6265 12.8806 19.421 13.0136C19.2442 13.1281 19.0664 13.2409 18.8887 13.3539C18.8539 13.3761 18.8191 13.3982 18.7833 13.421C18.7119 13.4664 18.6405 13.5118 18.5691 13.5572C18.3975 13.6662 18.226 13.7754 18.0545 13.8845C18.021 13.9059 17.9875 13.9272 17.9529 13.9492C17.7816 14.0582 17.6102 14.1673 17.4389 14.2764C17.0907 14.4982 16.7422 14.7196 16.3929 14.9398C16.2038 15.0591 16.0152 15.179 15.8267 15.2993C15.4223 15.5574 15.0169 15.8138 14.6069 16.0628C14.5472 16.0998 14.4893 16.1397 14.432 16.1803C14.3141 16.2357 14.2483 16.2196 14.1248 16.1831C14.0363 16.1318 14.0363 16.1318 13.951 16.0672C13.7112 15.8915 13.4608 15.735 13.2081 15.5783C12.9675 15.4289 12.7284 15.2782 12.4936 15.1195C11.9437 14.7489 11.3741 14.4075 10.8101 14.059C10.5092 13.8729 10.2101 13.6841 9.91124 13.4947C9.76499 13.402 9.61858 13.3096 9.47219 13.2172C9.41349 13.1802 9.3548 13.1431 9.2961 13.106C9.25251 13.0785 9.25251 13.0785 9.20805 13.0504C9.12 12.9948 9.03195 12.9392 8.94391 12.8836C8.91483 12.8652 8.88575 12.8468 8.85579 12.8279C8.79733 12.791 8.73887 12.7541 8.68041 12.7172C8.52999 12.6221 8.37955 12.5271 8.2291 12.4322C7.66271 12.0747 7.66271 12.0747 7.41494 11.9162C7.32157 11.857 7.22788 11.7985 7.134 11.7401C6.49509 11.3419 6.49509 11.3419 6.2654 11.1412C6.24337 11.123 6.22134 11.1048 6.19864 11.0861C5.88216 10.8026 5.62322 10.3296 5.58756 9.90307C5.5831 9.74902 5.58218 9.59531 5.58252 9.44121C5.58225 9.3821 5.58193 9.32299 5.58157 9.26388C5.58075 9.10409 5.58064 8.94431 5.58071 8.78451C5.58071 8.65067 5.58039 8.51682 5.58008 8.38298C5.57937 8.06688 5.57926 7.75078 5.57951 7.43468C5.57976 7.10972 5.57891 6.78477 5.57754 6.45981C5.5764 6.17987 5.57598 5.89994 5.57612 5.62C5.5762 5.45322 5.576 5.28646 5.57509 5.11969C5.57426 4.96263 5.57434 4.8056 5.57509 4.64854C5.57521 4.59131 5.57503 4.53408 5.57449 4.47685C5.56801 3.73072 5.85834 3.17885 6.37662 2.65148C6.3985 2.62911 6.42039 2.60675 6.44294 2.58371C7.37163 1.7082 8.67587 1.45943 9.90516 1.45217C9.98027 1.45156 10.0554 1.45056 10.1305 1.44913C11.2339 1.42838 12.0778 1.7488 12.9819 2.35908C13.1801 2.49128 13.3816 2.61851 13.5826 2.74648C13.6602 2.79593 13.7377 2.84541 13.8152 2.89492C13.8501 2.91705 13.8851 2.93918 13.921 2.96198C13.9964 3.01101 14.0681 3.0623 14.1402 3.1159C14.2311 3.1783 14.2311 3.1783 14.3289 3.16978C14.4443 3.12444 14.5383 3.06574 14.6415 2.99672C14.6876 2.96632 14.7336 2.93596 14.7797 2.90563C14.8051 2.88883 14.8305 2.87202 14.8566 2.85471C15.052 2.72665 15.25 2.60269 15.4473 2.47775C15.6094 2.37492 15.7708 2.27151 15.9302 2.16461C17.7961 0.915544 20.6044 1.22224 22.2744 2.68986Z" fill="#F55B47"/>
<path d="M0.036772 11.3262C0.0843798 11.3498 0.131966 11.3734 0.179543 11.3971C0.219295 11.4169 0.219295 11.4169 0.259851 11.437C0.340725 11.4782 0.41772 11.5231 0.494245 11.5719C0.521804 11.5894 0.549363 11.6069 0.577758 11.6249C0.620791 11.6525 0.620791 11.6525 0.664693 11.6807C0.69546 11.7003 0.726227 11.7198 0.757927 11.74C0.978602 11.8807 1.1981 12.0232 1.41748 12.1658C1.68164 12.3371 1.94887 12.5033 2.21606 12.6697C2.46677 12.826 2.71651 12.9838 2.96552 13.1427C3.28857 13.3489 3.61311 13.5527 3.93828 13.7555C4.1682 13.899 4.39778 14.0429 4.62685 14.1877C4.65525 14.2057 4.68365 14.2236 4.71291 14.2421C4.82647 14.314 4.94 14.3858 5.05349 14.4577C5.38831 14.6699 5.72384 14.8808 6.0611 15.0891C6.52623 15.3763 6.98811 15.6686 7.44908 15.9625C7.88041 16.2375 8.31362 16.5093 8.74768 16.7799C8.93354 16.8958 9.11925 17.012 9.30497 17.1281C9.37912 17.1744 9.45326 17.2207 9.52741 17.2671C9.6757 17.3598 9.82399 17.4525 9.97228 17.5451C10.0273 17.5795 10.0273 17.5795 10.0835 17.6147C10.1576 17.661 10.2317 17.7073 10.3058 17.7536C10.492 17.87 10.6783 17.9863 10.8646 18.1025C11.2566 18.347 11.6476 18.593 12.037 18.8416C12.2932 19.0049 12.5505 19.1662 12.8084 19.3269C13.4285 19.7137 13.4285 19.7137 13.616 19.8414C13.712 19.9042 13.8081 19.9527 13.9132 19.9986C14.1212 20.0972 14.3332 20.2016 14.4191 20.4273C14.474 20.7072 14.4562 20.9915 14.4455 21.2749C14.4443 21.3665 14.4434 21.4582 14.4428 21.5499C14.4404 21.7902 14.4342 22.0303 14.4272 22.2705C14.4208 22.516 14.4179 22.7615 14.4147 23.0071C14.408 23.4881 14.3974 23.969 14.3839 24.4499C14.2417 24.3811 14.1129 24.2967 13.9822 24.2084C13.9311 24.1741 13.8801 24.1399 13.829 24.1056C13.789 24.0787 13.789 24.0787 13.7482 24.0513C13.2622 23.7246 12.7732 23.404 12.2777 23.0922C12.0026 22.919 11.7299 22.7428 11.46 22.5618C11.4207 22.5355 11.3814 22.5092 11.341 22.4821C11.263 22.4297 11.185 22.3772 11.1071 22.3246C10.9467 22.2168 10.7874 22.1116 10.6171 22.0199C10.4634 21.9371 10.324 21.8395 10.182 21.7381C10.0061 21.6155 9.82323 21.5041 9.64094 21.3914C9.56568 21.3447 9.49042 21.298 9.41518 21.2513C9.37837 21.2284 9.34157 21.2055 9.30365 21.182C9.02747 21.0096 8.75347 20.8337 8.4801 20.6569C8.43964 20.6308 8.43964 20.6308 8.39836 20.6041C8.25088 20.5086 8.10427 20.4119 7.95858 20.3136C7.69435 20.1354 7.42546 19.9655 7.15475 19.7973C6.89073 19.6332 6.62853 19.4677 6.37103 19.2935C6.15041 19.1449 5.9262 19.002 5.70196 18.8589C5.32352 18.6174 4.94655 18.3738 4.57042 18.1287C4.43493 18.0405 4.29919 17.9527 4.16344 17.8649C4.12505 17.8401 4.12505 17.8401 4.08589 17.8147C4.03468 17.7816 3.98347 17.7485 3.93226 17.7154C3.77501 17.6137 3.61781 17.512 3.46061 17.4102C3.33352 17.328 3.2064 17.2458 3.0792 17.1637C2.83741 17.0076 2.59596 16.8509 2.35513 16.6933C2.33406 16.6795 2.313 16.6658 2.2913 16.6516C2.18665 16.5831 2.08204 16.5145 1.97746 16.446C1.79517 16.3266 1.61261 16.2077 1.42859 16.091C1.21537 15.9558 1.00394 15.8179 0.792737 15.6796C0.729003 15.6378 0.665244 15.5961 0.601481 15.5544C0.487327 15.4797 0.373179 15.405 0.259209 15.33C0.220815 15.3118 0.182422 15.2935 0.142865 15.2747C0.026657 15.1729 0.0207707 15.1617 0.010023 15.0175C0.00937811 14.9487 0.00996994 14.8798 0.0115198 14.811C0.0114711 14.7545 0.0114711 14.7545 0.0114214 14.697C0.0115764 14.5726 0.0133069 14.4482 0.0150497 14.3239C0.0154646 14.2376 0.0157812 14.1514 0.0160034 14.0652C0.0168528 13.8382 0.0190381 13.6112 0.0214985 13.3843C0.0237738 13.1527 0.0247899 12.9211 0.0259109 12.6895C0.0282966 12.235 0.0320932 11.7806 0.036772 11.3262Z" fill="#B1B4B8"/>
<path opacity="0.4" d="M28.8785 11.3262C28.8309 11.3498 28.7833 11.3734 28.7357 11.3971C28.696 11.4169 28.696 11.4169 28.6554 11.437C28.5745 11.4782 28.4975 11.5231 28.421 11.5719C28.3934 11.5894 28.3659 11.6069 28.3375 11.6249C28.2945 11.6525 28.2945 11.6525 28.2506 11.6807C28.2198 11.7003 28.189 11.7198 28.1573 11.74C27.9367 11.8807 27.7172 12.0232 27.4978 12.1658C27.2336 12.3371 26.9664 12.5033 26.6992 12.6697C26.4485 12.826 26.1987 12.9838 25.9497 13.1427C25.6267 13.3489 25.3021 13.5527 24.977 13.7555C24.7471 13.899 24.5175 14.0429 24.2884 14.1877C24.26 14.2057 24.2316 14.2236 24.2023 14.2421C24.0888 14.314 23.9753 14.3858 23.8618 14.4577C23.5269 14.6699 23.1914 14.8808 22.8542 15.0891C22.389 15.3763 21.9271 15.6686 21.4662 15.9625C21.0348 16.2375 20.6016 16.5093 20.1676 16.7799C19.9817 16.8958 19.796 17.012 19.6103 17.1281C19.5361 17.1744 19.462 17.2207 19.3878 17.2671C19.2396 17.3598 19.0913 17.4525 18.943 17.5451C18.8879 17.5795 18.8879 17.5795 18.8317 17.6147C18.7576 17.661 18.6836 17.7073 18.6095 17.7536C18.4233 17.87 18.237 17.9863 18.0506 18.1025C17.6586 18.347 17.2676 18.593 16.8782 18.8416C16.6221 19.0049 16.3647 19.1662 16.1069 19.3269C15.4868 19.7137 15.4868 19.7137 15.2993 19.8414C15.2032 19.9042 15.1072 19.9527 15.0021 19.9986C14.7941 20.0972 14.582 20.2016 14.4961 20.4273C14.4413 20.7072 14.4591 20.9915 14.4698 21.2749C14.4709 21.3665 14.4718 21.4582 14.4725 21.5499C14.4749 21.7902 14.481 22.0303 14.488 22.2705C14.4945 22.516 14.4974 22.7615 14.5005 23.0071C14.5073 23.4881 14.5179 23.969 14.5313 24.4499C14.6735 24.3811 14.8023 24.2967 14.933 24.2084C14.9841 24.1741 15.0352 24.1399 15.0863 24.1056C15.1263 24.0787 15.1263 24.0787 15.1671 24.0513C15.653 23.7246 16.142 23.404 16.6376 23.0922C16.9126 22.919 17.1854 22.7428 17.4553 22.5618C17.4945 22.5355 17.5338 22.5092 17.5743 22.4821C17.6523 22.4297 17.7302 22.3772 17.8081 22.3246C17.9686 22.2168 18.1278 22.1116 18.2981 22.0199C18.4519 21.9371 18.5913 21.8395 18.7333 21.7381C18.9091 21.6155 19.092 21.5041 19.2743 21.3914C19.3496 21.3447 19.4248 21.298 19.5001 21.2513C19.5369 21.2284 19.5737 21.2055 19.6116 21.182C19.8878 21.0096 20.1618 20.8337 20.4352 20.6569C20.4756 20.6308 20.4756 20.6308 20.5169 20.6041C20.6644 20.5086 20.811 20.4119 20.9567 20.3136C21.2209 20.1354 21.4898 19.9655 21.7605 19.7973C22.0245 19.6332 22.2867 19.4677 22.5442 19.2935C22.7648 19.1449 22.989 19.002 23.2133 18.8589C23.5917 18.6174 23.9687 18.3738 24.3448 18.1287C24.4803 18.0405 24.6161 17.9527 24.7518 17.8649C24.7902 17.8401 24.7902 17.8401 24.8294 17.8147C24.8806 17.7816 24.9318 17.7485 24.983 17.7154C25.1402 17.6137 25.2974 17.512 25.4546 17.4102C25.5817 17.328 25.7089 17.2458 25.836 17.1637C26.0778 17.0076 26.3193 16.8509 26.5601 16.6933C26.5812 16.6795 26.6023 16.6658 26.624 16.6516C26.7286 16.5831 26.8332 16.5145 26.9378 16.446C27.1201 16.3266 27.3026 16.2077 27.4867 16.091C27.6999 15.9558 27.9113 15.8179 28.1225 15.6796C28.1863 15.6378 28.25 15.5961 28.3138 15.5544C28.4279 15.4797 28.5421 15.405 28.656 15.33C28.6944 15.3118 28.7328 15.2935 28.7724 15.2747C28.8886 15.1729 28.8945 15.1617 28.9052 15.0175C28.9059 14.9487 28.9053 14.8798 28.9037 14.811C28.9038 14.7545 28.9038 14.7545 28.9038 14.697C28.9037 14.5726 28.9019 14.4482 28.9002 14.3239C28.8998 14.2376 28.8995 14.1514 28.8992 14.0652C28.8984 13.8382 28.8962 13.6112 28.8938 13.3843C28.8915 13.1527 28.8905 12.9211 28.8893 12.6895C28.887 12.235 28.8832 11.7806 28.8785 11.3262Z" fill="#B1B4B8"/>
<path d="M5.59823 4.5791C5.61047 4.5791 5.6227 4.5791 5.63531 4.5791C5.6541 4.63772 5.67257 4.69644 5.69091 4.7552C5.70124 4.78789 5.71156 4.82057 5.72219 4.85425C5.74652 4.94983 5.74652 4.94983 5.74652 5.09812C5.77099 5.09812 5.79546 5.09812 5.82067 5.09812C5.84555 5.15211 5.87023 5.20619 5.89481 5.26031C5.90858 5.29042 5.92234 5.32053 5.93652 5.35155C5.96896 5.43178 5.96896 5.43178 5.96896 5.50592C6.00566 5.51816 6.04236 5.53039 6.08018 5.54299C6.13117 5.61608 6.18035 5.69043 6.22847 5.76543C6.35633 5.93031 6.48981 6.06008 6.65481 6.18713C6.68898 6.21366 6.68898 6.21366 6.72385 6.24072C6.92314 6.39287 7.13153 6.52544 7.34768 6.65252C7.47595 6.72845 7.60281 6.80671 7.72992 6.88457C7.75781 6.9016 7.7857 6.91863 7.81444 6.93618C8.28724 7.22503 8.75792 7.51735 9.22752 7.81138C9.64306 8.07137 10.06 8.32918 10.4779 8.58528C10.6737 8.7055 10.8678 8.82832 11.0618 8.95137C11.292 9.09726 11.5234 9.24041 11.7577 9.37963C11.9977 9.52263 12.2349 9.67019 12.4722 9.8178C12.6607 9.93496 12.8502 10.0503 13.0407 10.1643C13.1446 10.2265 13.2479 10.2897 13.3511 10.3532C13.3912 10.3779 13.4314 10.4026 13.4727 10.4281C13.5704 10.4885 13.6676 10.5495 13.7647 10.6108C13.8048 10.6361 13.8048 10.6361 13.8458 10.6619C13.8982 10.695 13.9506 10.7282 14.0029 10.7615C14.1046 10.8256 14.1959 10.8804 14.3103 10.9185C14.3103 12.668 14.3103 14.4175 14.3103 16.22C14.1382 16.1855 14.086 16.1659 13.9535 16.067C13.7123 15.8922 13.4614 15.7351 13.2083 15.5781C12.9676 15.4287 12.7285 15.278 12.4938 15.1194C11.9439 14.7487 11.3742 14.4074 10.8102 14.0588C10.5093 13.8727 10.2102 13.6839 9.91138 13.4945C9.76513 13.4019 9.61873 13.3095 9.47234 13.2171C9.41364 13.18 9.35494 13.1429 9.29624 13.1058C9.25266 13.0783 9.25266 13.0783 9.2082 13.0502C9.07612 12.9668 9.07612 12.9668 8.94405 12.8834C8.91497 12.865 8.88589 12.8467 8.85593 12.8278C8.79747 12.7908 8.73902 12.7539 8.68056 12.717C8.53013 12.622 8.3797 12.527 8.22924 12.432C7.66286 12.0745 7.66286 12.0745 7.41509 11.916C7.32172 11.8569 7.22803 11.7983 7.13415 11.7399C6.49523 11.3418 6.49523 11.3418 6.26554 11.141C6.2325 11.1137 6.2325 11.1137 6.19878 11.086C5.88598 10.8058 5.62424 10.3339 5.58823 9.9115C5.58458 9.77114 5.58445 9.63103 5.58561 9.49066C5.58564 9.43692 5.58562 9.38318 5.58556 9.32944C5.58553 9.18446 5.58618 9.03949 5.58696 8.89452C5.58765 8.74267 5.58772 8.59083 5.58785 8.43898C5.58819 8.15184 5.5891 7.86471 5.59022 7.57757C5.59147 7.2505 5.59208 6.92344 5.59264 6.59637C5.5938 5.92394 5.59575 5.25152 5.59823 4.5791Z" fill="#AE2524"/>
<path d="M23.0219 4.83838C23.0341 4.83838 23.0463 4.83838 23.059 4.83838C23.0633 5.50258 23.0666 6.16677 23.0686 6.83098C23.0695 7.13942 23.0708 7.44785 23.0729 7.75629C23.0748 8.02528 23.076 8.29428 23.0764 8.56328C23.0766 8.70557 23.0772 8.84784 23.0786 8.99012C23.0798 9.12438 23.0802 9.25862 23.0799 9.39288C23.08 9.46496 23.081 9.53705 23.082 9.60912C23.0786 10.2002 22.7963 10.6445 22.3867 11.0501C22.1843 11.2431 21.9606 11.3995 21.7243 11.5486C21.7012 11.5632 21.6781 11.5778 21.6542 11.5928C21.5551 11.6551 21.4558 11.7171 21.3563 11.7786C21.19 11.8816 21.0267 11.9881 20.8647 12.0977C20.608 12.271 20.3453 12.4338 20.0815 12.5961C19.8582 12.7335 19.6369 12.8734 19.4167 13.0158C19.2412 13.1293 19.0647 13.2414 18.8883 13.3535C18.8535 13.3757 18.8187 13.3978 18.7828 13.4206C18.7115 13.466 18.6401 13.5114 18.5687 13.5568C18.3971 13.6658 18.2256 13.775 18.0541 13.8841C18.0038 13.9162 18.0038 13.9162 17.9525 13.9488C17.7811 14.0578 17.6098 14.1669 17.4385 14.276C17.0903 14.4978 16.7417 14.7192 16.3925 14.9394C16.2034 15.0587 16.0147 15.1786 15.8263 15.2989C15.5133 15.4986 15.1997 15.697 14.8844 15.893C14.8523 15.9131 14.8202 15.9331 14.7871 15.9538C14.7418 15.9818 14.7418 15.9818 14.6956 16.0105C14.6562 16.0349 14.6562 16.0349 14.616 16.0599C14.5161 16.1179 14.4132 16.1684 14.3098 16.2197C14.2907 15.5665 14.2763 14.9134 14.2675 14.26C14.2633 13.9565 14.2576 13.6532 14.2482 13.3499C14.2401 13.0853 14.2348 12.8207 14.233 12.556C14.232 12.4159 14.2295 12.2762 14.2235 12.1362C14.1887 11.2895 14.1887 11.2895 14.3882 11.0444C14.5797 10.8789 14.7919 10.7691 15.0227 10.6685C15.1793 10.5972 15.3213 10.5056 15.466 10.4132C15.5204 10.38 15.5749 10.3468 15.6295 10.3139C15.8272 10.1933 16.0227 10.0694 16.2183 9.94541C16.4565 9.79442 16.6957 9.64489 16.935 9.49565C17.3591 9.23095 17.7812 8.96322 18.2024 8.69395C18.239 8.67059 18.2755 8.64722 18.3132 8.62315C18.5065 8.49955 18.6997 8.37587 18.8929 8.25212C19.0512 8.15074 19.2095 8.04948 19.3679 7.94829C19.788 7.67987 20.2072 7.41025 20.6249 7.13805C20.7665 7.04576 20.9084 6.95393 21.0505 6.86229C21.1534 6.79584 21.2561 6.72911 21.3589 6.66239C21.422 6.62159 21.4854 6.58126 21.5488 6.54098C22.2211 6.10718 22.7144 5.58709 23.0219 4.83838Z" fill="#F34938"/>
<path d="M22.8744 3.5415C22.9485 3.57858 22.9485 3.57858 22.9788 3.64736C22.9925 3.69016 22.9925 3.69016 23.0064 3.73382C23.0157 3.76187 23.0249 3.78992 23.0344 3.81883C23.0851 4.0059 23.1014 4.1847 23.1013 4.37816C23.1013 4.45068 23.1013 4.45068 23.1014 4.52466C23.1013 4.57778 23.1011 4.63089 23.101 4.68401C23.101 4.74029 23.101 4.79657 23.101 4.85285C23.101 5.00526 23.1008 5.15767 23.1006 5.31008C23.1003 5.4695 23.1003 5.62891 23.1003 5.78833C23.1001 6.09005 23.0998 6.39176 23.0995 6.69347C23.0991 7.03703 23.0989 7.38059 23.0987 7.72415C23.0983 8.43073 23.0976 9.1373 23.0968 9.84388C23.0846 9.84388 23.0723 9.84388 23.0597 9.84388C23.0475 8.22899 23.0353 6.6141 23.0227 4.95027C22.9493 5.09708 22.8758 5.24389 22.8002 5.39514C22.7038 5.52419 22.6087 5.64483 22.5036 5.76587C22.4812 5.79364 22.4588 5.8214 22.4357 5.85001C22.1001 6.25341 21.6543 6.52091 21.2136 6.7945C21.0098 6.92124 20.809 7.05232 20.6083 7.18391C20.1936 7.45529 19.7765 7.72268 19.3588 7.98932C19.2017 8.08964 19.0447 8.19017 18.8878 8.2907C18.2487 8.70003 17.6087 9.10788 16.9668 9.51269C16.8502 9.58618 16.7338 9.65986 16.6175 9.73367C16.3318 9.91481 16.0454 10.0945 15.7564 10.2702C15.5196 10.4142 15.2841 10.5602 15.0497 10.7081C15.0215 10.7259 14.9932 10.7437 14.9642 10.762C14.7914 10.8713 14.6215 10.9839 14.4533 11.1002C14.3847 11.1414 14.3847 11.1414 14.3105 11.1414C14.3145 11.0593 14.3145 11.0593 14.3476 10.9561C14.4252 10.8907 14.4961 10.8397 14.5816 10.7869C14.6062 10.7711 14.6309 10.7554 14.6562 10.7391C14.917 10.5734 15.183 10.4159 15.4487 10.2581C15.7493 10.079 16.046 9.89337 16.343 9.70832C16.4 9.67316 16.4573 9.63845 16.5147 9.60408C16.61 9.54673 16.7039 9.48765 16.7976 9.42782C16.8512 9.39362 16.8512 9.39362 16.9059 9.35873C16.9425 9.33532 16.9791 9.31191 17.0169 9.28779C17.0688 9.25461 17.0688 9.25461 17.1217 9.22076C17.2305 9.15123 17.3392 9.08165 17.4478 9.01206C17.5293 8.95992 17.6107 8.90779 17.6921 8.85566C17.7128 8.84242 17.7335 8.82919 17.7548 8.81555C17.9004 8.72231 18.0461 8.6291 18.1918 8.5359C18.272 8.48454 18.3523 8.43318 18.4326 8.38182C18.4717 8.35682 18.5107 8.33182 18.551 8.30606C18.7488 8.17945 18.9465 8.05263 19.1439 7.92536C19.3112 7.81762 19.4792 7.71124 19.6477 7.60536C19.9137 7.43806 20.1777 7.26848 20.4383 7.09284C20.6264 6.96667 20.8174 6.84559 21.0091 6.72513C21.1243 6.65259 21.2393 6.57997 21.3544 6.50733C21.377 6.49308 21.3997 6.47883 21.423 6.46415C21.6966 6.2911 21.9362 6.10085 22.17 5.87709C22.1986 5.85124 22.2272 5.82538 22.2567 5.79874C22.6661 5.41594 22.9836 4.87751 23.0034 4.30755C23.0051 4.129 23.0027 3.97516 22.9288 3.8113C22.8744 3.6898 22.8744 3.6898 22.8744 3.5415Z" fill="#F89883"/>
<path d="M22.874 3.5415C22.9482 3.57858 22.9482 3.57858 22.9784 3.64736C22.9876 3.67589 22.9967 3.70442 23.0061 3.73382C23.0153 3.76187 23.0246 3.78992 23.0341 3.81883C23.0848 4.0059 23.1011 4.1847 23.1009 4.37816C23.101 4.42651 23.101 4.47485 23.1011 4.52466C23.101 4.57778 23.1008 4.63089 23.1007 4.68401C23.1007 4.74029 23.1007 4.79657 23.1007 4.85285C23.1007 5.00526 23.1005 5.15767 23.1002 5.31008C23.1 5.4695 23.1 5.62891 23.0999 5.78833C23.0998 6.09005 23.0995 6.39176 23.0991 6.69347C23.0987 7.03703 23.0985 7.38059 23.0983 7.72415C23.098 8.43073 23.0973 9.1373 23.0965 9.84388C23.0842 9.84388 23.072 9.84388 23.0594 9.84388C23.0472 8.22899 23.0349 6.6141 23.0223 4.95027C22.9489 5.09708 22.8755 5.24389 22.7999 5.39514C22.7035 5.52419 22.6083 5.64483 22.5033 5.76587C22.4697 5.80752 22.4697 5.80752 22.4354 5.85001C22.134 6.21234 21.7428 6.46427 21.3494 6.71586C21.3033 6.74553 21.3033 6.74553 21.2562 6.77579C21.2272 6.79396 21.1982 6.81213 21.1684 6.83085C21.1296 6.85526 21.1296 6.85526 21.09 6.88017C21.0204 6.91513 21.0204 6.91513 20.9092 6.91513C20.9166 6.84851 20.9166 6.84851 20.9463 6.76684C21.0234 6.70601 21.0234 6.70601 21.1247 6.64635C21.1616 6.62389 21.1985 6.60143 21.2365 6.57829C21.2753 6.55487 21.3141 6.53145 21.3541 6.50733C21.6517 6.32035 21.9157 6.12013 22.1697 5.87709C22.1983 5.85124 22.2269 5.82538 22.2564 5.79874C22.6658 5.41594 22.9833 4.87751 23.0031 4.30755C23.0047 4.129 23.0024 3.97516 22.9285 3.8113C22.874 3.6898 22.874 3.6898 22.874 3.5415Z" fill="#EF9E8B"/>
<path d="M5.59809 4.5791C5.61033 4.5791 5.62256 4.5791 5.63517 4.5791C5.76661 4.97501 5.76661 4.97501 5.74638 5.17227C5.73415 5.1845 5.72192 5.19673 5.70931 5.20934C5.70471 5.27922 5.70271 5.34926 5.7017 5.41929C5.70096 5.46476 5.70022 5.51023 5.69946 5.55708C5.69883 5.6078 5.6982 5.65852 5.69758 5.70924C5.69681 5.76208 5.69603 5.81491 5.69524 5.86775C5.69316 6.01087 5.69133 6.15399 5.68957 6.29712C5.68846 6.38605 5.68728 6.47499 5.68608 6.56393C5.67022 7.74362 5.66792 8.92316 5.67224 10.1029C5.59809 10.0288 5.59809 10.0288 5.58897 9.93457C5.58904 9.89445 5.58911 9.85433 5.58918 9.81299C5.58907 9.76704 5.58897 9.72108 5.58887 9.67373C5.58913 9.62253 5.5894 9.57132 5.58967 9.52012C5.5897 9.46642 5.58968 9.41272 5.58964 9.35901C5.58962 9.21295 5.59006 9.06689 5.59057 8.92083C5.59104 8.76829 5.59108 8.61575 5.59117 8.46321C5.5914 8.17422 5.59201 7.88524 5.59275 7.59626C5.59358 7.26732 5.59399 6.93837 5.59436 6.60943C5.59514 5.93265 5.59644 5.25588 5.59809 4.5791Z" fill="#972A2A"/>
<path d="M16.4237 9.65771C16.442 9.69442 16.442 9.69442 16.4608 9.73186C16.4363 9.73186 16.4118 9.73186 16.3866 9.73186C16.3866 9.75633 16.3866 9.7808 16.3866 9.80601C16.3622 9.83047 16.3377 9.85494 16.3125 9.88015C16.2914 9.90314 16.2703 9.92612 16.2486 9.94981C16.1496 10.0421 16.0421 10.1074 15.9255 10.1744C15.8759 10.2036 15.8263 10.2329 15.7767 10.2622C15.7498 10.278 15.7229 10.2939 15.6952 10.3102C15.533 10.4068 15.3724 10.5061 15.2119 10.6054C15.1786 10.6259 15.1453 10.6465 15.1111 10.6677C14.891 10.8043 14.6747 10.945 14.4619 11.0927C14.3847 11.1406 14.3847 11.1406 14.3105 11.1406C14.3145 11.0585 14.3145 11.0585 14.3476 10.9553C14.4252 10.8899 14.4961 10.8389 14.5816 10.7861C14.6185 10.7624 14.6185 10.7624 14.6562 10.7383C14.9168 10.5727 15.1825 10.4153 15.4479 10.2577C15.776 10.0623 16.0996 9.85957 16.4237 9.65771Z" fill="#F9907B"/>
<path d="M23.0219 4.83838C23.0341 4.83838 23.0464 4.83838 23.059 4.83838C23.0624 5.50386 23.065 6.16933 23.0666 6.83482C23.0674 7.14384 23.0684 7.45286 23.0701 7.76188C23.0716 8.03134 23.0726 8.30079 23.0729 8.57026C23.0731 8.71283 23.0736 8.85539 23.0746 8.99796C23.0756 9.1324 23.076 9.26682 23.0757 9.40127C23.0758 9.47363 23.0766 9.54599 23.0774 9.61835C23.0761 9.89702 23.0369 10.1126 22.9107 10.3622C22.8984 10.3622 22.8862 10.3622 22.8736 10.3622C22.869 10.2556 22.869 10.2556 22.8736 10.1398C22.9103 10.1031 22.9103 10.1031 22.9477 10.0656C22.9878 9.94947 22.9894 9.84015 22.9893 9.71796C22.9893 9.67752 22.9894 9.63707 22.9894 9.5954C22.9893 9.55122 22.9892 9.50703 22.989 9.46151C22.989 9.41484 22.989 9.36817 22.989 9.32009C22.989 9.19227 22.9888 9.06444 22.9886 8.93661C22.9883 8.80297 22.9883 8.66933 22.9883 8.53569C22.9882 8.28269 22.9879 8.02968 22.9875 7.77668C22.9871 7.48862 22.9869 7.20055 22.9867 6.91249C22.9863 6.31998 22.9856 5.72747 22.9848 5.13496C22.9726 5.17166 22.9603 5.20837 22.9477 5.24618C22.9233 5.24618 22.8988 5.24618 22.8736 5.24618C22.8843 5.22018 22.895 5.19419 22.906 5.1674C22.9485 5.05879 22.9858 4.94926 23.0219 4.83838Z" fill="#E14F40"/>
<path d="M5.63477 4.76416C5.72283 4.85223 5.72257 4.88661 5.7344 5.00745C5.7376 5.03732 5.7408 5.06719 5.7441 5.09796C5.74503 5.13459 5.74503 5.13459 5.74598 5.17196C5.73375 5.18419 5.72152 5.19643 5.70891 5.20903C5.70431 5.28975 5.70231 5.37062 5.7013 5.45146C5.70093 5.47678 5.70057 5.5021 5.70019 5.52818C5.69901 5.61223 5.6981 5.69628 5.69718 5.78033C5.69642 5.83846 5.69564 5.89659 5.69485 5.95472C5.6928 6.108 5.69097 6.26128 5.68918 6.41457C5.68732 6.57087 5.68526 6.72717 5.68321 6.88346C5.67921 7.19035 5.67545 7.49724 5.67184 7.80413C5.6596 7.80413 5.64737 7.80413 5.63477 7.80413C5.63477 6.80094 5.63477 5.79775 5.63477 4.76416Z" fill="#950F11"/>
<path d="M22.7251 5.32031C22.7373 5.35701 22.7495 5.39372 22.7621 5.43153C22.6469 5.6227 22.4865 5.80479 22.3173 5.95055C22.2806 5.95055 22.2439 5.95055 22.2061 5.95055C22.2274 5.822 22.2695 5.76346 22.3636 5.67482C22.3868 5.6526 22.4101 5.63038 22.434 5.60748C22.468 5.57544 22.468 5.57544 22.5026 5.54275C22.5383 5.50736 22.5738 5.47185 22.6092 5.43616C22.6478 5.39755 22.6865 5.35893 22.7251 5.32031Z" fill="#F6AA93"/>
<path d="M20.8718 1.87256C21.2343 1.92724 21.5696 2.15438 21.8635 2.36377C21.8967 2.38735 21.8967 2.38735 21.9305 2.41141C22.0319 2.48576 22.0989 2.54535 22.1694 2.65109C22.0688 2.60285 21.9766 2.54977 21.8844 2.48701C21.6065 2.30076 21.3455 2.13251 21.0284 2.02085C20.946 1.98378 20.946 1.98378 20.8718 1.87256Z" fill="#E27869"/>
<path d="M6.63624 2.42871C6.67295 2.44094 6.70965 2.45318 6.74746 2.46578C6.56395 2.64929 6.38044 2.8328 6.19137 3.02188C6.17914 2.99741 6.1669 2.97294 6.1543 2.94773C6.253 2.73181 6.44123 2.55872 6.63624 2.42871Z" fill="#EA5041"/>
<path d="M22.874 3.5415C22.9481 3.57858 22.9481 3.57858 23.0084 3.71297C23.0875 3.95843 23.0684 4.21368 23.0593 4.46832C23.0471 4.46832 23.0349 4.46832 23.0223 4.46832C23.0209 4.43387 23.0195 4.39941 23.0181 4.36391C23.0047 4.11196 22.9867 3.91518 22.874 3.6898C22.874 3.64086 22.874 3.59192 22.874 3.5415Z" fill="#E28172"/>
<path d="M23.0596 4.13428C23.0718 4.13428 23.084 4.13428 23.0966 4.13428C23.0966 4.31779 23.0966 4.5013 23.0966 4.69037C23.0722 4.69037 23.0477 4.69037 23.0225 4.69037C23.0103 4.72707 22.998 4.76377 22.9854 4.80159C22.9808 4.55135 22.9808 4.55135 23.0225 4.46793C23.0308 4.41096 23.0376 4.35376 23.0434 4.29647C23.0465 4.26617 23.0496 4.23587 23.0528 4.20466C23.055 4.18143 23.0573 4.15821 23.0596 4.13428Z" fill="#EDACA0"/>
<path d="M5.63524 4.76416C5.72412 4.85305 5.72209 4.88771 5.73255 5.00977C5.73532 5.04007 5.7381 5.07036 5.74095 5.10158C5.74277 5.12481 5.74458 5.14803 5.74645 5.17196C5.70975 5.19031 5.70975 5.19031 5.67231 5.20903C5.62551 5.11543 5.63158 5.04918 5.63292 4.94489C5.63325 4.91115 5.63359 4.87741 5.63393 4.84265C5.63436 4.81675 5.63479 4.79085 5.63524 4.76416Z" fill="#A71514"/>
<path d="M22.9848 9.91748C23.0093 9.91748 23.0337 9.91748 23.059 9.91748C23.0423 9.97781 23.0252 10.038 23.008 10.0982C22.9985 10.1318 22.9891 10.1653 22.9793 10.1999C22.9477 10.2882 22.9477 10.2882 22.8736 10.3624C22.869 10.2558 22.869 10.2558 22.8736 10.1399C22.8981 10.1154 22.9225 10.091 22.9477 10.0658C22.9716 9.98908 22.9716 9.98908 22.9848 9.91748Z" fill="#E15949"/>
<path d="M22.1689 2.65088C22.4256 2.81628 22.4256 2.81628 22.5026 2.91039C22.5026 2.93486 22.5026 2.95932 22.5026 2.98453C22.4659 2.9723 22.4292 2.96007 22.3914 2.94746C22.3914 2.92299 22.3914 2.89853 22.3914 2.87332C22.3684 2.86414 22.3455 2.85496 22.3219 2.84551C22.2301 2.79152 22.2078 2.74808 22.1689 2.65088Z" fill="#E47E6D"/>
<path d="M22.9481 4.68994C23.0433 4.83268 23.0161 4.89702 22.9852 5.06067C22.973 5.02397 22.9607 4.98727 22.9481 4.94945C22.9237 4.94945 22.8992 4.94945 22.874 4.94945C22.8984 4.86381 22.9229 4.77817 22.9481 4.68994Z" fill="#F5998A"/>
<path d="M15.1256 2.7251C15.0885 2.83632 15.0885 2.83632 14.9773 2.91046C14.8962 2.89656 14.8962 2.89656 14.829 2.87339C15.0422 2.7251 15.0422 2.7251 15.1256 2.7251Z" fill="#E26C5A"/>
</g>
<defs>
<linearGradient id="paint0_linear_24_246" x1="14.4771" y1="1.6499" x2="14.4771" y2="20.3346" gradientUnits="userSpaceOnUse">
<stop stop-color="#E0E1E3"/>
<stop offset="1" stop-color="#7B7C7D"/>
</linearGradient>
<linearGradient id="paint1_linear_24_246" x1="14.4771" y1="1.6499" x2="14.4771" y2="20.3346" gradientUnits="userSpaceOnUse">
<stop stop-color="#E0E1E3"/>
<stop offset="1" stop-color="#7B7C7D"/>
</linearGradient>
<clipPath id="clip0_24_246">
<rect width="28.9168" height="23.0963" fill="white" transform="translate(0 1.35352)"/>
</clipPath>
</defs>
</svg>
