<svg width="18" height="16" viewBox="0 0 18 16" fill="none" xmlns="http://www.w3.org/2000/svg">
<path d="M2.33332 4.30477H15.6667V2.6381H2.33332V4.30477ZM0.666656 2.6381C0.666656 2.17977 0.829851 1.78741 1.15624 1.46102C1.48263 1.13463 1.87499 0.971436 2.33332 0.971436H15.6667C16.125 0.971436 16.5174 1.13463 16.8437 1.46102C17.1701 1.78741 17.3333 2.17977 17.3333 2.6381V7.6381H2.33332V12.6381H5.74999V14.3048H2.33332C1.87499 14.3048 1.48263 14.1416 1.15624 13.8152C0.829851 13.4888 0.666656 13.0964 0.666656 12.6381V2.6381ZM11.4583 15.9714L7.91666 12.4298L9.08332 11.2631L11.4583 13.5964L16.1667 8.8881L17.3333 10.0964L11.4583 15.9714ZM2.33332 2.6381V12.6381V8.8881V11.2423V2.6381Z" fill="#171717"/>
</svg>
