<svg width="20" height="21" viewBox="0 0 20 21" fill="none" xmlns="http://www.w3.org/2000/svg">
<mask id="mask0_71_2069" style="mask-type:alpha" maskUnits="userSpaceOnUse" x="0" y="0" width="20" height="21">
<rect y="0.638184" width="20" height="20" fill="#D9D9D9"/>
</mask>
<g mask="url(#mask0_71_2069)">
<path d="M4.16667 18.9716C3.70833 18.9716 3.31597 18.8084 2.98958 18.482C2.66319 18.1556 2.5 17.7633 2.5 17.3049V5.63826C2.5 5.17993 2.66319 4.78757 2.98958 4.46118C3.31597 4.13479 3.70833 3.9716 4.16667 3.9716H5V2.30493H6.66667V3.9716H13.3333V2.30493H15V3.9716H15.8333C16.2917 3.9716 16.684 4.13479 17.0104 4.46118C17.3368 4.78757 17.5 5.17993 17.5 5.63826V17.3049C17.5 17.7633 17.3368 18.1556 17.0104 18.482C16.684 18.8084 16.2917 18.9716 15.8333 18.9716H4.16667ZM4.16667 17.3049H15.8333V8.9716H4.16667V17.3049ZM4.16667 7.30493H15.8333V5.63826H4.16667V7.30493ZM10 12.3049C9.76389 12.3049 9.56597 12.2251 9.40625 12.0653C9.24653 11.9056 9.16667 11.7077 9.16667 11.4716C9.16667 11.2355 9.24653 11.0376 9.40625 10.8778C9.56597 10.7181 9.76389 10.6383 10 10.6383C10.2361 10.6383 10.434 10.7181 10.5938 10.8778C10.7535 11.0376 10.8333 11.2355 10.8333 11.4716C10.8333 11.7077 10.7535 11.9056 10.5938 12.0653C10.434 12.2251 10.2361 12.3049 10 12.3049ZM6.66667 12.3049C6.43056 12.3049 6.23264 12.2251 6.07292 12.0653C5.91319 11.9056 5.83333 11.7077 5.83333 11.4716C5.83333 11.2355 5.91319 11.0376 6.07292 10.8778C6.23264 10.7181 6.43056 10.6383 6.66667 10.6383C6.90278 10.6383 7.10069 10.7181 7.26042 10.8778C7.42014 11.0376 7.5 11.2355 7.5 11.4716C7.5 11.7077 7.42014 11.9056 7.26042 12.0653C7.10069 12.2251 6.90278 12.3049 6.66667 12.3049ZM13.3333 12.3049C13.0972 12.3049 12.8993 12.2251 12.7396 12.0653C12.5799 11.9056 12.5 11.7077 12.5 11.4716C12.5 11.2355 12.5799 11.0376 12.7396 10.8778C12.8993 10.7181 13.0972 10.6383 13.3333 10.6383C13.5694 10.6383 13.7674 10.7181 13.9271 10.8778C14.0868 11.0376 14.1667 11.2355 14.1667 11.4716C14.1667 11.7077 14.0868 11.9056 13.9271 12.0653C13.7674 12.2251 13.5694 12.3049 13.3333 12.3049ZM10 15.6383C9.76389 15.6383 9.56597 15.5584 9.40625 15.3987C9.24653 15.239 9.16667 15.041 9.16667 14.8049C9.16667 14.5688 9.24653 14.3709 9.40625 14.2112C9.56597 14.0515 9.76389 13.9716 10 13.9716C10.2361 13.9716 10.434 14.0515 10.5938 14.2112C10.7535 14.3709 10.8333 14.5688 10.8333 14.8049C10.8333 15.041 10.7535 15.239 10.5938 15.3987C10.434 15.5584 10.2361 15.6383 10 15.6383ZM6.66667 15.6383C6.43056 15.6383 6.23264 15.5584 6.07292 15.3987C5.91319 15.239 5.83333 15.041 5.83333 14.8049C5.83333 14.5688 5.91319 14.3709 6.07292 14.2112C6.23264 14.0515 6.43056 13.9716 6.66667 13.9716C6.90278 13.9716 7.10069 14.0515 7.26042 14.2112C7.42014 14.3709 7.5 14.5688 7.5 14.8049C7.5 15.041 7.42014 15.239 7.26042 15.3987C7.10069 15.5584 6.90278 15.6383 6.66667 15.6383ZM13.3333 15.6383C13.0972 15.6383 12.8993 15.5584 12.7396 15.3987C12.5799 15.239 12.5 15.041 12.5 14.8049C12.5 14.5688 12.5799 14.3709 12.7396 14.2112C12.8993 14.0515 13.0972 13.9716 13.3333 13.9716C13.5694 13.9716 13.7674 14.0515 13.9271 14.2112C14.0868 14.3709 14.1667 14.5688 14.1667 14.8049C14.1667 15.041 14.0868 15.239 13.9271 15.3987C13.7674 15.5584 13.5694 15.6383 13.3333 15.6383Z" fill="#171717"/>
</g>
</svg>
