<svg width="20" height="14" viewBox="0 0 20 14" fill="none" xmlns="http://www.w3.org/2000/svg">
<path d="M10.0008 12.2453C9.09665 12.7779 8.04275 13.0835 6.91747 13.0835C3.55774 13.0835 0.834137 10.3598 0.834137 7.00012C0.834137 3.64035 3.55774 0.916748 6.91747 0.916748C8.04275 0.916748 9.09665 1.22228 10.0008 1.75491C10.9049 1.22228 11.9588 0.916748 13.0842 0.916748C16.4439 0.916748 19.1675 3.64035 19.1675 7.00012C19.1675 10.3598 16.4439 13.0835 13.0842 13.0835C11.9588 13.0835 10.9049 12.7779 10.0008 12.2453ZM11.4189 11.092C11.9328 11.3014 12.495 11.4168 13.0842 11.4168C15.5234 11.4168 17.5008 9.43937 17.5008 7.00012C17.5008 4.56082 15.5234 2.58341 13.0842 2.58341C12.495 2.58341 11.9328 2.69876 11.4189 2.9081C12.4017 3.98861 13.0008 5.42437 13.0008 7.00012C13.0008 8.57579 12.4017 10.0115 11.4189 11.092ZM8.58265 2.9081C8.06878 2.69876 7.5066 2.58341 6.91747 2.58341C4.47821 2.58341 2.5008 4.56082 2.5008 7.00012C2.5008 9.43937 4.47821 11.4168 6.91747 11.4168C7.5066 11.4168 8.06878 11.3014 8.58265 11.092C7.59987 10.0115 7.0008 8.57579 7.0008 7.00012C7.0008 5.42437 7.59987 3.98861 8.58265 2.9081ZM10.0008 3.8378C9.17824 4.63996 8.66749 5.76037 8.66749 7.00012C8.66749 8.23979 9.17824 9.36021 10.0008 10.1624C10.8234 9.36021 11.3342 8.23979 11.3342 7.00012C11.3342 5.76037 10.8234 4.63996 10.0008 3.8378Z" fill="black"/>
</svg>
