<svg width="24" height="24" viewBox="0 0 24 24" fill="none" xmlns="http://www.w3.org/2000/svg">
<mask id="mask0_52_10324" style="mask-type:luminance" maskUnits="userSpaceOnUse" x="0" y="0" width="24" height="24">
<path d="M24 0H0V24H24V0Z" fill="white"/>
</mask>
<g mask="url(#mask0_52_10324)">
<path d="M23.5216 6.18492C23.3859 5.67433 23.1185 5.20834 22.7461 4.83358C22.3737 4.45881 21.9095 4.18842 21.3998 4.04947C19.5234 3.54492 12.0234 3.54492 12.0234 3.54492C12.0234 3.54492 4.52343 3.54492 2.64707 4.04947C2.13736 4.18842 1.67309 4.45881 1.30072 4.83358C0.928354 5.20834 0.660943 5.67433 0.525256 6.18492C0.0234376 8.06947 0.0234375 11.9995 0.0234375 11.9995C0.0234375 11.9995 0.0234376 15.9295 0.525256 17.814C0.660943 18.3246 0.928354 18.7906 1.30072 19.1653C1.67309 19.5401 2.13736 19.8105 2.64707 19.9495C4.52343 20.454 12.0234 20.454 12.0234 20.454C12.0234 20.454 19.5234 20.454 21.3998 19.9495C21.9095 19.8105 22.3737 19.5401 22.7461 19.1653C23.1185 18.7906 23.3859 18.3246 23.5216 17.814C24.0234 15.9295 24.0234 11.9995 24.0234 11.9995C24.0234 11.9995 24.0234 8.06947 23.5216 6.18492Z" fill="black"/>
<path d="M9.57031 15.5689V8.43164L15.8431 12.0002L9.57031 15.5689Z" fill="white"/>
</g>
</svg>
