<svg width="24" height="25" viewBox="0 0 24 25" fill="none" xmlns="http://www.w3.org/2000/svg">
<g clip-path="url(#clip0_88_4926)">
<path d="M14.5052 24.1381C15.3077 24.1381 16.0075 23.4383 16.0075 22.6358V19.1274H17.0106C17.6125 19.1274 18.0136 18.7261 18.0136 18.1244V8.10394H5.9863V18.1245C5.9863 18.7263 6.38755 19.1275 6.98938 19.1275H7.99255V22.6359C7.99255 23.4384 8.69215 24.1382 9.49479 24.1382C10.2971 24.1382 10.9969 23.4384 10.9969 22.6359V19.1275H13.0031V22.6359C13.003 23.4383 13.7028 24.1381 14.5052 24.1381ZM20.519 18.1245C21.3214 18.1245 22.0211 17.4248 22.0211 16.6222V9.60553C22.0211 8.80729 21.3215 8.10394 20.519 8.10394C19.7165 8.10394 19.0168 8.80734 19.0168 9.60553V16.6222C19.0168 17.4247 19.7164 18.1245 20.519 18.1245ZM3.48099 18.1245C4.28353 18.1245 4.98323 17.4248 4.98323 16.6222V9.60553C4.98323 8.80729 4.28362 8.10394 3.48099 8.10394C2.67854 8.10394 1.97888 8.80734 1.97888 9.60553V16.6222C1.97893 17.4247 2.67854 18.1245 3.48099 18.1245ZM16.8098 0.289531C16.6093 0.0877346 16.3108 0.0877346 16.1102 0.289531L14.7649 1.63038L14.7028 1.69235C13.9051 1.29289 13.0107 1.09339 12.0147 1.09147C12.0098 1.09147 12.005 1.09132 12.0001 1.09132H12C11.9949 1.09132 11.9903 1.09147 11.9852 1.09147C10.9893 1.09339 10.0949 1.29289 9.29726 1.69235L9.23506 1.63038L7.8897 0.289531C7.68903 0.0877346 7.39063 0.0877346 7.1901 0.289531C6.98943 0.490202 6.98943 0.788044 7.1901 0.988575L8.49148 2.29019C8.07214 2.57018 7.69189 2.91279 7.36124 3.30466C6.56961 4.243 6.06463 5.46423 5.99521 6.78741C5.99455 6.80119 5.99319 6.81479 5.99259 6.82857C5.98837 6.91904 5.98629 7.00959 5.98635 7.10016H18.0136C18.0136 7.00927 18.0115 6.91871 18.0074 6.82857C18.0067 6.81479 18.0054 6.80119 18.0046 6.78741C17.9353 5.46423 17.4302 4.24295 16.6386 3.30475C16.308 2.91288 15.9277 2.57027 15.5083 2.29029L16.8098 0.988669C17.0106 0.788044 17.0106 0.490249 16.8098 0.289531ZM9.49287 5.34878C9.07789 5.34878 8.74142 5.01236 8.74142 4.59733C8.74142 4.1823 9.07784 3.84588 9.49287 3.84588C9.90785 3.84588 10.2443 4.1823 10.2443 4.59733C10.2443 5.01236 9.90785 5.34878 9.49287 5.34878ZM14.5071 5.34878C14.0921 5.34878 13.7556 5.01236 13.7556 4.59733C13.7556 4.1823 14.092 3.84588 14.5071 3.84588C14.922 3.84588 15.2585 4.1823 15.2585 4.59733C15.2585 5.01236 14.9221 5.34878 14.5071 5.34878Z" fill="#A4D760"/>
</g>
<defs>
<clipPath id="clip0_88_4926">
<rect width="24" height="24" fill="white" transform="translate(0 0.138184)"/>
</clipPath>
</defs>
</svg>
