<svg width="24" height="25" viewBox="0 0 24 25" fill="none" xmlns="http://www.w3.org/2000/svg">
<g clip-path="url(#clip0_88_4922)">
<path d="M18.546 12.9012C18.5577 11.9813 18.802 11.0793 19.2561 10.2792C19.7101 9.47915 20.3593 8.80694 21.143 8.32518C20.6452 7.61406 19.9883 7.02884 19.2247 6.61603C18.461 6.20323 17.6116 5.97421 16.744 5.94718C14.893 5.75318 13.099 7.05418 12.156 7.05418C11.195 7.05418 9.743 5.96618 8.17899 5.99818C7.16754 6.03105 6.18184 6.32529 5.31788 6.85225C4.45392 7.37922 3.74116 8.12094 3.24899 9.00518C1.11799 12.6952 2.70699 18.1192 4.74899 21.1022C5.77099 22.5632 6.964 24.1942 8.527 24.1372C10.056 24.0742 10.627 23.1622 12.472 23.1622C14.3 23.1622 14.836 24.1372 16.43 24.1002C18.07 24.0732 19.104 22.6332 20.09 21.1582C20.824 20.1176 21.3887 18.9674 21.763 17.7502C20.8099 17.3471 19.9966 16.6723 19.4246 15.81C18.8525 14.9477 18.5469 13.936 18.546 12.9012ZM15.535 3.98518C16.4292 2.91141 16.8697 1.53143 16.763 0.138184C15.3967 0.282123 14.1347 0.935086 13.228 1.96718C12.7847 2.47163 12.4452 3.05848 12.2288 3.6942C12.0124 4.32993 11.9235 5.00206 11.967 5.67218C12.6506 5.67904 13.3268 5.53079 13.9448 5.23859C14.5628 4.94638 15.1065 4.51784 15.535 3.98518Z" fill="black"/>
</g>
<defs>
<clipPath id="clip0_88_4922">
<rect width="24" height="24" fill="white" transform="translate(0 0.138184)"/>
</clipPath>
</defs>
</svg>
