<svg width="38" height="51" viewBox="0 0 38 51" fill="none" xmlns="http://www.w3.org/2000/svg">
<path d="M20.816 1.88484C20.1852 1.97209 19.7445 2.5542 19.8318 3.18503L21.2535 13.4649C21.3407 14.0958 21.9228 14.5364 22.5536 14.4492C23.1845 14.3619 23.6251 13.7798 23.5379 13.149L22.2742 4.0113L31.4119 2.74757C32.0427 2.66032 32.4833 2.07821 32.3961 1.44739C32.3089 0.81656 31.7268 0.375898 31.0959 0.463141L20.816 1.88484ZM1.04108 50.0833C6.42058 48.9953 12.5997 47.2169 18.3009 44.7356C23.985 42.2618 29.2868 39.0496 32.8189 35.0481C36.3863 31.0067 38.1807 26.107 36.6507 20.4435C35.1459 14.8734 30.477 8.77469 21.6699 2.10769L20.278 3.94642C28.9213 10.4895 33.1152 16.199 34.4243 21.045C35.7083 25.7976 34.2677 29.9219 31.09 33.5219C27.8769 37.1619 22.9234 40.2087 17.3806 42.621C11.8549 45.0259 5.83566 46.7608 0.583918 47.8229L1.04108 50.0833Z" fill="#F55B47"/>
</svg>
