<svg width="33" height="67" viewBox="0 0 33 67" fill="none" xmlns="http://www.w3.org/2000/svg">
<path d="M1.34337 57.2966C0.701751 56.7725 0.606427 55.8276 1.13046 55.186L9.6701 44.7301C10.1941 44.0885 11.1391 43.9932 11.7807 44.5172C12.4223 45.0412 12.5177 45.9862 11.9936 46.6278L4.40283 55.9219L13.6969 63.5127C14.3385 64.0367 14.4339 64.9817 13.9098 65.6233C13.3858 66.2649 12.4408 66.3602 11.7992 65.8362L1.34337 57.2966ZM10.6543 0.468243C15.0846 4.57065 19.8717 9.78034 23.809 15.3794C27.7322 20.9585 30.8877 27.0314 31.9207 32.8483C32.9657 38.7335 31.8379 44.4371 27.0984 48.9373C22.4501 53.3509 14.5276 56.4082 2.44277 57.6272L2.14167 54.6424C13.9608 53.4501 21.0921 50.5034 25.0327 46.7617C28.8821 43.1067 29.878 38.5038 28.9669 33.3728C28.0436 28.1734 25.1629 22.5202 21.355 17.105C17.561 11.7097 12.9219 6.65665 8.61604 2.66945L10.6543 0.468243Z" fill="#F55B47"/>
</svg>
