<svg width="16" height="20" viewBox="0 0 16 20" fill="none" xmlns="http://www.w3.org/2000/svg">
<path d="M1.15256 2.49313L8 0.971481L14.8474 2.49313C15.2287 2.57786 15.5 2.91604 15.5 3.30662V11.6289C15.5 13.3006 14.6645 14.8618 13.2735 15.7891L8 19.3048L2.7265 15.7891C1.33551 14.8618 0.5 13.3006 0.5 11.6289V3.30662C0.5 2.91604 0.771275 2.57786 1.15256 2.49313ZM2.16667 3.9751V11.6289C2.16667 12.7434 2.72367 13.7841 3.651 14.4024L8 17.3017L12.349 14.4024C13.2763 13.7841 13.8333 12.7434 13.8333 11.6289V3.9751L8 2.67881L2.16667 3.9751ZM8 9.30482C6.84942 9.30482 5.91667 8.37207 5.91667 7.22148C5.91667 6.07089 6.84942 5.13815 8 5.13815C9.15058 5.13815 10.0833 6.07089 10.0833 7.22148C10.0833 8.37207 9.15058 9.30482 8 9.30482ZM4.27288 13.4715C4.48016 11.5965 6.06977 10.1381 8 10.1381C9.93025 10.1381 11.5198 11.5965 11.7271 13.4715H4.27288Z" fill="#F55B47"/>
</svg>
