<svg width="19" height="16" viewBox="0 0 19 16" fill="none" xmlns="http://www.w3.org/2000/svg">
<path d="M17.3366 3.97121H18.1699V12.3046H17.3366V14.8046C17.3366 15.2648 16.9635 15.6379 16.5033 15.6379H1.50326C1.04302 15.6379 0.669922 15.2648 0.669922 14.8046V1.47121C0.669922 1.01097 1.04302 0.637878 1.50326 0.637878H16.5033C16.9635 0.637878 17.3366 1.01097 17.3366 1.47121V3.97121ZM15.6699 12.3046H10.6699C8.36877 12.3046 6.50325 10.4391 6.50325 8.13789C6.50325 5.83669 8.36877 3.97121 10.6699 3.97121H15.6699V2.30455H2.33659V13.9712H15.6699V12.3046ZM16.5033 10.6379V5.63788H10.6699C9.28919 5.63788 8.16994 6.75714 8.16994 8.13789C8.16994 9.51855 9.28919 10.6379 10.6699 10.6379H16.5033ZM10.6699 7.30455H13.1699V8.97122H10.6699V7.30455Z" fill="#F55B47"/>
</svg>
