<svg width="22" height="23" viewBox="0 0 22 23" fill="none" xmlns="http://www.w3.org/2000/svg">
<path d="M2.44444 0.138672H19.5556C20.2039 0.138672 20.8256 0.396211 21.284 0.854633C21.7425 1.31306 22 1.93481 22 2.58312V19.6942C22 20.3425 21.7425 20.9643 21.284 21.4227C20.8256 21.8811 20.2039 22.1387 19.5556 22.1387H2.44444C1.79614 22.1387 1.17438 21.8811 0.715961 21.4227C0.257539 20.9643 0 20.3425 0 19.6942V2.58312C0 1.93481 0.257539 1.31306 0.715961 0.854633C1.17438 0.396211 1.79614 0.138672 2.44444 0.138672ZM18.3333 2.58312H15.2778C14.1432 2.58312 13.0552 3.03381 12.2529 3.83605C11.4507 4.63829 11 5.72636 11 6.86089V9.91645H8.55556V13.5831H11V22.1387H14.6667V13.5831H18.3333V9.91645H14.6667V7.472C14.6667 7.14785 14.7954 6.83698 15.0246 6.60776C15.2539 6.37855 15.5647 6.24978 15.8889 6.24978H18.3333V2.58312Z" fill="white"/>
</svg>
