<svg width="210" height="237" viewBox="0 0 210 237" fill="none" xmlns="http://www.w3.org/2000/svg">
<g clip-path="url(#clip0_77_10344)">
<path opacity="0.3" d="M148.002 3.93359L0.833008 102.614L148.002 194.855L295.549 102.804L148.002 3.93359Z" fill="url(#paint0_linear_77_10344)"/>
<path opacity="0.3" d="M148.002 3.93359L0.833008 102.804H64.0947H295.549L148.002 3.93359Z" fill="url(#paint1_linear_77_10344)"/>
<path d="M227.865 14.5572C232.537 18.8344 235.86 24.2382 236.37 30.6485C236.414 32.1385 236.423 33.6262 236.417 35.1166C236.42 35.6847 236.422 36.2527 236.425 36.8207C236.432 38.3501 236.432 39.8793 236.429 41.4087C236.428 42.6908 236.431 43.9729 236.433 45.255C236.438 48.2817 236.438 51.3083 236.433 54.3351C236.429 57.4466 236.434 60.558 236.444 63.6696C236.453 66.3521 236.455 69.0346 236.453 71.7172C236.452 73.3145 236.453 74.9118 236.459 76.5092C236.465 78.0117 236.464 79.514 236.456 81.0165C236.455 81.5643 236.456 82.1122 236.46 82.6601C236.502 88.937 234.689 93.8584 230.399 98.433C227.521 101.346 224.624 103.739 221.112 105.838C220.131 106.441 219.153 107.051 218.176 107.661C217.917 107.822 217.659 107.983 217.392 108.148C215.658 109.232 213.952 110.351 212.257 111.496C209.898 113.088 207.488 114.58 205.055 116.055C202.917 117.352 200.808 118.687 198.709 120.046C196.902 121.215 195.085 122.369 193.269 123.523C192.914 123.749 192.558 123.975 192.192 124.208C191.463 124.672 190.733 125.136 190.003 125.6C188.251 126.715 186.498 127.83 184.746 128.945C184.403 129.163 184.06 129.381 183.707 129.606C181.956 130.72 180.206 131.834 178.455 132.949C174.897 135.216 171.336 137.478 167.767 139.728C165.835 140.946 163.907 142.173 161.982 143.402C157.85 146.038 153.707 148.658 149.518 151.202C148.908 151.581 148.316 151.988 147.73 152.403C146.526 152.969 145.853 152.805 144.592 152.432C143.688 151.908 143.688 151.908 142.816 151.248C140.365 149.452 137.806 147.853 135.225 146.252C132.766 144.725 130.323 143.185 127.924 141.564C122.305 137.777 116.485 134.289 110.721 130.728C107.647 128.826 104.59 126.897 101.537 124.962C100.043 124.015 98.5466 123.071 97.0508 122.127C96.451 121.748 95.8512 121.369 95.2515 120.99C94.8061 120.709 94.8061 120.709 94.3518 120.422C93.4521 119.854 92.5524 119.285 91.6527 118.717C91.3556 118.53 91.0585 118.342 90.7523 118.149C90.155 117.771 89.5577 117.394 88.9604 117.017C87.4233 116.046 85.8861 115.075 84.3488 114.105C78.5614 110.452 78.5614 110.452 76.0297 108.833C75.0757 108.228 74.1183 107.63 73.159 107.033C66.6306 102.965 66.6306 102.965 64.2836 100.913C64.0585 100.727 63.8333 100.542 63.6014 100.351C60.3676 97.4539 57.7218 92.6203 57.3574 88.2623C57.3118 86.6881 57.3024 85.1175 57.3059 83.5429C57.3031 82.9389 57.2998 82.335 57.2962 81.731C57.2878 80.0982 57.2866 78.4656 57.2873 76.8328C57.2874 75.4651 57.2841 74.0975 57.281 72.7299C57.2737 69.4999 57.2726 66.27 57.2752 63.0401C57.2777 59.7196 57.269 56.3993 57.255 53.0789C57.2433 50.2184 57.239 47.358 57.2405 44.4975C57.2413 42.7934 57.2393 41.0894 57.2299 39.3853C57.2214 37.7805 57.2223 36.176 57.2299 34.5712C57.2312 33.9864 57.2293 33.4015 57.2239 32.8167C57.1576 25.1928 60.1242 19.5537 65.42 14.1651C65.6437 13.9365 65.8673 13.708 66.0977 13.4725C75.5872 4.52653 88.914 1.98456 101.475 1.91044C102.242 1.90422 103.01 1.89394 103.777 1.87936C115.052 1.6673 123.675 4.94141 132.913 11.1773C134.939 12.5281 136.998 13.8282 139.052 15.1358C139.844 15.6411 140.636 16.1466 141.428 16.6525C141.785 16.8786 142.142 17.1048 142.509 17.3378C143.279 17.8388 144.012 18.3629 144.749 18.9106C145.678 19.5481 145.678 19.5481 146.677 19.461C147.856 18.9978 148.817 18.3979 149.871 17.6927C150.342 17.3821 150.812 17.0719 151.283 16.762C151.543 16.5903 151.802 16.4186 152.069 16.2417C154.065 14.9332 156.089 13.6665 158.105 12.3898C159.761 11.3391 161.411 10.2825 163.04 9.19018C182.105 -3.57286 210.8 -0.439059 227.865 14.5572Z" fill="#F55B47"/>
<path d="M0.643995 102.805C1.13045 103.046 1.61669 103.288 2.10284 103.53C2.50903 103.732 2.50903 103.732 2.92343 103.938C3.74981 104.359 4.53655 104.818 5.31848 105.316C5.60008 105.495 5.88169 105.674 6.17182 105.858C6.61153 106.14 6.61153 106.14 7.06013 106.428C7.37451 106.628 7.68889 106.828 8.0128 107.034C10.2677 108.471 12.5105 109.927 14.7522 111.385C17.4513 113.135 20.182 114.833 22.9121 116.534C25.4738 118.131 28.0258 119.742 30.5702 121.367C33.8711 123.474 37.1872 125.556 40.5098 127.628C42.8592 129.094 45.2051 130.565 47.5457 132.045C47.8359 132.228 48.1261 132.412 48.4251 132.601C49.5854 133.335 50.7455 134.069 51.9052 134.804C55.3264 136.972 58.7548 139.127 62.201 141.255C66.9537 144.19 71.6733 147.176 76.3834 150.18C80.7908 152.989 85.2173 155.767 89.6527 158.532C91.5517 159.716 93.4493 160.903 95.3471 162.089C96.1047 162.563 96.8623 163.036 97.6199 163.51C99.1352 164.457 100.65 165.404 102.166 166.351C102.728 166.703 102.728 166.703 103.302 167.061C104.059 167.534 104.816 168.008 105.573 168.481C107.476 169.67 109.38 170.859 111.284 172.046C115.289 174.545 119.284 177.058 123.263 179.598C125.881 181.267 128.511 182.915 131.145 184.558C137.481 188.51 137.481 188.51 139.397 189.814C140.378 190.456 141.36 190.952 142.434 191.421C144.559 192.428 146.726 193.495 147.604 195.801C148.164 198.661 147.983 201.566 147.873 204.462C147.861 205.398 147.852 206.335 147.846 207.272C147.821 209.727 147.758 212.18 147.687 214.635C147.62 217.143 147.591 219.652 147.559 222.161C147.49 227.077 147.381 231.991 147.244 236.905C145.791 236.201 144.475 235.339 143.14 234.437C142.618 234.086 142.096 233.736 141.574 233.386C141.165 233.111 141.165 233.111 140.748 232.831C135.782 229.494 130.786 226.217 125.722 223.031C122.912 221.262 120.125 219.462 117.367 217.612C116.966 217.343 116.565 217.074 116.151 216.797C115.354 216.262 114.557 215.725 113.762 215.188C112.122 214.086 110.495 213.011 108.755 212.075C107.184 211.228 105.759 210.231 104.308 209.195C102.511 207.942 100.643 206.804 98.7801 205.653C98.011 205.175 97.242 204.698 96.4731 204.22C96.0971 203.987 95.721 203.753 95.3336 203.513C92.5115 201.751 89.7118 199.954 86.9185 198.147C86.5051 197.88 86.5051 197.88 86.0833 197.608C84.5763 196.631 83.0782 195.644 81.5896 194.639C78.8896 192.818 76.1421 191.083 73.3759 189.364C70.6782 187.687 67.999 185.995 65.3679 184.216C63.1135 182.698 60.8226 181.237 58.5312 179.775C54.6643 177.307 50.8124 174.818 46.9691 172.314C45.5846 171.413 44.1977 170.515 42.8105 169.618C42.4183 169.365 42.4183 169.365 42.0181 169.106C41.4949 168.767 40.9716 168.429 40.4483 168.091C38.8416 167.052 37.2353 166.012 35.629 164.973C34.3304 164.132 33.0315 163.292 31.7318 162.453C29.2611 160.858 26.7939 159.258 24.3331 157.647C24.1178 157.506 23.9026 157.365 23.6809 157.22C22.6116 156.521 21.5427 155.82 20.474 155.12C18.6115 153.9 16.746 152.685 14.8657 151.493C12.687 150.111 10.5266 148.702 8.36849 147.289C7.71725 146.862 7.06576 146.436 6.41422 146.01C5.2478 145.246 4.08142 144.483 2.91687 143.717C2.52456 143.53 2.13225 143.343 1.72806 143.151C0.540639 142.111 0.480493 141.997 0.370672 140.524C0.364082 139.82 0.37013 139.117 0.385966 138.413C0.385469 137.836 0.385469 137.836 0.384961 137.248C0.386544 135.977 0.404227 134.707 0.422035 133.436C0.426274 132.555 0.429509 131.673 0.43178 130.792C0.440459 128.473 0.462788 126.154 0.48793 123.835C0.511178 121.468 0.521561 119.102 0.533015 116.735C0.557393 112.092 0.596186 107.449 0.643995 102.805Z" fill="#B1B4B8"/>
<path opacity="0.4" d="M295.345 102.805C294.859 103.046 294.372 103.288 293.886 103.53C293.48 103.732 293.48 103.732 293.066 103.938C292.239 104.359 291.452 104.818 290.671 105.316C290.389 105.495 290.107 105.674 289.817 105.858C289.377 106.14 289.377 106.14 288.929 106.428C288.615 106.628 288.3 106.828 287.976 107.034C285.721 108.471 283.479 109.927 281.237 111.385C278.538 113.135 275.807 114.833 273.077 116.534C270.515 118.131 267.963 119.742 265.419 121.367C262.118 123.474 258.802 125.556 255.479 127.628C253.13 129.094 250.784 130.565 248.443 132.045C248.153 132.228 247.863 132.412 247.564 132.601C246.404 133.335 245.244 134.069 244.084 134.804C240.663 136.972 237.234 139.127 233.788 141.255C229.035 144.19 224.316 147.176 219.606 150.18C215.198 152.989 210.772 155.767 206.336 158.532C204.437 159.716 202.54 160.903 200.642 162.089C199.884 162.563 199.127 163.036 198.369 163.51C196.854 164.457 195.339 165.404 193.823 166.351C193.261 166.703 193.261 166.703 192.687 167.061C191.93 167.534 191.173 168.008 190.416 168.481C188.513 169.67 186.61 170.859 184.705 172.046C180.7 174.545 176.705 177.058 172.726 179.598C170.108 181.267 167.478 182.915 164.844 184.558C158.508 188.51 158.508 188.51 156.592 189.814C155.611 190.456 154.629 190.952 153.555 191.421C151.43 192.428 149.263 193.495 148.385 195.801C147.825 198.661 148.006 201.566 148.116 204.462C148.128 205.398 148.137 206.335 148.143 207.272C148.168 209.727 148.231 212.18 148.302 214.635C148.369 217.143 148.398 219.652 148.43 222.161C148.499 227.077 148.608 231.991 148.745 236.905C150.198 236.201 151.514 235.339 152.849 234.437C153.371 234.086 153.893 233.736 154.415 233.386C154.824 233.111 154.824 233.111 155.241 232.831C160.207 229.494 165.203 226.217 170.267 223.031C173.077 221.262 175.864 219.462 178.622 217.612C179.023 217.343 179.424 217.074 179.838 216.797C180.635 216.262 181.432 215.725 182.227 215.188C183.867 214.086 185.494 213.011 187.234 212.075C188.805 211.228 190.23 210.231 191.681 209.195C193.478 207.942 195.346 206.804 197.209 205.653C197.978 205.175 198.747 204.698 199.516 204.22C199.892 203.987 200.268 203.753 200.655 203.513C203.477 201.751 206.277 199.954 209.071 198.147C209.484 197.88 209.484 197.88 209.906 197.608C211.413 196.631 212.911 195.644 214.399 194.639C217.099 192.818 219.847 191.083 222.613 189.364C225.311 187.687 227.99 185.995 230.621 184.216C232.875 182.698 235.166 181.237 237.458 179.775C241.325 177.307 245.177 174.818 249.02 172.314C250.404 171.413 251.791 170.515 253.178 169.618C253.571 169.365 253.571 169.365 253.971 169.106C254.494 168.767 255.017 168.429 255.541 168.091C257.147 167.052 258.754 166.012 260.36 164.973C261.659 164.132 262.958 163.292 264.257 162.453C266.728 160.858 269.195 159.258 271.656 157.647C271.871 157.506 272.086 157.365 272.308 157.22C273.377 156.521 274.446 155.82 275.515 155.12C277.378 153.9 279.243 152.685 281.123 151.493C283.302 150.111 285.462 148.702 287.621 147.289C288.272 146.862 288.923 146.436 289.575 146.01C290.741 145.246 291.908 144.483 293.072 143.717C293.464 143.53 293.857 143.343 294.261 143.151C295.448 142.111 295.509 141.997 295.618 140.524C295.625 139.82 295.619 139.117 295.603 138.413C295.604 137.836 295.604 137.836 295.604 137.248C295.602 135.977 295.585 134.707 295.567 133.436C295.563 132.555 295.56 131.673 295.557 130.792C295.549 128.473 295.526 126.154 295.501 123.835C295.478 121.468 295.467 119.102 295.456 116.735C295.432 112.092 295.393 107.449 295.345 102.805Z" fill="#B1B4B8"/>
<path d="M57.4634 33.8643C57.5884 33.8643 57.7134 33.8643 57.8422 33.8643C58.0342 34.4632 58.223 35.0632 58.4104 35.6636C58.5159 35.9976 58.6213 36.3316 58.73 36.6758C58.9786 37.6524 58.9786 37.6524 58.9786 39.1676C59.2286 39.1676 59.4786 39.1676 59.7362 39.1676C59.9905 39.7193 60.2426 40.2719 60.4939 40.8249C60.6345 41.1326 60.7751 41.4402 60.92 41.7572C61.2515 42.5769 61.2515 42.5769 61.2515 43.3346C61.6265 43.4596 62.0015 43.5846 62.3879 43.7134C62.9089 44.4601 63.4115 45.2198 63.9032 45.9862C65.2097 47.6709 66.5735 48.997 68.2595 50.2952C68.6087 50.5663 68.6087 50.5663 68.965 50.8427C71.0014 52.3975 73.1307 53.7521 75.3393 55.0506C76.65 55.8264 77.9462 56.6262 79.2451 57.4216C79.5301 57.5957 79.8151 57.7698 80.1087 57.9491C84.9398 60.9006 89.7492 63.8875 94.5477 66.8919C98.7937 69.5485 103.054 72.1828 107.325 74.7997C109.325 76.0281 111.308 77.2831 113.291 78.5404C115.643 80.0311 118.007 81.4938 120.401 82.9164C122.854 84.3776 125.278 85.8853 127.702 87.3936C129.628 88.5908 131.564 89.7698 133.511 90.9337C134.573 91.5697 135.628 92.2152 136.682 92.8643C137.093 93.1167 137.503 93.3692 137.925 93.6293C138.923 94.2464 139.917 94.8703 140.909 95.4967C141.319 95.7551 141.319 95.7551 141.737 96.0187C142.273 96.3567 142.808 96.6958 143.343 97.036C144.382 97.6909 145.314 98.2512 146.484 98.6412C146.484 116.517 146.484 134.393 146.484 152.811C144.725 152.459 144.192 152.258 142.838 151.249C140.374 149.462 137.809 147.857 135.223 146.253C132.764 144.726 130.321 143.186 127.922 141.565C122.304 137.778 116.483 134.29 110.72 130.729C107.645 128.827 104.589 126.898 101.535 124.963C100.041 124.016 98.5451 123.072 97.0492 122.128C96.4495 121.749 95.8497 121.37 95.2499 120.991C94.8046 120.71 94.8046 120.71 94.3502 120.423C93.0007 119.571 93.0007 119.571 91.6512 118.718C91.354 118.531 91.0569 118.343 90.7508 118.15C90.1534 117.772 89.5561 117.395 88.9588 117.018C87.4217 116.047 85.8846 115.076 84.3472 114.106C78.5599 110.453 78.5599 110.453 76.0281 108.834C75.0741 108.229 74.1167 107.631 73.1574 107.034C66.629 102.966 66.629 102.966 64.282 100.914C63.9443 100.636 63.9443 100.636 63.5998 100.352C60.4036 97.4886 57.7291 92.6671 57.3612 88.351C57.3239 86.9169 57.3225 85.4852 57.3344 84.0509C57.3347 83.5018 57.3345 82.9526 57.3339 82.4035C57.3335 80.9221 57.3402 79.4408 57.3481 77.9595C57.3553 76.4079 57.3559 74.8563 57.3573 73.3047C57.3608 70.3707 57.3701 67.4368 57.3815 64.5028C57.3943 61.1608 57.4005 57.8188 57.4062 54.4768C57.418 47.606 57.438 40.7351 57.4634 33.8643Z" fill="#AE2524"/>
<path d="M235.506 36.5112C235.631 36.5112 235.756 36.5112 235.885 36.5112C235.929 43.298 235.962 50.0848 235.983 56.8717C235.993 60.0234 236.006 63.175 236.028 66.3266C236.047 69.0752 236.059 71.8238 236.063 74.5725C236.065 76.0264 236.071 77.4802 236.085 78.934C236.098 80.3059 236.102 81.6775 236.099 83.0494C236.1 83.786 236.11 84.5225 236.12 85.259C236.085 91.2985 233.201 95.839 229.016 99.9828C226.948 101.955 224.661 103.553 222.247 105.076C222.011 105.225 221.774 105.375 221.531 105.528C220.518 106.165 219.504 106.798 218.487 107.427C216.787 108.479 215.119 109.568 213.464 110.687C210.841 112.458 208.156 114.121 205.461 115.78C203.179 117.184 200.917 118.613 198.668 120.069C196.874 121.229 195.071 122.374 193.268 123.52C192.913 123.746 192.557 123.972 192.191 124.205C191.462 124.669 190.732 125.132 190.003 125.596C188.25 126.711 186.497 127.826 184.745 128.941C184.231 129.269 184.231 129.269 183.707 129.602C181.956 130.716 180.205 131.831 178.455 132.946C174.896 135.212 171.335 137.474 167.766 139.724C165.834 140.943 163.906 142.169 161.981 143.398C158.783 145.438 155.578 147.466 152.357 149.468C152.028 149.673 151.7 149.878 151.362 150.089C150.899 150.376 150.899 150.376 150.427 150.668C150.025 150.918 150.025 150.918 149.614 151.173C148.593 151.766 147.542 152.282 146.485 152.807C146.29 146.132 146.143 139.458 146.053 132.782C146.01 129.681 145.952 126.582 145.856 123.482C145.773 120.778 145.719 118.076 145.701 115.37C145.69 113.939 145.665 112.511 145.604 111.081C145.248 102.429 145.248 102.429 147.287 99.9243C149.243 98.2332 151.411 97.1119 153.77 96.0837C155.369 95.3551 156.821 94.4198 158.299 93.4751C158.855 93.1355 159.412 92.797 159.97 92.46C161.99 91.2282 163.988 89.9622 165.986 88.6952C168.421 87.1524 170.864 85.6245 173.31 84.0995C177.643 81.3948 181.956 78.6591 186.26 75.9077C186.634 75.669 187.007 75.4303 187.392 75.1843C189.367 73.9213 191.342 72.6575 193.316 71.393C194.933 70.3572 196.551 69.3224 198.169 68.2885C202.462 65.5457 206.746 62.7907 211.013 60.0094C212.46 59.0664 213.91 58.128 215.362 57.1917C216.414 56.5127 217.463 55.8309 218.513 55.1491C219.158 54.7322 219.806 54.3201 220.454 53.9085C227.323 49.476 232.364 44.1616 235.506 36.5112Z" fill="#F34938"/>
<path d="M233.991 23.2598C234.749 23.6386 234.749 23.6386 235.058 24.3415C235.198 24.7787 235.198 24.7787 235.341 25.2249C235.435 25.5115 235.529 25.7981 235.626 26.0935C236.145 28.005 236.311 29.832 236.31 31.8088C236.31 32.5498 236.31 32.5498 236.311 33.3057C236.31 33.8485 236.309 34.3912 236.307 34.934C236.307 35.509 236.307 36.0841 236.307 36.6592C236.307 38.2165 236.305 39.7738 236.303 41.3312C236.3 42.9601 236.3 44.5891 236.299 46.218C236.298 49.3009 236.295 52.3839 236.291 55.4668C236.287 58.9773 236.285 62.4878 236.283 65.9984C236.279 73.2182 236.273 80.438 236.264 87.6579C236.139 87.6579 236.014 87.6579 235.885 87.6579C235.76 71.1568 235.635 54.6557 235.506 37.6546C234.756 39.1547 234.006 40.6548 233.234 42.2004C232.249 43.519 231.276 44.7517 230.203 45.9885C229.974 46.2722 229.745 46.5559 229.509 46.8482C226.08 50.9702 221.524 53.7035 217.022 56.4991C214.939 57.7941 212.887 59.1335 210.836 60.4781C206.599 63.2511 202.337 65.9833 198.069 68.7078C196.464 69.7329 194.86 70.7602 193.256 71.7874C186.726 75.9699 180.186 80.1374 173.627 84.2737C172.436 85.0247 171.246 85.7775 170.058 86.5318C167.139 88.3826 164.212 90.2183 161.259 92.0142C158.84 93.4859 156.433 94.9775 154.038 96.4889C153.75 96.6706 153.461 96.8522 153.164 97.0394C151.399 98.1564 149.663 99.307 147.944 100.495C147.243 100.916 147.243 100.916 146.486 100.916C146.526 100.077 146.526 100.077 146.864 99.0222C147.657 98.3546 148.382 97.8331 149.256 97.2939C149.507 97.1327 149.759 96.9714 150.018 96.8053C152.682 95.1117 155.401 93.5024 158.115 91.8899C161.187 90.0601 164.218 88.1636 167.253 86.2727C167.835 85.9134 168.421 85.5588 169.008 85.2076C169.981 84.6216 170.941 84.0179 171.899 83.4066C172.446 83.0571 172.446 83.0571 173.005 82.7006C173.379 82.4613 173.753 82.2221 174.139 81.9757C174.669 81.6366 174.669 81.6366 175.211 81.2907C176.322 80.5803 177.432 79.8693 178.543 79.1582C179.375 78.6255 180.207 78.0928 181.039 77.5601C181.25 77.4249 181.461 77.2896 181.679 77.1503C183.167 76.1976 184.656 75.2451 186.144 74.2929C186.964 73.7681 187.785 73.2433 188.605 72.7184C189.004 72.463 189.403 72.2075 189.815 71.9443C191.836 70.6506 193.856 69.3547 195.873 68.0543C197.582 66.9534 199.3 65.8664 201.021 64.7845C203.739 63.075 206.436 61.3423 209.099 59.5476C211.021 58.2583 212.973 57.0211 214.932 55.7903C216.109 55.0491 217.284 54.3071 218.46 53.5647C218.691 53.4192 218.923 53.2736 219.161 53.1236C221.957 51.3553 224.405 49.4113 226.794 47.1249C227.086 46.8608 227.379 46.5966 227.68 46.3244C231.863 42.4129 235.108 36.9112 235.31 31.0873C235.327 29.2628 235.303 27.6909 234.548 26.0165C233.991 24.775 233.991 24.775 233.991 23.2598Z" fill="#F89883"/>
<path d="M57.4644 33.8643C57.5894 33.8643 57.7144 33.8643 57.8432 33.8643C59.1864 37.9097 59.1864 37.9097 58.9796 39.9253C58.8546 40.0503 58.7296 40.1753 58.6008 40.3041C58.5538 41.0181 58.5334 41.7338 58.523 42.4493C58.5155 42.914 58.5079 43.3786 58.5001 43.8574C58.4937 44.3756 58.4873 44.8939 58.481 45.4121C58.4731 45.952 58.4651 46.4919 58.4571 47.0317C58.4358 48.4942 58.4171 49.9566 58.3991 51.419C58.3878 52.3278 58.3757 53.2366 58.3634 54.1453C58.2014 66.1995 58.1779 78.2522 58.222 90.3073C57.4644 89.5497 57.4644 89.5497 57.3712 88.5868C57.3719 88.1768 57.3726 87.7669 57.3733 87.3445C57.3722 86.8749 57.3712 86.4053 57.3701 85.9215C57.3728 85.3983 57.3756 84.8751 57.3784 84.3519C57.3786 83.8032 57.3785 83.2544 57.378 82.7057C57.3778 81.2132 57.3823 79.7208 57.3876 78.2283C57.3923 76.6697 57.3927 75.111 57.3936 73.5523C57.396 70.5994 57.4022 67.6466 57.4098 64.6938C57.4183 61.3326 57.4224 57.9715 57.4263 54.6103C57.4342 47.6949 57.4475 40.7796 57.4644 33.8643Z" fill="#972A2A"/>
<path d="M168.078 85.7593C168.265 86.1343 168.265 86.1343 168.457 86.5169C168.207 86.5169 167.957 86.5169 167.699 86.5169C167.699 86.7669 167.699 87.0169 167.699 87.2745C167.449 87.5245 167.199 87.7746 166.941 88.0322C166.726 88.267 166.511 88.5019 166.289 88.7439C165.277 89.6866 164.179 90.3537 162.988 91.039C162.48 91.3373 161.973 91.6363 161.466 91.9357C161.192 92.0977 160.917 92.2597 160.634 92.4266C158.977 93.4137 157.336 94.4279 155.695 95.4427C155.355 95.6527 155.015 95.8627 154.665 96.0791C152.416 97.4749 150.207 98.9129 148.032 100.422C147.243 100.912 147.243 100.912 146.486 100.912C146.526 100.073 146.526 100.073 146.864 99.0177C147.657 98.3501 148.382 97.8286 149.256 97.2894C149.633 97.0475 149.633 97.0475 150.018 96.8008C152.68 95.1088 155.396 93.5008 158.107 91.8898C161.46 89.8933 164.766 87.8218 168.078 85.7593Z" fill="#F9907B"/>
<path d="M57.8442 35.7529C58.7441 36.6528 58.7414 37.0041 58.8623 38.2389C58.895 38.5441 58.9277 38.8493 58.9614 39.1637C58.971 39.538 58.971 39.538 58.9807 39.9199C58.8557 40.0449 58.7307 40.1699 58.6019 40.2987C58.5549 41.1235 58.5344 41.9498 58.5241 42.7758C58.5203 43.0345 58.5166 43.2932 58.5127 43.5598C58.5007 44.4186 58.4914 45.2774 58.482 46.1362C58.4742 46.7302 58.4663 47.3242 58.4581 47.9182C58.4372 49.4844 58.4185 51.0506 58.4002 52.6169C58.3812 54.214 58.3601 55.8111 58.3392 57.4081C58.2984 60.5439 58.26 63.6797 58.2231 66.8155C58.098 66.8155 57.973 66.8155 57.8442 66.8155C57.8442 56.5649 57.8442 46.3142 57.8442 35.7529Z" fill="#950F11"/>
<path d="M68.0693 11.8901C68.4444 12.0151 68.8194 12.1402 69.2058 12.2689C67.3307 14.1441 65.4555 16.0192 63.5236 17.9511C63.3986 17.7011 63.2736 17.4511 63.1448 17.1935C64.1534 14.9872 66.0767 13.2186 68.0693 11.8901Z" fill="#EA5041"/>
<path d="M57.845 35.7529C58.7532 36.6612 58.7324 37.0154 58.8393 38.2626C58.8677 38.5722 58.896 38.8817 58.9252 39.2007C58.9437 39.438 58.9623 39.6754 58.9814 39.9199C58.6064 40.1074 58.6064 40.1074 58.2238 40.2987C57.7456 39.3423 57.8076 38.6652 57.8213 37.5996C57.8247 37.2549 57.8281 36.9101 57.8316 36.5549C57.836 36.2903 57.8404 36.0256 57.845 35.7529Z" fill="#A71514"/>
<path d="M154.818 14.9199C154.44 16.0564 154.44 16.0564 153.303 16.814C152.474 16.6719 152.474 16.6719 151.788 16.4352C153.966 14.9199 153.966 14.9199 154.818 14.9199Z" fill="#E26C5A"/>
</g>
<defs>
<linearGradient id="paint0_linear_77_10344" x1="148.191" y1="3.93359" x2="148.191" y2="194.855" gradientUnits="userSpaceOnUse">
<stop stop-color="#E0E1E3"/>
<stop offset="1" stop-color="#7B7C7D"/>
</linearGradient>
<linearGradient id="paint1_linear_77_10344" x1="148.191" y1="3.93359" x2="148.191" y2="194.855" gradientUnits="userSpaceOnUse">
<stop stop-color="#E0E1E3"/>
<stop offset="1" stop-color="#7B7C7D"/>
</linearGradient>
<clipPath id="clip0_77_10344">
<rect width="295.474" height="236" fill="white" transform="translate(0.263184 0.903809)"/>
</clipPath>
</defs>
</svg>
