<svg width="16" height="23" viewBox="0 0 16 23" fill="none" xmlns="http://www.w3.org/2000/svg">
<path d="M6.82985 8.27814L4.99998 8.94416V12.4883H2.99997V7.53828H3.01499L8.28339 5.62075C8.5274 5.52683 8.7922 5.4799 9.0648 5.48908C10.1762 5.51641 11.1522 6.24496 11.4917 7.30864C11.678 7.89259 11.848 8.28664 12.0015 8.49078C12.9138 9.70378 14.3653 10.4883 16 10.4883V12.4883C13.8253 12.4883 11.8823 11.4966 10.5984 9.94088L9.90079 13.8968L12 15.6583V22.4883H10V16.5908L7.73069 14.6867L7.003 18.8136L0.109375 17.5981L0.456665 15.6284L5.3807 16.4967L6.82985 8.27814ZM10.5 4.98828C9.3954 4.98828 8.5 4.09285 8.5 2.98828C8.5 1.88371 9.3954 0.988281 10.5 0.988281C11.6046 0.988281 12.5 1.88371 12.5 2.98828C12.5 4.09285 11.6046 4.98828 10.5 4.98828Z" fill="#F55B47"/>
</svg>
