<svg width="24" height="27" viewBox="0 0 24 27" fill="none" xmlns="http://www.w3.org/2000/svg">
<mask id="mask0_52_8722" style="mask-type:luminance" maskUnits="userSpaceOnUse" x="0" y="0" width="24" height="25">
<path d="M24 0.138672H0V24.1387H24V0.138672Z" fill="white"/>
</mask>
<g mask="url(#mask0_52_8722)">
<path d="M12 2.29961C15.2063 2.29961 15.5859 2.31367 16.8469 2.36992C18.0188 2.42148 18.6516 2.61836 19.0734 2.78242C19.6313 2.99805 20.0344 3.26055 20.4516 3.67773C20.8734 4.09961 21.1313 4.49805 21.3469 5.05586C21.5109 5.47773 21.7078 6.11523 21.7594 7.28242C21.8156 8.54804 21.8297 8.92773 21.8297 12.1293C21.8297 15.3356 21.8156 15.7153 21.7594 16.9762C21.7078 18.1481 21.5109 18.7809 21.3469 19.2028C21.1313 19.7606 20.8687 20.1637 20.4516 20.5809C20.0297 21.0028 19.6313 21.2606 19.0734 21.4762C18.6516 21.6403 18.0141 21.8371 16.8469 21.8887C15.5813 21.9449 15.2016 21.959 12 21.959C8.79375 21.959 8.41406 21.9449 7.15313 21.8887C5.98125 21.8371 5.34844 21.6403 4.92656 21.4762C4.36875 21.2606 3.96563 20.9981 3.54844 20.5809C3.12656 20.159 2.86875 19.7606 2.65313 19.2028C2.48906 18.7809 2.29219 18.1434 2.24063 16.9762C2.18438 15.7106 2.17031 15.3309 2.17031 12.1293C2.17031 8.92305 2.18438 8.54336 2.24063 7.28242C2.29219 6.11054 2.48906 5.47773 2.65313 5.05586C2.86875 4.49805 3.13125 4.09492 3.54844 3.67773C3.97031 3.25586 4.36875 2.99805 4.92656 2.78242C5.34844 2.61836 5.98594 2.42148 7.15313 2.36992C8.41406 2.31367 8.79375 2.29961 12 2.29961ZM12 0.138672C8.74219 0.138672 8.33438 0.152734 7.05469 0.208984C5.77969 0.265235 4.90313 0.471484 4.14375 0.766797C3.35156 1.07617 2.68125 1.48398 2.01563 2.15429C1.34531 2.81992 0.9375 3.49023 0.628125 4.27773C0.332812 5.0418 0.126563 5.91367 0.0703125 7.18867C0.0140625 8.47304 0 8.88086 0 12.1387C0 15.3965 0.0140625 15.8043 0.0703125 17.084C0.126563 18.359 0.332812 19.2356 0.628125 19.995C0.9375 20.7871 1.34531 21.4575 2.01563 22.1231C2.68125 22.7887 3.35156 23.2012 4.13906 23.5059C4.90313 23.8012 5.775 24.0074 7.05 24.0637C8.32969 24.1199 8.7375 24.134 11.9953 24.134C15.2531 24.134 15.6609 24.1199 16.9406 24.0637C18.2156 24.0074 19.0922 23.8012 19.8516 23.5059C20.6391 23.2012 21.3094 22.7887 21.975 22.1231C22.6406 21.4575 23.0531 20.7871 23.3578 19.9996C23.6531 19.2356 23.8594 18.3637 23.9156 17.0887C23.9719 15.809 23.9859 15.4012 23.9859 12.1434C23.9859 8.88555 23.9719 8.47773 23.9156 7.19805C23.8594 5.92305 23.6531 5.04648 23.3578 4.28711C23.0625 3.49023 22.6547 2.81992 21.9844 2.15429C21.3188 1.48867 20.6484 1.07617 19.8609 0.771484C19.0969 0.476172 18.225 0.269922 16.95 0.213672C15.6656 0.152734 15.2578 0.138672 12 0.138672Z" fill="white"/>
<path d="M12 5.97461C8.59688 5.97461 5.83594 8.73555 5.83594 12.1387C5.83594 15.5418 8.59688 18.3028 12 18.3028C15.4031 18.3028 18.1641 15.5418 18.1641 12.1387C18.1641 8.73555 15.4031 5.97461 12 5.97461ZM12 16.1371C9.79219 16.1371 8.00156 14.3465 8.00156 12.1387C8.00156 9.93086 9.79219 8.14023 12 8.14023C14.2078 8.14023 15.9984 9.93086 15.9984 12.1387C15.9984 14.3465 14.2078 16.1371 12 16.1371Z" fill="white"/>
<path d="M19.8469 5.73105C19.8469 6.52793 19.2 7.17012 18.4078 7.17012C17.6109 7.17012 16.9688 6.52324 16.9688 5.73105C16.9688 4.93417 17.6156 4.29199 18.4078 4.29199C19.2 4.29199 19.8469 4.93886 19.8469 5.73105Z" fill="white"/>
</g>
</svg>
