<svg width="261" height="34" viewBox="0 0 261 34" fill="none" xmlns="http://www.w3.org/2000/svg">
<g clip-path="url(#clip0_52_9026)">
<path d="M95.2 33.1276L84.0332 0.390625H88.4912L98.5105 30.2575L96.3918 29.1812H101.688L99.437 30.2575L108.662 0.390625H112.987L102.615 33.1276H95.2Z" fill="#474645"/>
<path d="M123.756 33.9348C121.696 33.9348 119.916 33.576 118.415 32.8585C116.914 32.141 115.693 31.1992 114.752 30.0332C113.81 28.8374 113.104 27.5069 112.633 26.042C112.192 24.5771 111.971 23.0823 111.971 21.5575V20.7503C111.971 19.1956 112.192 17.6859 112.633 16.221C113.104 14.756 113.81 13.4405 114.752 12.2746C115.693 11.0787 116.885 10.137 118.327 9.44933C119.798 8.73179 121.52 8.37305 123.491 8.37305C126.051 8.37305 128.155 8.94107 129.803 10.0772C131.48 11.1833 132.715 12.6184 133.51 14.3823C134.334 16.1462 134.746 18.0297 134.746 20.0328V21.9611H113.825V18.7323H131.656L130.685 20.4812C130.685 18.7771 130.42 17.3122 129.891 16.0864C129.361 14.8307 128.567 13.8591 127.507 13.1715C126.448 12.4838 125.109 12.14 123.491 12.14C121.814 12.14 120.416 12.5287 119.298 13.306C118.209 14.0833 117.385 15.1446 116.826 16.49C116.297 17.8354 116.032 19.39 116.032 21.1539C116.032 22.858 116.297 24.3977 116.826 25.7729C117.385 27.1183 118.239 28.1946 119.386 29.0018C120.534 29.7791 121.99 30.1678 123.756 30.1678C125.609 30.1678 127.11 29.7492 128.258 28.9121C129.435 28.075 130.141 27.1034 130.376 25.9972H134.349C134.025 27.6415 133.378 29.0616 132.407 30.2575C131.435 31.4533 130.215 32.3652 128.743 32.993C127.272 33.6209 125.609 33.9348 123.756 33.9348Z" fill="#474645"/>
<path d="M137.893 33.1275V9.18014H141.248V19.4497H140.718C140.718 17.0879 141.027 15.0997 141.645 13.4853C142.292 11.8409 143.264 10.6003 144.558 9.76315C145.853 8.89615 147.486 8.46265 149.457 8.46265H149.634C152.606 8.46265 154.798 9.4044 156.21 11.2879C157.652 13.1714 158.373 15.892 158.373 19.4497V33.1275H154.136V18.5528C154.136 16.6992 153.621 15.2193 152.591 14.1131C151.561 12.977 150.149 12.409 148.354 12.409C146.5 12.409 144.999 12.992 143.852 14.158C142.704 15.3239 142.13 16.8786 142.13 18.8219V33.1275H137.893Z" fill="#474645"/>
<path d="M172.437 33.3968C170.672 33.3968 169.142 33.1427 167.847 32.6344C166.582 32.1262 165.596 31.2592 164.89 30.0334C164.213 28.7777 163.875 27.0886 163.875 24.9659V1.91553H167.936V25.5041C167.936 26.7896 168.274 27.7912 168.951 28.5087C169.657 29.1963 170.643 29.5401 171.908 29.5401H176.057V33.3968H172.437ZM159.814 12.4093V9.18041H176.057V12.4093H159.814Z" fill="#474645"/>
<path d="M187.346 33.8452C184.551 33.8452 182.403 32.9184 180.903 31.0648C179.402 29.2112 178.651 26.5354 178.651 23.0375V9.1355H182.888V23.8895C182.888 25.773 183.389 27.2529 184.389 28.3292C185.39 29.3756 186.743 29.8988 188.45 29.8988C190.215 29.8988 191.657 29.3307 192.775 28.1947C193.894 27.0287 194.452 25.4442 194.452 23.4411V9.1355H198.69V33.1276H195.336V22.8581H195.865C195.865 25.22 195.556 27.2231 194.938 28.8674C194.32 30.4818 193.393 31.7225 192.157 32.5895C190.951 33.4266 189.406 33.8452 187.523 33.8452H187.346Z" fill="#474645"/>
<path d="M204.027 33.1275V9.18018H207.382V19.0461H207.205C207.205 15.5482 207.956 12.992 209.456 11.3776C210.986 9.73331 213.267 8.91113 216.297 8.91113H217.092V12.7678H215.591C213.237 12.7678 211.428 13.4106 210.163 14.6961C208.897 15.9518 208.264 17.7755 208.264 20.1673V33.1275H204.027Z" fill="#474645"/>
<path d="M229.022 33.9348C226.963 33.9348 225.182 33.576 223.682 32.8585C222.181 32.141 220.96 31.1992 220.018 30.0332C219.076 28.8374 218.371 27.5069 217.899 26.042C217.458 24.5771 217.238 23.0823 217.238 21.5575V20.7503C217.238 19.1956 217.458 17.6859 217.899 16.221C218.371 14.756 219.076 13.4405 220.018 12.2746C220.96 11.0787 222.152 10.137 223.594 9.44933C225.065 8.73179 226.786 8.37305 228.758 8.37305C231.317 8.37305 233.421 8.94107 235.069 10.0772C236.747 11.1833 237.982 12.6184 238.777 14.3823C239.601 16.1462 240.012 18.0297 240.012 20.0328V21.9611H219.091V18.7323H236.923L235.952 20.4812C235.952 18.7771 235.687 17.3122 235.158 16.0864C234.628 14.8307 233.833 13.8591 232.774 13.1715C231.715 12.4838 230.376 12.14 228.758 12.14C227.08 12.14 225.683 12.5287 224.564 13.306C223.476 14.0833 222.652 15.1446 222.093 16.49C221.563 17.8354 221.298 19.39 221.298 21.1539C221.298 22.858 221.563 24.3977 222.093 25.7729C222.652 27.1183 223.505 28.1946 224.653 29.0018C225.8 29.7791 227.257 30.1678 229.022 30.1678C230.876 30.1678 232.377 29.7492 233.524 28.9121C234.701 28.075 235.408 27.1034 235.643 25.9972H239.615C239.292 27.6415 238.644 29.0616 237.673 30.2575C236.702 31.4533 235.481 32.3652 234.01 32.993C232.539 33.6209 230.876 33.9348 229.022 33.9348Z" fill="#474645"/>
<path d="M250.884 33.845C247.794 33.845 245.396 33.1723 243.689 31.827C242.012 30.4816 241.144 28.6429 241.085 26.311H245.058C245.116 27.2378 245.573 28.1197 246.426 28.9569C247.309 29.7641 248.795 30.1677 250.884 30.1677C252.767 30.1677 254.209 29.794 255.21 29.0466C256.21 28.2692 256.71 27.3275 256.71 26.2213C256.71 25.2347 256.342 24.4724 255.607 23.9342C254.871 23.3662 253.68 22.9925 252.031 22.8131L249.472 22.544C247.235 22.3049 245.411 21.6321 243.998 20.526C242.586 19.3899 241.88 17.8054 241.88 15.7724C241.88 14.2477 242.262 12.9472 243.027 11.8709C243.793 10.7647 244.852 9.9276 246.205 9.35953C247.559 8.76162 249.119 8.46265 250.884 8.46265C253.532 8.46265 255.68 9.06055 257.328 10.2565C258.976 11.4523 259.829 13.2311 259.888 15.593H255.915C255.886 14.6363 255.445 13.8291 254.591 13.1714C253.768 12.4837 252.532 12.1399 250.884 12.1399C249.236 12.1399 247.985 12.4837 247.132 13.1714C246.279 13.859 245.852 14.726 245.852 15.7724C245.852 16.6693 246.146 17.3868 246.735 17.925C247.353 18.4631 248.353 18.8069 249.736 18.9564L252.296 19.2255C254.827 19.4945 256.857 20.2121 258.387 21.378C259.918 22.5141 260.683 24.1285 260.683 26.2213C260.683 27.7161 260.256 29.0466 259.402 30.2125C258.579 31.3486 257.431 32.2455 255.96 32.9032C254.488 33.5311 252.796 33.845 250.884 33.845Z" fill="#474645"/>
<path d="M12.2579 33.9348C9.75263 33.9348 7.59036 33.4506 5.77105 32.4823C3.98155 31.5139 2.60961 30.2279 1.65522 28.624C0.700827 26.9899 0.223633 25.1743 0.223633 23.1771H6.35263C6.35263 24.7809 6.87453 26.0821 7.91841 27.0807C8.9921 28.049 10.4386 28.5332 12.2579 28.5332C13.4807 28.5332 14.5246 28.3063 15.3895 27.8524C16.2843 27.3682 16.9702 26.7176 17.4474 25.9005C17.9246 25.0532 18.1632 24.0849 18.1632 22.9955C18.1632 21.3614 17.6413 20.0299 16.5974 19.0011C15.5536 17.9419 14.1219 17.4124 12.3027 17.4124C11.4079 17.4124 10.6176 17.5334 9.93157 17.7755C9.27542 18.0176 8.69384 18.3353 8.18684 18.7287L5.27894 13.6449L15.8382 6.4759L17.4582 5.38369L1.56575 5.42906V0.390625H24.4731V5.42906L11.8553 14.008L8.41052 13.3725C8.9772 13.191 9.58862 13.0548 10.2447 12.964C10.9009 12.843 11.6167 12.7825 12.3921 12.7825C14.8676 12.7825 16.9851 13.2212 18.7448 14.0988C20.5343 14.9461 21.9062 16.1263 22.8606 17.6393C23.815 19.1524 24.2922 20.8923 24.2922 22.8593V23.4494C24.2922 25.3558 23.815 27.1109 22.8606 28.7148C21.9062 30.2883 20.5343 31.5593 18.7448 32.5276C16.9553 33.4657 14.793 33.9348 12.2579 33.9348Z" fill="#474645"/>
<path d="M26.1177 33.9348V0.390625H32.3361V33.9348H26.1177ZM31.4414 33.9348V28.3063H46.4128V33.9348H31.4414ZM31.4414 19.6365V14.1896H46.4128V19.6365H31.4414ZM31.4414 6.06454V0.390625H46.4128V6.06454H31.4414Z" fill="#474645"/>
<path d="M53.9701 33.9348V28.3063H60.7254C62.4254 28.3063 63.9317 28.049 65.2438 27.5346C66.5859 26.9899 67.7195 26.2334 68.6442 25.2651C69.5685 24.2967 70.2695 22.7988 70.7469 21.4976C71.2537 20.1661 71.5074 19.0616 71.5074 17.4578C71.5074 15.7934 71.2537 13.9475 70.7469 12.6463C70.2695 11.3148 69.5685 9.86225 68.6442 8.92416C67.7195 7.98608 66.5859 7.27499 65.2438 6.7908C63.9317 6.30661 62.4254 6.06454 60.7254 6.06454H53.9701V0.390625H60.3227C63.2754 0.390625 65.8553 0.829409 68.0622 1.70697C70.2695 2.58453 72.1037 3.79497 73.5653 5.33828C75.0264 6.85133 76.1153 8.59132 76.8311 10.5583C77.5764 12.495 77.9495 14.5073 77.9495 16.5953V17.5939C77.9495 19.5911 77.5764 21.5581 76.8311 23.4948C76.1153 25.4315 75.0264 27.1866 73.5653 28.7602C72.1037 30.3337 70.2695 31.5895 68.0622 32.5276C65.8553 33.4657 63.2754 33.9348 60.3227 33.9348H53.9701ZM48.5122 33.9348V0.390625H54.8648V33.9348H48.5122Z" fill="#474645"/>
</g>
<defs>
<clipPath id="clip0_52_9026">
<rect width="260.816" height="34" fill="white"/>
</clipPath>
</defs>
</svg>
