<svg width="288" height="48" viewBox="0 0 288 48" fill="none" xmlns="http://www.w3.org/2000/svg">
<g clip-path="url(#clip0_52_9045)">
<path d="M1.41895 0.0490723H16.2628V4.65639H6.01646V9.24164H16.2604V13.8392H6.01891V18.4391H16.2653V23.0366H1.4214L1.41895 0.0490723Z" fill="#474645"/>
<path d="M67.3943 0.0366211H76.3933C81.0888 0.0366211 84.4806 3.45044 84.4806 8.07981C84.4806 12.7092 81.0986 16.0936 76.3933 16.0936H71.982V23.0364H67.3943V0.0366211ZM76.3957 11.4961C78.6013 11.4961 79.8757 10.0502 79.8757 8.07981C79.8757 6.10945 78.594 4.63168 76.3933 4.63413H71.9918V11.4961H76.3957Z" fill="#474645"/>
<path d="M114.291 19.3729H102.206L100.533 23.0195H95.4744L106.115 0.029541H110.38L121.023 23.0171H115.967L114.291 19.3729ZM112.156 14.7754L108.247 6.33519L104.341 14.7754H112.156Z" fill="#474645"/>
<path d="M136.158 0.0244234H140.165L152.581 15.1281V0.0219727H157.178V23.0095H153.169L140.758 7.90587V23.012H136.161L136.158 0.0244234Z" fill="#474645"/>
<path d="M173.301 17.1941L177.44 15.4786C177.867 17.3828 178.984 18.4023 181.021 18.3998C182.761 18.3998 183.81 17.7112 183.81 16.3976C183.81 14.9517 182.695 14.4934 179.644 13.4739C176.164 12.2608 173.537 10.489 173.537 6.67812C173.537 2.5732 176.477 0.0122163 180.923 0.00976562C185.028 0.00976562 187.819 2.17618 188.643 5.82282L184.503 7.53831C184.077 5.59981 182.959 4.61463 180.923 4.61463C179.183 4.61463 178.132 5.30572 178.132 6.6193C178.132 8.06276 179.249 8.52349 182.298 9.54053C185.778 10.7659 188.405 12.5279 188.405 16.3388C188.405 20.4437 185.464 23.0047 181.019 23.0047C176.916 23.0071 174.125 20.8309 173.301 17.1941Z" fill="#474645"/>
<path d="M204.758 0.0146484H209.356V23.0022H204.763L204.758 0.0146484Z" fill="#474645"/>
<path d="M225.383 11.5036C225.383 4.93568 230.307 0.00977583 236.875 0.00732513C243.443 0.00487443 248.371 4.93323 248.371 11.5011C248.371 18.069 243.447 22.9949 236.88 22.9973C230.312 22.9998 225.386 18.0714 225.383 11.5036ZM243.764 11.5036C243.764 7.4648 240.874 4.60729 236.867 4.60729C232.86 4.60729 229.971 7.46725 229.971 11.506C229.971 15.5448 232.831 18.4023 236.87 18.4023C240.908 18.4023 243.776 15.508 243.773 11.5011L243.764 11.5036Z" fill="#474645"/>
<path d="M264.394 0H268.401L280.818 15.1037V0H285.416V22.9876H281.409L268.994 7.8839V22.99H264.396L264.394 0Z" fill="#474645"/>
<path d="M8.01378 31.7366C10.1382 31.6995 12.1966 32.4753 13.768 33.9055L12.2388 36.8292C11.0502 35.6185 9.72682 34.9348 7.99173 34.9348C5.20528 34.9348 3.19571 36.8953 3.19571 39.7308C3.19571 42.5663 5.20773 44.5244 7.94762 44.5244C8.7998 44.5314 9.64334 44.3531 10.4198 44.0019C11.1963 43.6507 11.8872 43.1349 12.4446 42.4903L14.0204 45.4581C12.3756 46.9578 10.2171 47.7676 7.99173 47.7201C3.44813 47.7201 0 44.2744 0 39.7014C0 35.1284 3.44568 31.7391 8.01378 31.7366Z" fill="#474645"/>
<path d="M36.17 45.1811H27.769L26.6049 47.7151H23.0881L30.4819 31.7317H33.4521L40.8508 47.7127H37.3365L36.17 45.1811ZM34.6848 41.9952L31.967 36.1258L29.2516 41.9952H34.6848Z" fill="#474645"/>
<path d="M51.3765 31.7292H57.6331C60.8974 31.7292 63.2501 34.1015 63.2501 37.3217C63.2501 40.542 60.8999 42.8873 57.6355 42.8873H54.5746V47.7054H51.3887L51.3765 31.7292ZM57.6331 39.7014C59.1648 39.7014 60.0544 38.6966 60.0544 37.3266C60.0544 35.9567 59.1623 34.9299 57.6331 34.9299H54.5746V39.7014H57.6331Z" fill="#474645"/>
<path d="M74.1655 31.7268H77.3514V47.7103H74.1655V31.7268Z" fill="#474645"/>
<path d="M93.6166 34.92H87.8428V31.7341H102.594V34.92H96.8172V47.7053H93.6166V34.92Z" fill="#474645"/>
<path d="M122.804 45.1662H114.403L113.239 47.7003H109.723L117.116 31.7168H120.084L127.483 47.6978H123.971L122.804 45.1662ZM121.319 41.9803L118.614 36.1035L115.898 41.9705L121.319 41.9803Z" fill="#474645"/>
<path d="M138.011 31.7146H141.197V44.5023H148.459V47.6883H138.014L138.011 31.7146Z" fill="#474645"/>
<path d="M181.418 31.707C183.589 31.707 185.712 32.4153 187.3 33.9666L185.748 36.9368C185.2 36.2873 184.514 35.768 183.74 35.4166C182.966 35.0652 182.123 34.8905 181.273 34.9052C178.465 34.9052 176.499 36.8658 176.502 39.7012C176.504 42.5367 178.462 44.5168 181.364 44.5168C183.102 44.5168 184.927 43.6027 185.315 41.7524H180.827V38.5665H188.978V39.6154C188.978 44.8452 185.577 47.7027 181.423 47.7027C176.605 47.7027 173.294 44.3477 173.292 39.7355C173.289 35.1233 176.556 31.7095 181.418 31.707Z" fill="#474645"/>
<path d="M208.527 47.6857L205.097 42.3432H203.114V47.6882H199.928V31.7047H206.731C207.434 31.6904 208.132 31.8182 208.784 32.0804C209.437 32.3427 210.029 32.734 210.526 33.2309C211.023 33.7279 211.415 34.3201 211.677 34.9721C211.94 35.6241 212.068 36.3224 212.054 37.0252C212.054 39.3778 210.684 41.2722 208.623 42.0025L212.439 47.6882L208.527 47.6857ZM203.114 39.1475H206.721C207.003 39.1574 207.284 39.1092 207.546 39.006C207.808 38.9027 208.046 38.7465 208.245 38.5471C208.444 38.3478 208.6 38.1095 208.703 37.8472C208.806 37.585 208.854 37.3043 208.844 37.0227C208.858 36.7403 208.812 36.4581 208.711 36.1942C208.609 35.9304 208.453 35.6908 208.253 35.4908C208.053 35.2909 207.814 35.135 207.55 35.0333C207.286 34.9317 207.004 34.8864 206.721 34.9004H203.114V39.1475Z" fill="#474645"/>
<path d="M222.033 39.7012C222.033 35.1355 225.464 31.7095 230.023 31.7095C234.581 31.7095 238.017 35.1405 238.017 39.6988C238.017 44.2571 234.586 47.6905 230.025 47.6929C225.464 47.6954 222.033 44.2595 222.033 39.7012ZM234.819 39.7012C234.819 36.8952 232.809 34.9076 230.025 34.9076C227.241 34.9076 225.219 36.8829 225.219 39.7012C225.219 42.5195 227.207 44.4948 230.015 44.4948C232.824 44.4948 234.809 42.4754 234.806 39.7012H234.819Z" fill="#474645"/>
<path d="M248.783 40.2823V31.7048H251.969V40.2823C251.969 42.8874 253.797 44.4852 256.218 44.4852C258.639 44.4852 260.441 42.8849 260.441 40.2823V31.7048H263.627V40.2823C263.627 44.6666 260.441 47.6809 256.206 47.6809C251.971 47.6809 248.785 44.6666 248.783 40.2823Z" fill="#474645"/>
<path d="M275.338 31.6924H281.585C284.85 31.6924 287.202 34.0671 287.202 37.2873C287.202 40.5075 284.852 42.8578 281.588 42.8578H278.527V47.6758H275.341L275.338 31.6924ZM281.585 39.6596C283.117 39.6596 284.006 38.6548 284.006 37.2849C284.006 35.9149 283.114 34.8881 281.585 34.8881H278.527V39.6596H281.585Z" fill="#474645"/>
<path d="M45.9089 10.9131H37.0864L45.0218 0.186349C45.0553 0.141073 45.0988 0.104215 45.149 0.0786934C45.1992 0.0531714 45.2547 0.0396865 45.311 0.0393066H53.2635C53.3291 0.0396232 53.3934 0.0579852 53.4493 0.0923834C53.5052 0.126782 53.5505 0.175891 53.5804 0.234338C53.6103 0.292785 53.6235 0.358318 53.6186 0.423766C53.6137 0.489215 53.5909 0.552057 53.5527 0.605418L45.9089 10.9131Z" fill="#474645"/>
<path d="M45.9089 12.2756H37.0864L45.0316 23.0023C45.0651 23.0476 45.1086 23.0845 45.1588 23.11C45.209 23.1355 45.2645 23.149 45.3208 23.1494H53.2733C53.3389 23.1491 53.4032 23.1307 53.4591 23.0963C53.515 23.0619 53.5603 23.0128 53.5902 22.9544C53.6201 22.8959 53.6333 22.8304 53.6284 22.7649C53.6235 22.6995 53.6007 22.6366 53.5625 22.5833L45.9089 12.2756Z" fill="#474645"/>
<path d="M37.0693 10.9131H45.8918L37.9564 0.186349C37.9231 0.140932 37.8795 0.103971 37.8293 0.0784334C37.7791 0.052896 37.7236 0.0394949 37.6672 0.0393066H29.7147C29.6491 0.0396232 29.5848 0.0579852 29.5289 0.0923834C29.473 0.126782 29.4277 0.175891 29.3978 0.234338C29.368 0.292785 29.3547 0.358318 29.3596 0.423766C29.3645 0.489215 29.3873 0.552057 29.4255 0.605418L37.0693 10.9131Z" fill="#9B9B9B"/>
<path d="M37.0693 12.2756H45.8918L37.9564 23.0023C37.9231 23.0478 37.8795 23.0847 37.8293 23.1103C37.7791 23.1358 37.7236 23.1492 37.6672 23.1494H29.7147C29.6491 23.1491 29.5848 23.1307 29.5289 23.0963C29.473 23.0619 29.4277 23.0128 29.3978 22.9544C29.368 22.8959 29.3547 22.8304 29.3596 22.7649C29.3645 22.6995 29.3873 22.6366 29.4255 22.5833L37.0693 12.2756Z" fill="#9B9B9B"/>
</g>
<defs>
<clipPath id="clip0_52_9045">
<rect width="287.212" height="47.72" fill="white"/>
</clipPath>
</defs>
</svg>
