<svg width="20" height="21" viewBox="0 0 20 21" fill="none" xmlns="http://www.w3.org/2000/svg">
<mask id="mask0_71_2086" style="mask-type:alpha" maskUnits="userSpaceOnUse" x="0" y="0" width="20" height="21">
<rect y="0.638184" width="20" height="20" fill="#D9D9D9"/>
</mask>
<g mask="url(#mask0_71_2086)">
<path d="M3.33332 14.8048V16.4715H16.6667V14.8048H3.33332ZM5.83332 5.63814V3.97148C5.83332 3.51314 5.99652 3.12078 6.32291 2.79439C6.6493 2.468 7.04166 2.30481 7.49999 2.30481H12.5C12.9583 2.30481 13.3507 2.468 13.6771 2.79439C14.0035 3.12078 14.1667 3.51314 14.1667 3.97148V5.63814H16.6667C17.125 5.63814 17.5174 5.80134 17.8437 6.12773C18.1701 6.45411 18.3333 6.84648 18.3333 7.30481V16.4715C18.3333 16.9298 18.1701 17.3222 17.8437 17.6486C17.5174 17.9749 17.125 18.1381 16.6667 18.1381H3.33332C2.87499 18.1381 2.48263 17.9749 2.15624 17.6486C1.82985 17.3222 1.66666 16.9298 1.66666 16.4715V7.30481C1.66666 6.84648 1.82985 6.45411 2.15624 6.12773C2.48263 5.80134 2.87499 5.63814 3.33332 5.63814H5.83332ZM3.33332 12.3048H16.6667V7.30481H14.1667V8.97148H12.5V7.30481H7.49999V8.97148H5.83332V7.30481H3.33332V12.3048ZM7.49999 5.63814H12.5V3.97148H7.49999V5.63814Z" fill="#171717"/>
</g>
</svg>
