<svg width="12" height="18" viewBox="0 0 12 18" fill="none" xmlns="http://www.w3.org/2000/svg">
<path d="M1.83366 2.33317V15.6665H10.167V2.33317H1.83366ZM1.00033 0.666504H11.0003C11.4606 0.666504 11.8337 1.0396 11.8337 1.49984V16.4998C11.8337 16.9601 11.4606 17.3332 11.0003 17.3332H1.00033C0.540092 17.3332 0.166992 16.9601 0.166992 16.4998V1.49984C0.166992 1.0396 0.540092 0.666504 1.00033 0.666504ZM6.00033 13.1665C6.46058 13.1665 6.83366 13.5396 6.83366 13.9998C6.83366 14.4601 6.46058 14.8332 6.00033 14.8332C5.54008 14.8332 5.16699 14.4601 5.16699 13.9998C5.16699 13.5396 5.54008 13.1665 6.00033 13.1665Z" fill="black"/>
</svg>
