<svg width="24" height="25" viewBox="0 0 24 25" fill="none" xmlns="http://www.w3.org/2000/svg">
<mask id="mask0_52_8715" style="mask-type:luminance" maskUnits="userSpaceOnUse" x="0" y="0" width="24" height="25">
<path d="M24 0.138672H0V24.1387H24V0.138672Z" fill="white"/>
</mask>
<g mask="url(#mask0_52_8715)">
<path d="M23.5216 6.32359C23.3859 5.813 23.1185 5.34701 22.7461 4.97225C22.3737 4.59748 21.9095 4.32709 21.3998 4.18814C19.5234 3.68359 12.0234 3.68359 12.0234 3.68359C12.0234 3.68359 4.52343 3.68359 2.64707 4.18814C2.13736 4.32709 1.67309 4.59748 1.30072 4.97225C0.928354 5.34701 0.660943 5.813 0.525256 6.32359C0.0234376 8.20814 0.0234375 12.1382 0.0234375 12.1382C0.0234375 12.1382 0.0234376 16.0682 0.525256 17.9527C0.660943 18.4633 0.928354 18.9293 1.30072 19.304C1.67309 19.6788 2.13736 19.9492 2.64707 20.0882C4.52343 20.5927 12.0234 20.5927 12.0234 20.5927C12.0234 20.5927 19.5234 20.5927 21.3998 20.0882C21.9095 19.9492 22.3737 19.6788 22.7461 19.304C23.1185 18.9293 23.3859 18.4633 23.5216 17.9527C24.0234 16.0682 24.0234 12.1382 24.0234 12.1382C24.0234 12.1382 24.0234 8.20814 23.5216 6.32359Z" fill="white"/>
<path d="M9.57031 15.7076V8.57031L15.8431 12.1389L9.57031 15.7076Z" fill="#121212"/>
</g>
</svg>
